<?xml version="1.0" encoding="utf-8" standalone="no"?>
<!DOCTYPE svg PUBLIC "-//W3C//DTD SVG 1.1//EN"
  "http://www.w3.org/Graphics/SVG/1.1/DTD/svg11.dtd">
<svg xmlns:xlink="http://www.w3.org/1999/xlink" width="720pt" height="360pt" viewBox="0 0 720 360" xmlns="http://www.w3.org/2000/svg" version="1.1">
 <metadata>
  <rdf:RDF xmlns:dc="http://purl.org/dc/elements/1.1/" xmlns:cc="http://creativecommons.org/ns#" xmlns:rdf="http://www.w3.org/1999/02/22-rdf-syntax-ns#">
   <cc:Work>
    <dc:type rdf:resource="http://purl.org/dc/dcmitype/StillImage"/>
    <dc:date>2024-07-05T13:38:53.610378</dc:date>
    <dc:format>image/svg+xml</dc:format>
    <dc:creator>
     <cc:Agent>
      <dc:title>Matplotlib v3.7.2, https://matplotlib.org/</dc:title>
     </cc:Agent>
    </dc:creator>
   </cc:Work>
  </rdf:RDF>
 </metadata>
 <defs>
  <style type="text/css">*{stroke-linejoin: round; stroke-linecap: butt}</style>
 </defs>
 <g id="figure_1">
  <g id="patch_1">
   <path d="M 0 360 
L 720 360 
L 720 0 
L 0 0 
z
" style="fill: #ffffff"/>
  </g>
  <g id="axes_1">
   <g id="patch_2">
    <path d="M 90 320.4 
L 648 320.4 
L 648 43.2 
L 90 43.2 
z
" style="fill: #ffffff"/>
   </g>
   <g id="matplotlib.axis_1">
    <g id="xtick_1">
     <g id="line2d_1">
      <defs>
       <path id="m7a987e034d" d="M 0 0 
L 0 3.5 
" style="stroke: #000000; stroke-width: 0.8"/>
      </defs>
      <g>
       <use xlink:href="#m7a987e034d" x="115.363636" y="320.4" style="stroke: #000000; stroke-width: 0.8"/>
      </g>
     </g>
     <g id="text_1">
      <!-- 0 -->
      <g transform="translate(112.182386 334.998438) scale(0.1 -0.1)">
       <defs>
        <path id="DejaVuSans-30" d="M 2034 4250 
Q 1547 4250 1301 3770 
Q 1056 3291 1056 2328 
Q 1056 1369 1301 889 
Q 1547 409 2034 409 
Q 2525 409 2770 889 
Q 3016 1369 3016 2328 
Q 3016 3291 2770 3770 
Q 2525 4250 2034 4250 
z
M 2034 4750 
Q 2819 4750 3233 4129 
Q 3647 3509 3647 2328 
Q 3647 1150 3233 529 
Q 2819 -91 2034 -91 
Q 1250 -91 836 529 
Q 422 1150 422 2328 
Q 422 3509 836 4129 
Q 1250 4750 2034 4750 
z
" transform="scale(0.015625)"/>
       </defs>
       <use xlink:href="#DejaVuSans-30"/>
      </g>
     </g>
    </g>
    <g id="xtick_2">
     <g id="line2d_2">
      <g>
       <use xlink:href="#m7a987e034d" x="193.405594" y="320.4" style="stroke: #000000; stroke-width: 0.8"/>
      </g>
     </g>
     <g id="text_2">
      <!-- 200 -->
      <g transform="translate(183.861844 334.998438) scale(0.1 -0.1)">
       <defs>
        <path id="DejaVuSans-32" d="M 1228 531 
L 3431 531 
L 3431 0 
L 469 0 
L 469 531 
Q 828 903 1448 1529 
Q 2069 2156 2228 2338 
Q 2531 2678 2651 2914 
Q 2772 3150 2772 3378 
Q 2772 3750 2511 3984 
Q 2250 4219 1831 4219 
Q 1534 4219 1204 4116 
Q 875 4013 500 3803 
L 500 4441 
Q 881 4594 1212 4672 
Q 1544 4750 1819 4750 
Q 2544 4750 2975 4387 
Q 3406 4025 3406 3419 
Q 3406 3131 3298 2873 
Q 3191 2616 2906 2266 
Q 2828 2175 2409 1742 
Q 1991 1309 1228 531 
z
" transform="scale(0.015625)"/>
       </defs>
       <use xlink:href="#DejaVuSans-32"/>
       <use xlink:href="#DejaVuSans-30" x="63.623047"/>
       <use xlink:href="#DejaVuSans-30" x="127.246094"/>
      </g>
     </g>
    </g>
    <g id="xtick_3">
     <g id="line2d_3">
      <g>
       <use xlink:href="#m7a987e034d" x="271.447552" y="320.4" style="stroke: #000000; stroke-width: 0.8"/>
      </g>
     </g>
     <g id="text_3">
      <!-- 400 -->
      <g transform="translate(261.903802 334.998438) scale(0.1 -0.1)">
       <defs>
        <path id="DejaVuSans-34" d="M 2419 4116 
L 825 1625 
L 2419 1625 
L 2419 4116 
z
M 2253 4666 
L 3047 4666 
L 3047 1625 
L 3713 1625 
L 3713 1100 
L 3047 1100 
L 3047 0 
L 2419 0 
L 2419 1100 
L 313 1100 
L 313 1709 
L 2253 4666 
z
" transform="scale(0.015625)"/>
       </defs>
       <use xlink:href="#DejaVuSans-34"/>
       <use xlink:href="#DejaVuSans-30" x="63.623047"/>
       <use xlink:href="#DejaVuSans-30" x="127.246094"/>
      </g>
     </g>
    </g>
    <g id="xtick_4">
     <g id="line2d_4">
      <g>
       <use xlink:href="#m7a987e034d" x="349.48951" y="320.4" style="stroke: #000000; stroke-width: 0.8"/>
      </g>
     </g>
     <g id="text_4">
      <!-- 600 -->
      <g transform="translate(339.94576 334.998438) scale(0.1 -0.1)">
       <defs>
        <path id="DejaVuSans-36" d="M 2113 2584 
Q 1688 2584 1439 2293 
Q 1191 2003 1191 1497 
Q 1191 994 1439 701 
Q 1688 409 2113 409 
Q 2538 409 2786 701 
Q 3034 994 3034 1497 
Q 3034 2003 2786 2293 
Q 2538 2584 2113 2584 
z
M 3366 4563 
L 3366 3988 
Q 3128 4100 2886 4159 
Q 2644 4219 2406 4219 
Q 1781 4219 1451 3797 
Q 1122 3375 1075 2522 
Q 1259 2794 1537 2939 
Q 1816 3084 2150 3084 
Q 2853 3084 3261 2657 
Q 3669 2231 3669 1497 
Q 3669 778 3244 343 
Q 2819 -91 2113 -91 
Q 1303 -91 875 529 
Q 447 1150 447 2328 
Q 447 3434 972 4092 
Q 1497 4750 2381 4750 
Q 2619 4750 2861 4703 
Q 3103 4656 3366 4563 
z
" transform="scale(0.015625)"/>
       </defs>
       <use xlink:href="#DejaVuSans-36"/>
       <use xlink:href="#DejaVuSans-30" x="63.623047"/>
       <use xlink:href="#DejaVuSans-30" x="127.246094"/>
      </g>
     </g>
    </g>
    <g id="xtick_5">
     <g id="line2d_5">
      <g>
       <use xlink:href="#m7a987e034d" x="427.531469" y="320.4" style="stroke: #000000; stroke-width: 0.8"/>
      </g>
     </g>
     <g id="text_5">
      <!-- 800 -->
      <g transform="translate(417.987719 334.998438) scale(0.1 -0.1)">
       <defs>
        <path id="DejaVuSans-38" d="M 2034 2216 
Q 1584 2216 1326 1975 
Q 1069 1734 1069 1313 
Q 1069 891 1326 650 
Q 1584 409 2034 409 
Q 2484 409 2743 651 
Q 3003 894 3003 1313 
Q 3003 1734 2745 1975 
Q 2488 2216 2034 2216 
z
M 1403 2484 
Q 997 2584 770 2862 
Q 544 3141 544 3541 
Q 544 4100 942 4425 
Q 1341 4750 2034 4750 
Q 2731 4750 3128 4425 
Q 3525 4100 3525 3541 
Q 3525 3141 3298 2862 
Q 3072 2584 2669 2484 
Q 3125 2378 3379 2068 
Q 3634 1759 3634 1313 
Q 3634 634 3220 271 
Q 2806 -91 2034 -91 
Q 1263 -91 848 271 
Q 434 634 434 1313 
Q 434 1759 690 2068 
Q 947 2378 1403 2484 
z
M 1172 3481 
Q 1172 3119 1398 2916 
Q 1625 2713 2034 2713 
Q 2441 2713 2670 2916 
Q 2900 3119 2900 3481 
Q 2900 3844 2670 4047 
Q 2441 4250 2034 4250 
Q 1625 4250 1398 4047 
Q 1172 3844 1172 3481 
z
" transform="scale(0.015625)"/>
       </defs>
       <use xlink:href="#DejaVuSans-38"/>
       <use xlink:href="#DejaVuSans-30" x="63.623047"/>
       <use xlink:href="#DejaVuSans-30" x="127.246094"/>
      </g>
     </g>
    </g>
    <g id="xtick_6">
     <g id="line2d_6">
      <g>
       <use xlink:href="#m7a987e034d" x="505.573427" y="320.4" style="stroke: #000000; stroke-width: 0.8"/>
      </g>
     </g>
     <g id="text_6">
      <!-- 1000 -->
      <g transform="translate(492.848427 334.998438) scale(0.1 -0.1)">
       <defs>
        <path id="DejaVuSans-31" d="M 794 531 
L 1825 531 
L 1825 4091 
L 703 3866 
L 703 4441 
L 1819 4666 
L 2450 4666 
L 2450 531 
L 3481 531 
L 3481 0 
L 794 0 
L 794 531 
z
" transform="scale(0.015625)"/>
       </defs>
       <use xlink:href="#DejaVuSans-31"/>
       <use xlink:href="#DejaVuSans-30" x="63.623047"/>
       <use xlink:href="#DejaVuSans-30" x="127.246094"/>
       <use xlink:href="#DejaVuSans-30" x="190.869141"/>
      </g>
     </g>
    </g>
    <g id="xtick_7">
     <g id="line2d_7">
      <g>
       <use xlink:href="#m7a987e034d" x="583.615385" y="320.4" style="stroke: #000000; stroke-width: 0.8"/>
      </g>
     </g>
     <g id="text_7">
      <!-- 1200 -->
      <g transform="translate(570.890385 334.998438) scale(0.1 -0.1)">
       <use xlink:href="#DejaVuSans-31"/>
       <use xlink:href="#DejaVuSans-32" x="63.623047"/>
       <use xlink:href="#DejaVuSans-30" x="127.246094"/>
       <use xlink:href="#DejaVuSans-30" x="190.869141"/>
      </g>
     </g>
    </g>
    <g id="text_8">
     <!-- batch -->
     <g transform="translate(354.883594 348.676562) scale(0.1 -0.1)">
      <defs>
       <path id="DejaVuSans-62" d="M 3116 1747 
Q 3116 2381 2855 2742 
Q 2594 3103 2138 3103 
Q 1681 3103 1420 2742 
Q 1159 2381 1159 1747 
Q 1159 1113 1420 752 
Q 1681 391 2138 391 
Q 2594 391 2855 752 
Q 3116 1113 3116 1747 
z
M 1159 2969 
Q 1341 3281 1617 3432 
Q 1894 3584 2278 3584 
Q 2916 3584 3314 3078 
Q 3713 2572 3713 1747 
Q 3713 922 3314 415 
Q 2916 -91 2278 -91 
Q 1894 -91 1617 61 
Q 1341 213 1159 525 
L 1159 0 
L 581 0 
L 581 4863 
L 1159 4863 
L 1159 2969 
z
" transform="scale(0.015625)"/>
       <path id="DejaVuSans-61" d="M 2194 1759 
Q 1497 1759 1228 1600 
Q 959 1441 959 1056 
Q 959 750 1161 570 
Q 1363 391 1709 391 
Q 2188 391 2477 730 
Q 2766 1069 2766 1631 
L 2766 1759 
L 2194 1759 
z
M 3341 1997 
L 3341 0 
L 2766 0 
L 2766 531 
Q 2569 213 2275 61 
Q 1981 -91 1556 -91 
Q 1019 -91 701 211 
Q 384 513 384 1019 
Q 384 1609 779 1909 
Q 1175 2209 1959 2209 
L 2766 2209 
L 2766 2266 
Q 2766 2663 2505 2880 
Q 2244 3097 1772 3097 
Q 1472 3097 1187 3025 
Q 903 2953 641 2809 
L 641 3341 
Q 956 3463 1253 3523 
Q 1550 3584 1831 3584 
Q 2591 3584 2966 3190 
Q 3341 2797 3341 1997 
z
" transform="scale(0.015625)"/>
       <path id="DejaVuSans-74" d="M 1172 4494 
L 1172 3500 
L 2356 3500 
L 2356 3053 
L 1172 3053 
L 1172 1153 
Q 1172 725 1289 603 
Q 1406 481 1766 481 
L 2356 481 
L 2356 0 
L 1766 0 
Q 1100 0 847 248 
Q 594 497 594 1153 
L 594 3053 
L 172 3053 
L 172 3500 
L 594 3500 
L 594 4494 
L 1172 4494 
z
" transform="scale(0.015625)"/>
       <path id="DejaVuSans-63" d="M 3122 3366 
L 3122 2828 
Q 2878 2963 2633 3030 
Q 2388 3097 2138 3097 
Q 1578 3097 1268 2742 
Q 959 2388 959 1747 
Q 959 1106 1268 751 
Q 1578 397 2138 397 
Q 2388 397 2633 464 
Q 2878 531 3122 666 
L 3122 134 
Q 2881 22 2623 -34 
Q 2366 -91 2075 -91 
Q 1284 -91 818 406 
Q 353 903 353 1747 
Q 353 2603 823 3093 
Q 1294 3584 2113 3584 
Q 2378 3584 2631 3529 
Q 2884 3475 3122 3366 
z
" transform="scale(0.015625)"/>
       <path id="DejaVuSans-68" d="M 3513 2113 
L 3513 0 
L 2938 0 
L 2938 2094 
Q 2938 2591 2744 2837 
Q 2550 3084 2163 3084 
Q 1697 3084 1428 2787 
Q 1159 2491 1159 1978 
L 1159 0 
L 581 0 
L 581 4863 
L 1159 4863 
L 1159 2956 
Q 1366 3272 1645 3428 
Q 1925 3584 2291 3584 
Q 2894 3584 3203 3211 
Q 3513 2838 3513 2113 
z
" transform="scale(0.015625)"/>
      </defs>
      <use xlink:href="#DejaVuSans-62"/>
      <use xlink:href="#DejaVuSans-61" x="63.476562"/>
      <use xlink:href="#DejaVuSans-74" x="124.755859"/>
      <use xlink:href="#DejaVuSans-63" x="163.964844"/>
      <use xlink:href="#DejaVuSans-68" x="218.945312"/>
     </g>
    </g>
   </g>
   <g id="matplotlib.axis_2">
    <g id="ytick_1">
     <g id="line2d_8">
      <defs>
       <path id="m1de03db25b" d="M 0 0 
L -3.5 0 
" style="stroke: #000000; stroke-width: 0.8"/>
      </defs>
      <g>
       <use xlink:href="#m1de03db25b" x="90" y="308.409584" style="stroke: #000000; stroke-width: 0.8"/>
      </g>
     </g>
     <g id="text_9">
      <!-- 0.0 -->
      <g transform="translate(67.096875 312.208803) scale(0.1 -0.1)">
       <defs>
        <path id="DejaVuSans-2e" d="M 684 794 
L 1344 794 
L 1344 0 
L 684 0 
L 684 794 
z
" transform="scale(0.015625)"/>
       </defs>
       <use xlink:href="#DejaVuSans-30"/>
       <use xlink:href="#DejaVuSans-2e" x="63.623047"/>
       <use xlink:href="#DejaVuSans-30" x="95.410156"/>
      </g>
     </g>
    </g>
    <g id="ytick_2">
     <g id="line2d_9">
      <g>
       <use xlink:href="#m1de03db25b" x="90" y="256.41956" style="stroke: #000000; stroke-width: 0.8"/>
      </g>
     </g>
     <g id="text_10">
      <!-- 0.5 -->
      <g transform="translate(67.096875 260.218779) scale(0.1 -0.1)">
       <defs>
        <path id="DejaVuSans-35" d="M 691 4666 
L 3169 4666 
L 3169 4134 
L 1269 4134 
L 1269 2991 
Q 1406 3038 1543 3061 
Q 1681 3084 1819 3084 
Q 2600 3084 3056 2656 
Q 3513 2228 3513 1497 
Q 3513 744 3044 326 
Q 2575 -91 1722 -91 
Q 1428 -91 1123 -41 
Q 819 9 494 109 
L 494 744 
Q 775 591 1075 516 
Q 1375 441 1709 441 
Q 2250 441 2565 725 
Q 2881 1009 2881 1497 
Q 2881 1984 2565 2268 
Q 2250 2553 1709 2553 
Q 1456 2553 1204 2497 
Q 953 2441 691 2322 
L 691 4666 
z
" transform="scale(0.015625)"/>
       </defs>
       <use xlink:href="#DejaVuSans-30"/>
       <use xlink:href="#DejaVuSans-2e" x="63.623047"/>
       <use xlink:href="#DejaVuSans-35" x="95.410156"/>
      </g>
     </g>
    </g>
    <g id="ytick_3">
     <g id="line2d_10">
      <g>
       <use xlink:href="#m1de03db25b" x="90" y="204.429535" style="stroke: #000000; stroke-width: 0.8"/>
      </g>
     </g>
     <g id="text_11">
      <!-- 1.0 -->
      <g transform="translate(67.096875 208.228754) scale(0.1 -0.1)">
       <use xlink:href="#DejaVuSans-31"/>
       <use xlink:href="#DejaVuSans-2e" x="63.623047"/>
       <use xlink:href="#DejaVuSans-30" x="95.410156"/>
      </g>
     </g>
    </g>
    <g id="ytick_4">
     <g id="line2d_11">
      <g>
       <use xlink:href="#m1de03db25b" x="90" y="152.439511" style="stroke: #000000; stroke-width: 0.8"/>
      </g>
     </g>
     <g id="text_12">
      <!-- 1.5 -->
      <g transform="translate(67.096875 156.238729) scale(0.1 -0.1)">
       <use xlink:href="#DejaVuSans-31"/>
       <use xlink:href="#DejaVuSans-2e" x="63.623047"/>
       <use xlink:href="#DejaVuSans-35" x="95.410156"/>
      </g>
     </g>
    </g>
    <g id="ytick_5">
     <g id="line2d_12">
      <g>
       <use xlink:href="#m1de03db25b" x="90" y="100.449486" style="stroke: #000000; stroke-width: 0.8"/>
      </g>
     </g>
     <g id="text_13">
      <!-- 2.0 -->
      <g transform="translate(67.096875 104.248705) scale(0.1 -0.1)">
       <use xlink:href="#DejaVuSans-32"/>
       <use xlink:href="#DejaVuSans-2e" x="63.623047"/>
       <use xlink:href="#DejaVuSans-30" x="95.410156"/>
      </g>
     </g>
    </g>
    <g id="ytick_6">
     <g id="line2d_13">
      <g>
       <use xlink:href="#m1de03db25b" x="90" y="48.459461" style="stroke: #000000; stroke-width: 0.8"/>
      </g>
     </g>
     <g id="text_14">
      <!-- 2.5 -->
      <g transform="translate(67.096875 52.25868) scale(0.1 -0.1)">
       <use xlink:href="#DejaVuSans-32"/>
       <use xlink:href="#DejaVuSans-2e" x="63.623047"/>
       <use xlink:href="#DejaVuSans-35" x="95.410156"/>
      </g>
     </g>
    </g>
    <g id="text_15">
     <!-- loss -->
     <g transform="translate(61.017187 191.457812) rotate(-90) scale(0.1 -0.1)">
      <defs>
       <path id="DejaVuSans-6c" d="M 603 4863 
L 1178 4863 
L 1178 0 
L 603 0 
L 603 4863 
z
" transform="scale(0.015625)"/>
       <path id="DejaVuSans-6f" d="M 1959 3097 
Q 1497 3097 1228 2736 
Q 959 2375 959 1747 
Q 959 1119 1226 758 
Q 1494 397 1959 397 
Q 2419 397 2687 759 
Q 2956 1122 2956 1747 
Q 2956 2369 2687 2733 
Q 2419 3097 1959 3097 
z
M 1959 3584 
Q 2709 3584 3137 3096 
Q 3566 2609 3566 1747 
Q 3566 888 3137 398 
Q 2709 -91 1959 -91 
Q 1206 -91 779 398 
Q 353 888 353 1747 
Q 353 2609 779 3096 
Q 1206 3584 1959 3584 
z
" transform="scale(0.015625)"/>
       <path id="DejaVuSans-73" d="M 2834 3397 
L 2834 2853 
Q 2591 2978 2328 3040 
Q 2066 3103 1784 3103 
Q 1356 3103 1142 2972 
Q 928 2841 928 2578 
Q 928 2378 1081 2264 
Q 1234 2150 1697 2047 
L 1894 2003 
Q 2506 1872 2764 1633 
Q 3022 1394 3022 966 
Q 3022 478 2636 193 
Q 2250 -91 1575 -91 
Q 1294 -91 989 -36 
Q 684 19 347 128 
L 347 722 
Q 666 556 975 473 
Q 1284 391 1588 391 
Q 1994 391 2212 530 
Q 2431 669 2431 922 
Q 2431 1156 2273 1281 
Q 2116 1406 1581 1522 
L 1381 1569 
Q 847 1681 609 1914 
Q 372 2147 372 2553 
Q 372 3047 722 3315 
Q 1072 3584 1716 3584 
Q 2034 3584 2315 3537 
Q 2597 3491 2834 3397 
z
" transform="scale(0.015625)"/>
      </defs>
      <use xlink:href="#DejaVuSans-6c"/>
      <use xlink:href="#DejaVuSans-6f" x="27.783203"/>
      <use xlink:href="#DejaVuSans-73" x="88.964844"/>
      <use xlink:href="#DejaVuSans-73" x="141.064453"/>
     </g>
    </g>
   </g>
   <g id="line2d_14">
    <path d="M 115.753846 55.8 
L 116.534266 84.460626 
L 116.924476 104.823146 
L 117.704895 130.149243 
L 118.095105 146.48535 
L 120.046154 195.040418 
L 120.436364 201.899902 
L 120.826573 206.399988 
L 121.216783 212.295979 
L 121.606993 220.602259 
L 121.997203 224.646919 
L 122.777622 236.416876 
L 123.167832 238.139858 
L 123.558042 246.450799 
L 123.948252 244.833878 
L 124.338462 250.643648 
L 124.728671 249.982681 
L 125.118881 256.949606 
L 125.509091 254.615164 
L 125.899301 259.183887 
L 126.28951 260.285995 
L 126.67972 264.838806 
L 127.06993 263.084261 
L 127.46014 268.322154 
L 127.85035 265.917986 
L 128.240559 265.870383 
L 128.630769 269.226639 
L 129.020979 270.314915 
L 129.411189 274.392084 
L 129.801399 274.212875 
L 130.191608 275.109354 
L 130.972028 279.187639 
L 131.362238 275.637434 
L 131.752448 274.919724 
L 132.142657 279.606489 
L 132.532867 281.397418 
L 132.923077 280.473286 
L 133.313287 284.475222 
L 133.703497 283.923622 
L 134.093706 284.677969 
L 134.483916 284.462354 
L 134.874126 279.692802 
L 135.264336 281.337148 
L 135.654545 284.965488 
L 136.044755 284.216589 
L 136.434965 290.470113 
L 136.825175 288.196765 
L 137.215385 289.30935 
L 137.605594 284.769272 
L 137.995804 284.169938 
L 138.386014 286.177994 
L 138.776224 291.314787 
L 139.166434 290.919775 
L 139.556643 288.861934 
L 139.946853 288.403941 
L 140.337063 290.679967 
L 140.727273 291.990176 
L 141.117483 287.76205 
L 141.507692 290.078755 
L 141.897902 290.041524 
L 142.288112 292.271307 
L 142.678322 292.354633 
L 143.068531 293.467085 
L 143.458741 292.854967 
L 143.848951 291.197001 
L 144.239161 292.304643 
L 144.629371 294.945361 
L 145.01958 291.639038 
L 145.40979 293.800219 
L 145.8 294.261081 
L 146.19021 292.704788 
L 146.58042 290.562428 
L 146.970629 295.011049 
L 147.360839 288.89745 
L 147.751049 292.3887 
L 148.141259 293.135915 
L 148.531469 292.449163 
L 149.311888 295.494162 
L 149.702098 293.127755 
L 150.092308 294.438698 
L 150.482517 297.519428 
L 150.872727 294.251291 
L 151.262937 294.968348 
L 151.653147 293.095165 
L 152.043357 293.4716 
L 152.433566 298.412818 
L 152.823776 291.824274 
L 153.213986 296.440531 
L 153.604196 296.880634 
L 153.994406 296.568671 
L 154.384615 294.721816 
L 154.774825 296.274347 
L 155.165035 295.853151 
L 155.555245 293.377115 
L 155.945455 296.115796 
L 156.335664 297.108117 
L 156.725874 295.491336 
L 157.116084 295.012935 
L 157.506294 295.007443 
L 157.896503 299.054549 
L 158.286713 296.104709 
L 158.676923 297.216342 
L 159.067133 295.823354 
L 159.457343 295.461428 
L 159.847552 296.608499 
L 160.237762 295.535061 
L 161.018182 298.83221 
L 161.408392 295.457957 
L 161.798601 297.113295 
L 162.188811 297.048881 
L 162.579021 296.593657 
L 162.969231 294.388161 
L 163.359441 298.071322 
L 163.74965 298.920412 
L 164.13986 301.488256 
L 164.53007 296.848996 
L 164.92028 298.611668 
L 165.31049 297.777167 
L 165.700699 298.409363 
L 166.090909 298.515573 
L 166.481119 299.089408 
L 166.871329 296.318278 
L 167.261538 297.963958 
L 167.651748 297.345123 
L 168.041958 296.284422 
L 168.432168 300.452875 
L 168.822378 296.555721 
L 169.212587 297.614619 
L 169.602797 297.398381 
L 169.993007 301.53427 
L 170.383217 298.521229 
L 170.773427 297.613775 
L 171.163636 297.244147 
L 171.553846 298.68663 
L 171.944056 301.814777 
L 172.724476 296.566047 
L 173.114685 299.926312 
L 173.504895 299.676689 
L 173.895105 295.580233 
L 174.285315 298.63352 
L 174.675524 298.973377 
L 175.065734 300.599412 
L 175.455944 298.066846 
L 175.846154 298.732535 
L 176.236364 302.928029 
L 176.626573 299.088389 
L 177.406993 301.136171 
L 177.797203 297.926696 
L 178.187413 301.674266 
L 178.577622 302.315546 
L 179.358042 299.151801 
L 179.748252 299.01229 
L 180.138462 301.869846 
L 180.528671 300.735574 
L 180.918881 298.339413 
L 181.309091 299.473816 
L 181.699301 298.5393 
L 182.08951 301.706334 
L 182.47972 300.401111 
L 182.86993 299.86958 
L 183.26014 299.605608 
L 183.65035 299.946502 
L 184.040559 300.643088 
L 184.430769 300.416219 
L 184.820979 294.95816 
L 185.211189 297.00639 
L 185.601399 302.316906 
L 185.991608 304.110919 
L 186.381818 297.453973 
L 186.772028 303.263758 
L 187.162238 300.581724 
L 187.942657 301.549266 
L 188.332867 297.398333 
L 188.723077 302.450491 
L 189.113287 297.770823 
L 189.893706 300.770238 
L 190.674126 296.854278 
L 191.064336 303.403881 
L 191.454545 297.614647 
L 191.844755 300.329014 
L 192.234965 297.635985 
L 192.625175 302.175351 
L 193.015385 301.525368 
L 193.405594 302.65942 
L 193.795804 300.892165 
L 194.186014 299.765168 
L 194.576224 301.631882 
L 194.966434 301.619393 
L 195.356643 298.129006 
L 196.137063 303.605479 
L 196.527273 299.694838 
L 196.917483 301.771685 
L 197.307692 297.681525 
L 197.697902 300.476398 
L 198.478322 298.765773 
L 198.868531 297.451124 
L 199.258741 302.205067 
L 199.648951 298.097809 
L 200.429371 301.473001 
L 200.81958 301.399766 
L 201.20979 297.774816 
L 201.6 301.99358 
L 201.99021 300.899518 
L 202.38042 302.775417 
L 202.770629 302.614829 
L 203.160839 301.05091 
L 203.551049 300.641626 
L 203.941259 300.788892 
L 204.331469 299.472331 
L 204.721678 300.629141 
L 205.111888 298.881569 
L 205.502098 303.480133 
L 205.892308 301.713976 
L 206.282517 301.91034 
L 206.672727 298.03733 
L 207.062937 303.02229 
L 207.453147 300.578308 
L 207.843357 301.940543 
L 208.233566 301.447165 
L 208.623776 301.408103 
L 209.013986 302.172405 
L 209.404196 301.939484 
L 209.794406 304.011095 
L 210.184615 299.498922 
L 210.574825 301.579572 
L 210.965035 299.396944 
L 211.355245 298.664655 
L 211.745455 299.235462 
L 212.135664 303.779522 
L 212.525874 301.615739 
L 212.916084 298.482156 
L 213.306294 304.502771 
L 213.696503 301.16076 
L 214.086713 303.782449 
L 214.476923 302.511666 
L 214.867133 302.364887 
L 215.257343 300.110978 
L 215.647552 301.814695 
L 216.037762 299.564928 
L 216.818182 301.075308 
L 217.208392 302.387798 
L 217.598601 301.172772 
L 217.988811 303.027793 
L 218.379021 303.15727 
L 218.769231 301.800966 
L 219.159441 301.758335 
L 219.54965 300.4323 
L 219.93986 302.26705 
L 220.33007 302.535159 
L 220.72028 303.594985 
L 221.11049 300.122421 
L 221.890909 301.725502 
L 222.281119 303.588877 
L 222.671329 299.517825 
L 223.061538 304.666019 
L 223.451748 301.672253 
L 223.841958 302.766783 
L 224.232168 304.743554 
L 224.622378 301.95886 
L 225.012587 300.076772 
L 225.402797 303.081115 
L 225.793007 299.875677 
L 226.573427 301.942492 
L 226.963636 304.38719 
L 227.353846 304.841816 
L 227.744056 302.112089 
L 228.134266 302.219771 
L 228.524476 303.397499 
L 228.914685 303.547993 
L 229.304895 303.564651 
L 229.695105 303.745607 
L 230.085315 302.891529 
L 230.475524 303.336658 
L 230.865734 302.805471 
L 231.255944 301.163036 
L 231.646154 303.673433 
L 232.036364 302.40063 
L 232.426573 303.435509 
L 232.816783 300.436436 
L 233.206993 300.265522 
L 233.597203 303.602225 
L 234.377622 301.480231 
L 234.767832 300.229675 
L 235.158042 303.567468 
L 235.548252 303.407812 
L 235.938462 300.492319 
L 236.718881 304.595727 
L 237.109091 303.772603 
L 237.499301 304.392643 
L 237.88951 302.870905 
L 238.27972 302.988697 
L 238.66993 304.628439 
L 239.06014 302.379295 
L 239.45035 304.965087 
L 239.840559 303.397501 
L 240.230769 304.186035 
L 240.620979 302.594349 
L 241.011189 303.93586 
L 241.401399 299.387925 
L 241.791608 303.192746 
L 242.181818 300.16312 
L 242.572028 304.506419 
L 242.962238 304.91712 
L 243.352448 302.287084 
L 243.742657 302.510355 
L 244.132867 303.828943 
L 244.523077 303.017197 
L 244.913287 304.282502 
L 245.303497 301.698834 
L 245.693706 301.940514 
L 246.083916 302.690598 
L 246.474126 305.54862 
L 246.864336 304.249137 
L 247.254545 303.527311 
L 247.644755 301.276905 
L 248.034965 300.901627 
L 248.425175 303.7766 
L 248.815385 301.702359 
L 249.205594 305.046836 
L 249.595804 304.724458 
L 249.986014 302.197861 
L 250.376224 302.757185 
L 250.766434 297.259457 
L 251.156643 302.964798 
L 251.546853 304.02259 
L 251.937063 300.956802 
L 252.327273 302.378766 
L 252.717483 306.268423 
L 253.107692 302.241441 
L 253.497902 304.77992 
L 253.888112 300.384034 
L 254.278322 303.23848 
L 254.668531 299.658642 
L 255.058741 302.702238 
L 255.448951 300.640365 
L 256.229371 303.672411 
L 256.61958 305.108263 
L 257.00979 303.57867 
L 257.4 303.966182 
L 257.79021 299.5858 
L 258.18042 297.558975 
L 258.570629 304.860401 
L 258.960839 302.973054 
L 259.351049 303.82475 
L 259.741259 303.844753 
L 260.131469 303.589251 
L 260.521678 304.699159 
L 261.302098 302.732342 
L 261.692308 305.461475 
L 262.082517 302.440551 
L 262.472727 304.404746 
L 263.253147 303.763797 
L 263.643357 303.897289 
L 264.033566 304.158338 
L 264.423776 303.289133 
L 264.813986 303.171554 
L 265.204196 303.538104 
L 265.594406 298.388083 
L 265.984615 305.420167 
L 266.374825 303.335008 
L 266.765035 305.709036 
L 267.155245 301.284536 
L 267.545455 304.1904 
L 267.935664 305.121127 
L 268.325874 304.463861 
L 268.716084 304.805732 
L 269.106294 303.829516 
L 269.496503 301.720894 
L 269.886713 301.226029 
L 270.276923 300.953131 
L 270.667133 304.1164 
L 271.057343 300.564491 
L 271.447552 303.944922 
L 271.837762 302.881177 
L 272.227972 301.215163 
L 272.618182 300.74932 
L 273.008392 302.400063 
L 273.398601 301.087112 
L 273.788811 301.414555 
L 274.179021 303.358493 
L 274.569231 305.919468 
L 274.959441 303.215867 
L 275.34965 304.386661 
L 275.73986 300.869843 
L 276.13007 303.587326 
L 276.52028 302.887691 
L 276.91049 301.102642 
L 277.300699 304.403254 
L 277.690909 301.432047 
L 278.081119 304.024453 
L 278.471329 303.915903 
L 278.861538 305.813803 
L 279.251748 304.199566 
L 279.641958 303.29537 
L 280.032168 303.559688 
L 280.422378 304.118936 
L 280.812587 306.179537 
L 281.593007 303.687076 
L 281.983217 303.471696 
L 282.373427 302.389052 
L 282.763636 305.293505 
L 283.153846 305.327083 
L 283.934266 302.943186 
L 284.324476 304.428207 
L 284.714685 303.441645 
L 285.495105 303.542504 
L 285.885315 302.987286 
L 286.275524 302.213187 
L 286.665734 306.089722 
L 287.055944 303.990699 
L 287.446154 303.214297 
L 287.836364 304.530386 
L 288.226573 301.775918 
L 289.006993 304.307024 
L 289.397203 303.614367 
L 289.787413 302.082215 
L 290.177622 304.146952 
L 290.567832 303.345257 
L 290.958042 304.872317 
L 291.348252 302.906461 
L 291.738462 305.188961 
L 292.128671 304.840592 
L 292.518881 303.247529 
L 292.909091 302.580239 
L 293.299301 304.240975 
L 293.68951 302.362186 
L 294.07972 303.662716 
L 294.46993 304.313908 
L 294.86014 302.781524 
L 295.25035 303.133083 
L 295.640559 301.852329 
L 296.420979 306.002623 
L 296.811189 305.099768 
L 297.201399 305.53098 
L 297.591608 306.193976 
L 297.981818 305.859134 
L 298.372028 303.810936 
L 298.762238 303.692004 
L 299.152448 301.418607 
L 299.542657 304.860988 
L 299.932867 305.838865 
L 300.323077 303.598744 
L 300.713287 303.624116 
L 301.103497 306.348638 
L 301.493706 304.840781 
L 301.883916 304.706485 
L 302.664336 303.669883 
L 303.054545 305.55996 
L 303.444755 301.305488 
L 303.834965 302.26139 
L 304.225175 304.099925 
L 304.615385 304.811005 
L 305.005594 305.101592 
L 305.395804 305.157042 
L 305.786014 304.393064 
L 306.566434 304.708819 
L 307.346853 303.305083 
L 307.737063 304.922044 
L 308.127273 300.873091 
L 308.517483 301.717082 
L 308.907692 303.789469 
L 309.297902 306.556012 
L 309.688112 303.901396 
L 310.078322 304.417221 
L 310.858741 300.910643 
L 311.248951 305.040955 
L 311.639161 302.564577 
L 312.029371 304.885086 
L 312.41958 305.111027 
L 312.80979 305.1602 
L 313.2 303.198482 
L 313.59021 304.501984 
L 313.98042 301.540194 
L 314.370629 305.455268 
L 314.760839 303.013843 
L 315.151049 303.690985 
L 315.931469 304.025074 
L 316.321678 303.922237 
L 316.711888 304.651584 
L 317.102098 304.911547 
L 317.492308 304.024197 
L 317.882517 304.834413 
L 318.272727 303.622873 
L 318.662937 298.285597 
L 319.053147 305.011129 
L 319.443357 303.848918 
L 319.833566 303.322209 
L 320.223776 303.267319 
L 320.613986 304.596743 
L 321.004196 302.396786 
L 321.394406 305.352888 
L 322.174825 302.923341 
L 322.565035 304.314328 
L 322.955245 303.204507 
L 323.345455 304.975539 
L 323.735664 303.776351 
L 324.516084 305.498849 
L 324.906294 303.788771 
L 325.296503 304.99808 
L 326.076923 303.1258 
L 326.467133 303.23386 
L 327.247552 304.946252 
L 327.637762 304.492083 
L 328.027972 305.591735 
L 328.418182 304.004755 
L 328.808392 301.479285 
L 329.198601 306.812464 
L 329.588811 305.794304 
L 329.979021 302.188893 
L 330.369231 304.483068 
L 330.759441 304.419796 
L 331.14965 305.824595 
L 331.93007 303.124122 
L 332.32028 304.428911 
L 332.71049 302.341518 
L 333.100699 302.291493 
L 333.490909 304.949388 
L 334.271329 305.210308 
L 334.661538 304.127608 
L 335.051748 301.613669 
L 335.441958 305.783649 
L 335.832168 305.261479 
L 336.222378 303.592998 
L 337.002797 305.856002 
L 337.393007 304.71206 
L 337.783217 304.72247 
L 338.563636 303.395979 
L 338.953846 301.681238 
L 339.344056 304.645204 
L 339.734266 303.806917 
L 340.124476 304.106229 
L 340.514685 303.457485 
L 340.904895 306.045301 
L 341.295105 304.806858 
L 341.685315 304.834788 
L 342.075524 306.127855 
L 342.465734 305.240435 
L 342.855944 301.957807 
L 343.246154 305.241128 
L 343.636364 306.713184 
L 344.026573 304.431782 
L 344.806993 305.670574 
L 345.197203 304.221974 
L 345.977622 305.792532 
L 346.367832 302.192043 
L 346.758042 305.539388 
L 347.148252 304.87044 
L 347.538462 306.364907 
L 347.928671 305.317568 
L 348.318881 302.487458 
L 348.709091 304.012884 
L 349.099301 304.564224 
L 349.48951 304.384376 
L 349.87972 301.31759 
L 350.26993 303.814378 
L 351.05035 306.249889 
L 351.440559 303.125149 
L 351.830769 304.834803 
L 352.220979 304.615468 
L 352.611189 302.93392 
L 353.001399 303.146521 
L 353.391608 304.261728 
L 353.781818 302.93224 
L 354.172028 303.536331 
L 354.562238 305.71967 
L 354.952448 305.511269 
L 355.342657 303.429865 
L 355.732867 306.290639 
L 356.513287 306.150314 
L 356.903497 304.145559 
L 357.293706 305.221311 
L 357.683916 304.747276 
L 358.074126 305.370286 
L 358.464336 305.722079 
L 358.854545 304.862497 
L 359.244755 305.794799 
L 359.634965 306.161698 
L 360.025175 305.64064 
L 360.415385 305.337274 
L 360.805594 306.409795 
L 361.195804 306.163729 
L 361.586014 304.349038 
L 361.976224 304.848446 
L 362.366434 304.257247 
L 362.756643 304.852828 
L 363.146853 306.049365 
L 363.537063 305.555986 
L 363.927273 304.521357 
L 364.317483 304.603505 
L 364.707692 304.891808 
L 365.097902 306.405509 
L 365.878322 303.973898 
L 366.658741 304.95312 
L 367.048951 303.76139 
L 367.439161 303.346657 
L 367.829371 304.402051 
L 368.21958 303.017483 
L 368.60979 305.757678 
L 369 305.928721 
L 369.39021 305.446826 
L 369.78042 304.785203 
L 370.560839 307.150459 
L 370.951049 304.424948 
L 371.341259 303.826614 
L 371.731469 305.471522 
L 372.121678 303.962753 
L 372.511888 303.087526 
L 372.902098 306.929812 
L 373.292308 306.061397 
L 373.682517 300.44393 
L 374.072727 304.24817 
L 374.853147 305.108818 
L 375.633566 304.039675 
L 376.023776 306.803117 
L 376.413986 304.999403 
L 377.194406 302.792243 
L 377.584615 303.334582 
L 377.974825 306.852651 
L 378.755245 305.954432 
L 379.145455 306.348296 
L 379.535664 304.671142 
L 379.925874 305.172106 
L 380.316084 303.292093 
L 380.706294 303.096076 
L 381.096503 304.456902 
L 381.486713 303.009805 
L 381.876923 305.549968 
L 382.267133 304.005091 
L 382.657343 304.74772 
L 383.047552 305.764916 
L 383.437762 303.477549 
L 383.827972 304.781181 
L 384.218182 304.316613 
L 384.608392 306.147816 
L 384.998601 304.39388 
L 385.779021 304.469938 
L 386.169231 306.384834 
L 386.559441 304.135462 
L 386.94965 302.973098 
L 387.33986 303.706576 
L 387.73007 305.622312 
L 388.12028 306.045713 
L 388.900699 303.429421 
L 389.290909 306.140908 
L 389.681119 302.846549 
L 390.071329 303.867534 
L 390.461538 306.738343 
L 390.851748 306.280568 
L 391.241958 305.28916 
L 391.632168 306.321159 
L 392.022378 305.925954 
L 392.412587 305.820576 
L 392.802797 302.880105 
L 393.193007 305.38709 
L 393.583217 305.003343 
L 394.363636 306.633825 
L 394.753846 304.42494 
L 395.144056 306.730864 
L 395.534266 306.457844 
L 395.924476 304.421559 
L 396.314685 304.741779 
L 396.704895 302.538336 
L 397.095105 304.959552 
L 397.485315 306.437945 
L 397.875524 305.832307 
L 398.265734 303.411171 
L 398.655944 305.526968 
L 399.046154 303.833897 
L 399.436364 305.458198 
L 399.826573 304.509431 
L 400.216783 306.033246 
L 400.606993 306.173464 
L 400.997203 305.671152 
L 401.387413 304.552809 
L 401.777622 305.761254 
L 402.167832 305.268556 
L 402.558042 304.385208 
L 402.948252 306.446562 
L 403.338462 303.962772 
L 403.728671 306.792313 
L 404.118881 304.637447 
L 404.509091 306.678122 
L 404.899301 305.49139 
L 405.28951 306.556539 
L 405.67972 306.702779 
L 406.06993 303.934127 
L 406.46014 305.883409 
L 406.85035 304.959645 
L 407.240559 303.64543 
L 407.630769 304.440781 
L 408.020979 304.442054 
L 408.411189 306.30503 
L 408.801399 304.311264 
L 409.191608 305.212589 
L 409.581818 304.406112 
L 409.972028 304.527993 
L 410.362238 305.330905 
L 410.752448 306.912052 
L 411.142657 304.604736 
L 411.532867 303.830919 
L 411.923077 306.167979 
L 412.313287 304.107638 
L 412.703497 303.029825 
L 413.093706 305.872533 
L 413.483916 306.192221 
L 413.874126 304.844803 
L 414.264336 305.256517 
L 414.654545 303.935325 
L 415.044755 306.5616 
L 415.434965 304.450092 
L 415.825175 304.624581 
L 416.215385 305.519213 
L 416.605594 305.995078 
L 416.995804 305.796601 
L 417.386014 305.339028 
L 417.776224 307.077298 
L 418.166434 306.090642 
L 418.556643 303.908657 
L 418.946853 305.381481 
L 419.337063 305.255571 
L 419.727273 306.780858 
L 420.117483 303.314772 
L 420.507692 306.736476 
L 420.897902 306.811074 
L 421.288112 305.066587 
L 421.678322 305.757626 
L 422.068531 303.275926 
L 422.458741 305.624973 
L 422.848951 306.215312 
L 423.239161 305.40471 
L 423.629371 304.872634 
L 424.01958 306.045303 
L 424.40979 306.796128 
L 424.8 306.29686 
L 425.19021 305.587505 
L 425.58042 306.219133 
L 425.970629 303.087596 
L 426.360839 306.210155 
L 426.751049 305.03679 
L 427.141259 304.336511 
L 427.531469 302.665986 
L 428.311888 306.563798 
L 428.702098 305.198707 
L 429.092308 306.61254 
L 429.482517 304.113231 
L 429.872727 305.35987 
L 430.262937 306.175367 
L 430.653147 306.68596 
L 431.043357 306.577822 
L 431.433566 307.135799 
L 431.823776 305.064633 
L 432.213986 304.97274 
L 432.604196 305.989211 
L 432.994406 303.804071 
L 433.384615 307.241884 
L 433.774825 305.476599 
L 434.165035 305.159808 
L 434.555245 303.776186 
L 435.335664 306.109801 
L 435.725874 305.688251 
L 436.116084 306.23451 
L 436.506294 306.25162 
L 436.896503 306.902367 
L 437.286713 304.237965 
L 437.676923 306.056485 
L 438.067133 305.565419 
L 438.847552 305.179301 
L 439.237762 306.451714 
L 439.627972 306.328244 
L 440.018182 304.36225 
L 440.408392 305.499519 
L 440.798601 302.130564 
L 441.188811 305.212049 
L 441.579021 305.111343 
L 441.969231 304.375495 
L 442.359441 306.761323 
L 442.74965 306.258058 
L 443.13986 305.962488 
L 443.53007 304.894613 
L 443.92028 305.518741 
L 444.31049 306.431005 
L 444.700699 306.190233 
L 445.090909 305.098684 
L 445.481119 305.357879 
L 445.871329 305.403608 
L 446.261538 301.527172 
L 446.651748 305.57174 
L 447.041958 305.15379 
L 447.432168 303.814782 
L 447.822378 306.252559 
L 448.212587 306.695505 
L 448.602797 306.078393 
L 448.993007 306.05664 
L 449.383217 306.316381 
L 449.773427 305.739868 
L 450.163636 305.591708 
L 450.553846 305.169019 
L 450.944056 306.014612 
L 451.334266 306.190058 
L 451.724476 307.376945 
L 452.504895 305.813827 
L 452.895105 304.423326 
L 453.285315 306.801819 
L 453.675524 306.677123 
L 454.455944 305.810263 
L 454.846154 306.104675 
L 455.236364 305.874243 
L 455.626573 306.333351 
L 456.016783 307.041021 
L 456.406993 305.461983 
L 456.797203 302.528858 
L 457.187413 306.367838 
L 457.577622 305.039359 
L 457.967832 306.958281 
L 458.748252 306.533802 
L 459.138462 305.150405 
L 459.528671 304.946918 
L 459.918881 306.441648 
L 460.309091 306.969532 
L 460.699301 304.865624 
L 461.08951 304.002348 
L 461.47972 307.039737 
L 461.86993 303.139384 
L 462.26014 307.399643 
L 462.65035 306.339687 
L 463.040559 306.817327 
L 463.430769 304.389425 
L 463.820979 304.759333 
L 464.211189 304.0786 
L 464.601399 305.976348 
L 464.991608 305.72274 
L 465.381818 306.102269 
L 466.552448 304.536404 
L 466.942657 306.679276 
L 467.332867 306.507349 
L 468.113287 305.391884 
L 468.503497 306.290688 
L 468.893706 306.09493 
L 469.283916 306.201708 
L 469.674126 303.830418 
L 470.064336 304.869814 
L 470.454545 306.435815 
L 470.844755 306.34374 
L 471.234965 305.36587 
L 471.625175 306.570496 
L 472.015385 305.377989 
L 472.405594 306.476071 
L 472.795804 305.74678 
L 473.186014 306.900768 
L 473.576224 307.169304 
L 473.966434 305.675513 
L 474.356643 305.119093 
L 474.746853 306.265641 
L 475.137063 305.894259 
L 475.527273 305.156996 
L 475.917483 305.299482 
L 476.307692 303.889424 
L 476.697902 306.891018 
L 477.088112 306.749821 
L 477.478322 304.183375 
L 477.868531 304.493066 
L 478.258741 304.650036 
L 478.648951 307.000832 
L 479.039161 306.087759 
L 479.429371 303.681018 
L 479.81958 306.589422 
L 480.20979 304.065749 
L 480.6 307.159011 
L 480.99021 305.773399 
L 481.38042 305.102221 
L 481.770629 305.327037 
L 482.160839 306.216063 
L 482.551049 306.235028 
L 482.941259 306.88529 
L 483.331469 307.15838 
L 483.721678 305.949446 
L 484.111888 307.306624 
L 484.502098 306.305649 
L 484.892308 307.325311 
L 485.282517 306.057208 
L 485.672727 306.152133 
L 486.062937 304.296224 
L 486.453147 306.051808 
L 486.843357 304.561964 
L 487.233566 305.46838 
L 487.623776 304.488207 
L 488.013986 305.326757 
L 488.404196 305.392633 
L 488.794406 304.565083 
L 489.184615 306.553097 
L 489.574825 307.418216 
L 489.965035 307.368254 
L 490.355245 305.284212 
L 490.745455 306.850323 
L 491.135664 305.918034 
L 491.525874 304.548413 
L 491.916084 306.921979 
L 492.306294 303.639315 
L 492.696503 304.300741 
L 493.086713 304.515432 
L 493.476923 306.638695 
L 493.867133 305.476485 
L 494.257343 306.365799 
L 494.647552 306.556694 
L 495.037762 306.502178 
L 495.427972 305.214229 
L 495.818182 307.172868 
L 496.208392 306.33249 
L 496.598601 304.488078 
L 496.988811 306.020813 
L 497.379021 306.193615 
L 497.769231 306.884323 
L 498.159441 305.297183 
L 498.54965 306.663589 
L 498.93986 305.415379 
L 499.33007 306.601204 
L 499.72028 306.334664 
L 500.11049 305.834219 
L 500.500699 306.103593 
L 501.281119 306.331324 
L 501.671329 305.821901 
L 502.061538 306.494287 
L 502.451748 306.120612 
L 503.232168 307.000227 
L 503.622378 306.569196 
L 504.012587 304.406522 
L 504.402797 305.628547 
L 504.793007 305.882706 
L 505.183217 305.537915 
L 505.573427 305.816508 
L 505.963636 306.58125 
L 506.353846 307.083607 
L 507.134266 306.685621 
L 507.524476 305.05709 
L 507.914685 307.422029 
L 508.304895 306.89716 
L 508.695105 306.00901 
L 509.085315 307.217401 
L 509.475524 307.299387 
L 509.865734 306.483426 
L 510.255944 302.934787 
L 511.036364 306.056137 
L 511.426573 306.245143 
L 511.816783 304.170406 
L 512.206993 307.435819 
L 512.597203 305.129688 
L 512.987413 306.741716 
L 513.377622 306.773424 
L 513.767832 306.193333 
L 514.158042 306.17617 
L 514.548252 306.903919 
L 514.938462 306.990225 
L 515.328671 304.641249 
L 515.718881 306.051228 
L 516.109091 305.710371 
L 516.499301 305.71239 
L 516.88951 307.515215 
L 517.27972 306.526696 
L 517.66993 304.416068 
L 518.06014 305.00082 
L 518.45035 306.269469 
L 518.840559 306.028603 
L 519.230769 305.356291 
L 519.620979 306.45895 
L 520.011189 305.935528 
L 520.401399 305.117764 
L 520.791608 305.268735 
L 521.181818 305.855301 
L 521.572028 304.766314 
L 521.962238 304.109904 
L 522.352448 307.296168 
L 522.742657 305.103379 
L 523.132867 305.581128 
L 523.523077 306.559928 
L 523.913287 305.198881 
L 524.693706 305.517248 
L 525.083916 303.838797 
L 525.474126 306.427537 
L 525.864336 305.943307 
L 526.254545 306.680254 
L 527.034965 304.165577 
L 527.815385 307.553011 
L 528.205594 307.022116 
L 528.595804 305.654322 
L 528.986014 306.988277 
L 529.376224 305.379916 
L 529.766434 305.619591 
L 530.156643 306.796311 
L 530.546853 306.397345 
L 530.937063 306.311928 
L 531.327273 307.099008 
L 531.717483 305.056838 
L 532.107692 307.122331 
L 532.497902 305.745457 
L 532.888112 307.505346 
L 533.278322 306.84758 
L 533.668531 307.344696 
L 534.058741 306.005866 
L 534.448951 306.514473 
L 535.229371 306.041421 
L 535.61958 306.988889 
L 536.00979 307.23753 
L 536.4 306.679608 
L 536.79021 307.356426 
L 537.18042 306.078457 
L 537.570629 306.681876 
L 537.960839 306.412953 
L 538.351049 303.665958 
L 538.741259 305.973655 
L 539.131469 307.410401 
L 539.521678 306.544738 
L 539.911888 306.472283 
L 540.302098 306.743203 
L 540.692308 306.297545 
L 541.082517 306.515215 
L 541.472727 307.583489 
L 541.862937 307.398455 
L 542.253147 304.770342 
L 543.033566 307.398044 
L 543.423776 307.072627 
L 543.813986 307.137048 
L 544.204196 305.597465 
L 544.594406 300.335349 
L 544.984615 306.508888 
L 545.374825 307.140217 
L 545.765035 306.974613 
L 546.155245 307.070394 
L 546.545455 304.249268 
L 546.935664 306.374228 
L 547.325874 306.999618 
L 547.716084 306.822249 
L 548.106294 306.522088 
L 548.496503 305.952935 
L 548.886713 307.343461 
L 549.276923 306.756588 
L 549.667133 307.017978 
L 550.057343 303.75773 
L 550.447552 306.227998 
L 550.837762 304.774047 
L 551.227972 305.571091 
L 551.618182 305.644845 
L 552.008392 305.192757 
L 552.398601 307.047761 
L 552.788811 307.618744 
L 553.569231 304.826961 
L 553.959441 306.942429 
L 554.34965 307.216541 
L 555.13007 305.386749 
L 555.52028 306.187596 
L 555.91049 305.203654 
L 556.300699 305.881198 
L 556.690909 307.3631 
L 557.081119 304.376962 
L 557.471329 304.414174 
L 557.861538 307.174653 
L 558.251748 304.034241 
L 558.641958 307.297353 
L 559.032168 307.333683 
L 559.422378 305.815968 
L 559.812587 305.945162 
L 560.202797 306.425656 
L 560.593007 307.210024 
L 560.983217 306.233705 
L 561.373427 306.725903 
L 561.763636 305.995486 
L 562.153846 304.648118 
L 562.544056 306.422189 
L 562.934266 307.064604 
L 563.324476 305.373795 
L 563.714685 307.422915 
L 564.104895 304.324233 
L 564.885315 307.160224 
L 565.275524 307.8 
L 565.665734 307.293814 
L 566.055944 306.971248 
L 566.446154 306.2402 
L 566.836364 306.671214 
L 567.226573 304.722054 
L 567.616783 307.233686 
L 568.006993 305.915782 
L 568.397203 306.276324 
L 568.787413 306.807772 
L 569.177622 305.392104 
L 569.567832 306.529368 
L 569.958042 305.759323 
L 570.348252 306.234846 
L 570.738462 307.010419 
L 571.128671 304.970894 
L 571.518881 306.733811 
L 571.909091 307.674709 
L 572.68951 306.414363 
L 573.07972 305.97372 
L 573.46993 306.134614 
L 573.86014 307.340593 
L 574.25035 305.352398 
L 574.640559 307.113535 
L 575.030769 307.227807 
L 575.420979 307.577779 
L 575.811189 304.655929 
L 576.201399 306.811534 
L 576.981818 305.557349 
L 577.372028 306.952655 
L 577.762238 305.971864 
L 578.152448 307.085 
L 578.542657 306.775353 
L 578.932867 304.900558 
L 579.323077 306.067444 
L 579.713287 306.380735 
L 580.103497 303.847057 
L 580.493706 306.509024 
L 580.883916 307.275323 
L 581.274126 307.270244 
L 581.664336 307.488308 
L 582.054545 306.735516 
L 582.444755 307.320751 
L 582.834965 306.568868 
L 583.225175 304.115391 
L 583.615385 305.073752 
L 584.005594 305.640493 
L 584.395804 305.831197 
L 584.786014 306.185784 
L 585.176224 306.74316 
L 585.566434 304.746383 
L 585.956643 307.190185 
L 586.346853 307.459248 
L 586.737063 307.368455 
L 587.517483 305.614341 
L 588.297902 306.088086 
L 588.688112 307.446318 
L 589.078322 306.381369 
L 589.468531 307.147288 
L 589.858741 307.015155 
L 590.248951 306.048297 
L 590.639161 306.044884 
L 591.029371 307.55438 
L 591.41958 303.623942 
L 591.80979 305.770792 
L 592.2 306.315053 
L 592.59021 306.169054 
L 592.98042 305.199316 
L 593.370629 305.601479 
L 593.760839 307.392565 
L 594.151049 306.570809 
L 594.541259 304.838457 
L 594.931469 306.307746 
L 595.321678 306.074323 
L 595.711888 305.302155 
L 596.102098 307.484202 
L 596.492308 306.440168 
L 596.882517 307.088603 
L 597.272727 305.798714 
L 597.662937 307.319358 
L 598.053147 307.075624 
L 598.443357 307.683805 
L 598.833566 305.293056 
L 599.223776 307.335094 
L 599.613986 306.397529 
L 600.004196 306.379923 
L 600.394406 307.574062 
L 600.784615 306.889774 
L 601.174825 306.994958 
L 601.565035 306.244997 
L 602.735664 306.65232 
L 603.125874 307.410373 
L 603.516084 307.258042 
L 603.906294 305.854225 
L 604.296503 306.015492 
L 604.686713 307.428886 
L 605.076923 307.24139 
L 605.467133 306.340409 
L 606.247552 306.887815 
L 606.637762 306.296322 
L 607.027972 307.234534 
L 607.418182 306.817873 
L 607.808392 304.327389 
L 608.198601 307.34362 
L 608.588811 307.176976 
L 608.979021 307.288009 
L 609.369231 306.827837 
L 609.759441 307.479546 
L 610.14965 306.005763 
L 610.53986 307.192066 
L 610.93007 305.820861 
L 611.32028 307.245843 
L 611.71049 306.336403 
L 612.100699 306.052293 
L 612.490909 306.074893 
L 612.881119 306.797814 
L 613.271329 304.320954 
L 613.661538 307.52641 
L 614.051748 305.972822 
L 614.441958 307.789984 
L 614.832168 306.774307 
L 615.222378 307.087584 
L 615.612587 305.40478 
L 616.002797 306.572089 
L 616.393007 306.592178 
L 616.783217 306.095599 
L 617.173427 306.226434 
L 617.563636 306.958719 
L 617.953846 307.015658 
L 618.344056 304.698333 
L 618.734266 306.610439 
L 619.124476 305.56872 
L 619.514685 306.990955 
L 619.904895 306.1719 
L 620.295105 307.539792 
L 620.685315 306.843055 
L 621.075524 307.529135 
L 621.465734 307.768807 
L 621.855944 307.281263 
L 622.636364 304.743742 
L 622.636364 304.743742 
" clip-path="url(#pfcfa91eb16)" style="fill: none; stroke: #1f77b4; stroke-width: 1.5; stroke-linecap: square"/>
   </g>
   <g id="patch_3">
    <path d="M 90 320.4 
L 90 43.2 
" style="fill: none; stroke: #000000; stroke-width: 0.8; stroke-linejoin: miter; stroke-linecap: square"/>
   </g>
   <g id="patch_4">
    <path d="M 648 320.4 
L 648 43.2 
" style="fill: none; stroke: #000000; stroke-width: 0.8; stroke-linejoin: miter; stroke-linecap: square"/>
   </g>
   <g id="patch_5">
    <path d="M 90 320.4 
L 648 320.4 
" style="fill: none; stroke: #000000; stroke-width: 0.8; stroke-linejoin: miter; stroke-linecap: square"/>
   </g>
   <g id="patch_6">
    <path d="M 90 43.2 
L 648 43.2 
" style="fill: none; stroke: #000000; stroke-width: 0.8; stroke-linejoin: miter; stroke-linecap: square"/>
   </g>
   <g id="legend_1">
    <g id="patch_7">
     <path d="M 97 65.878125 
L 148.315625 65.878125 
Q 150.315625 65.878125 150.315625 63.878125 
L 150.315625 50.2 
Q 150.315625 48.2 148.315625 48.2 
L 97 48.2 
Q 95 48.2 95 50.2 
L 95 63.878125 
Q 95 65.878125 97 65.878125 
z
" style="fill: #ffffff; opacity: 0.8; stroke: #cccccc; stroke-linejoin: miter"/>
    </g>
    <g id="line2d_15">
     <path d="M 99 56.298437 
L 109 56.298437 
L 119 56.298437 
" style="fill: none; stroke: #1f77b4; stroke-width: 1.5; stroke-linecap: square"/>
    </g>
    <g id="text_16">
     <!-- loss -->
     <g transform="translate(127 59.798437) scale(0.1 -0.1)">
      <use xlink:href="#DejaVuSans-6c"/>
      <use xlink:href="#DejaVuSans-6f" x="27.783203"/>
      <use xlink:href="#DejaVuSans-73" x="88.964844"/>
      <use xlink:href="#DejaVuSans-73" x="141.064453"/>
     </g>
    </g>
   </g>
  </g>
  <g id="axes_2">
   <g id="matplotlib.axis_3">
    <g id="ytick_7">
     <g id="line2d_16">
      <defs>
       <path id="m522cc71660" d="M 0 0 
L 3.5 0 
" style="stroke: #000000; stroke-width: 0.8"/>
      </defs>
      <g>
       <use xlink:href="#m522cc71660" x="648" y="318.080335" style="stroke: #000000; stroke-width: 0.8"/>
      </g>
     </g>
     <g id="text_17">
      <!-- 0.0 -->
      <g transform="translate(655 321.879553) scale(0.1 -0.1)">
       <use xlink:href="#DejaVuSans-30"/>
       <use xlink:href="#DejaVuSans-2e" x="63.623047"/>
       <use xlink:href="#DejaVuSans-30" x="95.410156"/>
      </g>
     </g>
    </g>
    <g id="ytick_8">
     <g id="line2d_17">
      <g>
       <use xlink:href="#m522cc71660" x="648" y="265.360669" style="stroke: #000000; stroke-width: 0.8"/>
      </g>
     </g>
     <g id="text_18">
      <!-- 0.2 -->
      <g transform="translate(655 269.159888) scale(0.1 -0.1)">
       <use xlink:href="#DejaVuSans-30"/>
       <use xlink:href="#DejaVuSans-2e" x="63.623047"/>
       <use xlink:href="#DejaVuSans-32" x="95.410156"/>
      </g>
     </g>
    </g>
    <g id="ytick_9">
     <g id="line2d_18">
      <g>
       <use xlink:href="#m522cc71660" x="648" y="212.641004" style="stroke: #000000; stroke-width: 0.8"/>
      </g>
     </g>
     <g id="text_19">
      <!-- 0.4 -->
      <g transform="translate(655 216.440223) scale(0.1 -0.1)">
       <use xlink:href="#DejaVuSans-30"/>
       <use xlink:href="#DejaVuSans-2e" x="63.623047"/>
       <use xlink:href="#DejaVuSans-34" x="95.410156"/>
      </g>
     </g>
    </g>
    <g id="ytick_10">
     <g id="line2d_19">
      <g>
       <use xlink:href="#m522cc71660" x="648" y="159.921339" style="stroke: #000000; stroke-width: 0.8"/>
      </g>
     </g>
     <g id="text_20">
      <!-- 0.6 -->
      <g transform="translate(655 163.720558) scale(0.1 -0.1)">
       <use xlink:href="#DejaVuSans-30"/>
       <use xlink:href="#DejaVuSans-2e" x="63.623047"/>
       <use xlink:href="#DejaVuSans-36" x="95.410156"/>
      </g>
     </g>
    </g>
    <g id="ytick_11">
     <g id="line2d_20">
      <g>
       <use xlink:href="#m522cc71660" x="648" y="107.201674" style="stroke: #000000; stroke-width: 0.8"/>
      </g>
     </g>
     <g id="text_21">
      <!-- 0.8 -->
      <g transform="translate(655 111.000892) scale(0.1 -0.1)">
       <use xlink:href="#DejaVuSans-30"/>
       <use xlink:href="#DejaVuSans-2e" x="63.623047"/>
       <use xlink:href="#DejaVuSans-38" x="95.410156"/>
      </g>
     </g>
    </g>
    <g id="ytick_12">
     <g id="line2d_21">
      <g>
       <use xlink:href="#m522cc71660" x="648" y="54.482008" style="stroke: #000000; stroke-width: 0.8"/>
      </g>
     </g>
     <g id="text_22">
      <!-- 1.0 -->
      <g transform="translate(655 58.281227) scale(0.1 -0.1)">
       <use xlink:href="#DejaVuSans-31"/>
       <use xlink:href="#DejaVuSans-2e" x="63.623047"/>
       <use xlink:href="#DejaVuSans-30" x="95.410156"/>
      </g>
     </g>
    </g>
    <g id="text_23">
     <!-- accuracy -->
     <g transform="translate(682.501563 204.359375) rotate(-90) scale(0.1 -0.1)">
      <defs>
       <path id="DejaVuSans-75" d="M 544 1381 
L 544 3500 
L 1119 3500 
L 1119 1403 
Q 1119 906 1312 657 
Q 1506 409 1894 409 
Q 2359 409 2629 706 
Q 2900 1003 2900 1516 
L 2900 3500 
L 3475 3500 
L 3475 0 
L 2900 0 
L 2900 538 
Q 2691 219 2414 64 
Q 2138 -91 1772 -91 
Q 1169 -91 856 284 
Q 544 659 544 1381 
z
M 1991 3584 
L 1991 3584 
z
" transform="scale(0.015625)"/>
       <path id="DejaVuSans-72" d="M 2631 2963 
Q 2534 3019 2420 3045 
Q 2306 3072 2169 3072 
Q 1681 3072 1420 2755 
Q 1159 2438 1159 1844 
L 1159 0 
L 581 0 
L 581 3500 
L 1159 3500 
L 1159 2956 
Q 1341 3275 1631 3429 
Q 1922 3584 2338 3584 
Q 2397 3584 2469 3576 
Q 2541 3569 2628 3553 
L 2631 2963 
z
" transform="scale(0.015625)"/>
       <path id="DejaVuSans-79" d="M 2059 -325 
Q 1816 -950 1584 -1140 
Q 1353 -1331 966 -1331 
L 506 -1331 
L 506 -850 
L 844 -850 
Q 1081 -850 1212 -737 
Q 1344 -625 1503 -206 
L 1606 56 
L 191 3500 
L 800 3500 
L 1894 763 
L 2988 3500 
L 3597 3500 
L 2059 -325 
z
" transform="scale(0.015625)"/>
      </defs>
      <use xlink:href="#DejaVuSans-61"/>
      <use xlink:href="#DejaVuSans-63" x="61.279297"/>
      <use xlink:href="#DejaVuSans-63" x="116.259766"/>
      <use xlink:href="#DejaVuSans-75" x="171.240234"/>
      <use xlink:href="#DejaVuSans-72" x="234.619141"/>
      <use xlink:href="#DejaVuSans-61" x="275.732422"/>
      <use xlink:href="#DejaVuSans-63" x="337.011719"/>
      <use xlink:href="#DejaVuSans-79" x="391.992188"/>
     </g>
    </g>
   </g>
   <g id="line2d_22">
    <path d="M 115.363636 307.8 
L 116.144056 263.251883 
L 116.534266 227.138912 
L 117.314685 181.536402 
L 117.704895 144.896234 
L 118.095105 134.088703 
L 118.485315 115.63682 
L 118.875524 113.528033 
L 119.265734 97.975732 
L 119.655944 88.486192 
L 120.046154 89.804184 
L 120.826573 78.996653 
L 121.216783 78.733054 
L 121.606993 79.523849 
L 121.997203 76.097071 
L 122.387413 70.561506 
L 122.777622 72.406695 
L 123.558042 69.243515 
L 123.948252 68.979916 
L 124.338462 67.661925 
L 124.728671 66.87113 
L 125.118881 67.398326 
L 125.509091 66.080335 
L 125.899301 65.816736 
L 126.28951 66.343933 
L 127.06993 63.180753 
L 127.46014 64.235146 
L 127.85035 64.235146 
L 128.240559 65.553138 
L 128.630769 61.335565 
L 129.020979 64.498745 
L 129.411189 63.971548 
L 129.801399 63.971548 
L 130.191608 64.235146 
L 130.581818 62.12636 
L 130.972028 63.444351 
L 131.362238 60.017573 
L 131.752448 62.653556 
L 132.142657 62.12636 
L 132.532867 63.70795 
L 132.923077 61.599163 
L 133.313287 60.808368 
L 133.703497 62.653556 
L 134.093706 62.917155 
L 134.483916 62.653556 
L 134.874126 64.762343 
L 135.264336 63.180753 
L 136.044755 61.599163 
L 136.434965 61.335565 
L 136.825175 62.389958 
L 137.215385 59.753975 
L 137.605594 61.599163 
L 137.995804 60.281172 
L 138.386014 59.490377 
L 138.776224 60.54477 
L 139.166434 63.180753 
L 139.556643 60.54477 
L 139.946853 65.025941 
L 140.337063 61.862762 
L 140.727273 62.389958 
L 141.117483 59.490377 
L 141.507692 62.12636 
L 141.897902 62.653556 
L 142.288112 60.281172 
L 142.678322 62.12636 
L 143.068531 59.753975 
L 143.458741 63.180753 
L 143.848951 60.281172 
L 144.239161 62.12636 
L 144.629371 59.753975 
L 145.01958 59.490377 
L 145.40979 63.180753 
L 145.8 60.54477 
L 146.19021 60.281172 
L 146.58042 62.12636 
L 146.970629 61.862762 
L 147.360839 58.172385 
L 147.751049 61.599163 
L 148.141259 60.281172 
L 148.531469 59.753975 
L 148.921678 60.281172 
L 149.311888 63.444351 
L 149.702098 60.281172 
L 150.092308 61.335565 
L 150.872727 59.753975 
L 151.262937 62.12636 
L 152.043357 58.96318 
L 152.433566 58.435983 
L 152.823776 60.54477 
L 153.213986 63.971548 
L 153.604196 60.54477 
L 153.994406 60.54477 
L 154.384615 60.281172 
L 154.774825 62.653556 
L 155.165035 61.862762 
L 155.555245 60.54477 
L 155.945455 61.862762 
L 156.335664 61.071967 
L 156.725874 61.335565 
L 157.116084 62.12636 
L 157.506294 60.281172 
L 157.896503 62.653556 
L 158.286713 60.54477 
L 158.676923 61.862762 
L 159.067133 58.172385 
L 159.457343 60.281172 
L 159.847552 61.335565 
L 160.237762 60.281172 
L 160.627972 61.335565 
L 161.018182 60.017573 
L 161.408392 60.281172 
L 161.798601 59.753975 
L 162.579021 60.808368 
L 162.969231 59.490377 
L 163.359441 60.54477 
L 163.74965 60.54477 
L 164.13986 60.808368 
L 164.53007 59.226778 
L 164.92028 61.599163 
L 165.31049 62.389958 
L 165.700699 61.071967 
L 166.090909 58.699582 
L 166.871329 62.389958 
L 167.261538 61.599163 
L 167.651748 60.54477 
L 168.041958 62.389958 
L 168.432168 60.808368 
L 168.822378 61.862762 
L 169.212587 61.071967 
L 169.602797 59.226778 
L 169.993007 61.862762 
L 170.383217 59.490377 
L 170.773427 60.54477 
L 171.163636 57.908787 
L 171.553846 58.96318 
L 171.944056 57.908787 
L 172.334266 59.490377 
L 172.724476 61.862762 
L 173.114685 58.96318 
L 173.504895 60.281172 
L 173.895105 58.435983 
L 174.285315 60.017573 
L 174.675524 58.435983 
L 175.065734 60.54477 
L 175.455944 59.490377 
L 175.846154 61.599163 
L 176.236364 60.54477 
L 176.626573 61.599163 
L 177.016783 58.435983 
L 177.406993 60.808368 
L 177.797203 60.017573 
L 178.187413 59.490377 
L 178.577622 57.117992 
L 178.967832 60.017573 
L 179.358042 60.54477 
L 179.748252 57.908787 
L 180.138462 59.753975 
L 180.528671 58.699582 
L 181.309091 62.389958 
L 181.699301 59.753975 
L 182.08951 61.335565 
L 182.47972 61.335565 
L 182.86993 60.281172 
L 183.26014 58.172385 
L 184.040559 60.017573 
L 184.430769 62.653556 
L 184.820979 60.281172 
L 185.211189 60.017573 
L 185.601399 59.226778 
L 185.991608 59.226778 
L 186.381818 60.017573 
L 186.772028 62.653556 
L 187.162238 58.435983 
L 187.552448 60.017573 
L 187.942657 60.017573 
L 188.332867 60.54477 
L 188.723077 59.753975 
L 189.113287 61.335565 
L 189.503497 58.172385 
L 189.893706 58.172385 
L 190.283916 60.281172 
L 190.674126 59.490377 
L 191.064336 59.753975 
L 191.454545 59.753975 
L 191.844755 60.281172 
L 192.234965 60.017573 
L 192.625175 59.490377 
L 193.015385 57.908787 
L 193.405594 57.38159 
L 193.795804 60.017573 
L 194.186014 59.490377 
L 194.576224 60.017573 
L 194.966434 60.281172 
L 195.356643 58.435983 
L 195.746853 58.172385 
L 196.137063 63.180753 
L 196.527273 58.96318 
L 196.917483 59.490377 
L 197.307692 59.226778 
L 197.697902 60.281172 
L 198.088112 59.753975 
L 198.478322 60.281172 
L 198.868531 58.96318 
L 199.258741 58.699582 
L 199.648951 61.335565 
L 200.039161 59.490377 
L 200.429371 60.017573 
L 200.81958 59.490377 
L 201.20979 57.117992 
L 201.6 59.490377 
L 201.99021 59.753975 
L 202.38042 60.808368 
L 202.770629 59.226778 
L 203.160839 58.435983 
L 203.551049 58.96318 
L 203.941259 59.226778 
L 204.331469 60.54477 
L 204.721678 58.96318 
L 205.111888 59.490377 
L 205.502098 58.435983 
L 205.892308 58.699582 
L 206.282517 57.908787 
L 206.672727 58.172385 
L 207.062937 59.490377 
L 207.453147 58.699582 
L 207.843357 58.172385 
L 208.233566 59.753975 
L 208.623776 60.017573 
L 209.013986 59.490377 
L 209.404196 61.071967 
L 209.794406 58.699582 
L 210.184615 60.54477 
L 210.574825 60.281172 
L 210.965035 59.490377 
L 211.355245 60.017573 
L 212.135664 58.96318 
L 212.525874 59.753975 
L 212.916084 61.862762 
L 213.306294 59.226778 
L 213.696503 58.435983 
L 214.086713 60.017573 
L 214.476923 60.54477 
L 214.867133 60.281172 
L 215.257343 58.435983 
L 215.647552 58.699582 
L 216.037762 58.172385 
L 216.427972 58.172385 
L 216.818182 58.96318 
L 217.208392 59.226778 
L 217.598601 57.908787 
L 217.988811 60.54477 
L 218.769231 57.645188 
L 219.159441 57.117992 
L 219.54965 59.490377 
L 219.93986 57.38159 
L 220.33007 60.017573 
L 220.72028 57.908787 
L 221.11049 58.699582 
L 221.500699 58.435983 
L 221.890909 58.96318 
L 222.281119 58.435983 
L 222.671329 58.435983 
L 223.061538 59.226778 
L 223.451748 58.435983 
L 223.841958 62.389958 
L 224.232168 58.96318 
L 224.622378 60.54477 
L 225.012587 61.071967 
L 225.402797 57.908787 
L 225.793007 59.490377 
L 226.183217 60.017573 
L 226.573427 58.699582 
L 226.963636 60.017573 
L 227.353846 59.226778 
L 227.744056 59.490377 
L 228.524476 58.435983 
L 228.914685 58.699582 
L 229.304895 59.226778 
L 229.695105 57.645188 
L 230.085315 59.753975 
L 230.475524 58.96318 
L 230.865734 60.281172 
L 231.255944 58.172385 
L 231.646154 58.172385 
L 232.036364 57.645188 
L 232.426573 60.808368 
L 232.816783 58.172385 
L 233.206993 59.490377 
L 233.597203 58.699582 
L 233.987413 59.753975 
L 234.377622 58.172385 
L 234.767832 59.226778 
L 235.158042 59.226778 
L 235.548252 58.699582 
L 235.938462 59.226778 
L 236.328671 58.699582 
L 236.718881 59.490377 
L 237.109091 58.96318 
L 237.499301 59.753975 
L 237.88951 58.435983 
L 238.27972 57.908787 
L 238.66993 59.490377 
L 239.45035 60.017573 
L 239.840559 58.435983 
L 240.230769 57.908787 
L 240.620979 60.281172 
L 241.011189 60.017573 
L 241.401399 60.54477 
L 241.791608 58.96318 
L 242.181818 60.017573 
L 242.572028 57.908787 
L 242.962238 59.490377 
L 243.352448 58.172385 
L 243.742657 59.226778 
L 244.132867 59.226778 
L 244.913287 58.172385 
L 245.303497 60.281172 
L 245.693706 58.172385 
L 246.474126 58.699582 
L 246.864336 59.226778 
L 247.254545 58.96318 
L 247.644755 57.908787 
L 248.034965 60.54477 
L 248.425175 58.435983 
L 248.815385 58.435983 
L 249.205594 59.226778 
L 249.595804 61.071967 
L 250.376224 58.96318 
L 250.766434 59.226778 
L 251.156643 58.435983 
L 251.546853 58.96318 
L 251.937063 58.699582 
L 252.327273 60.281172 
L 252.717483 57.645188 
L 253.107692 58.435983 
L 253.497902 58.435983 
L 253.888112 60.281172 
L 254.278322 59.226778 
L 254.668531 59.753975 
L 255.448951 57.645188 
L 256.229371 60.808368 
L 256.61958 59.226778 
L 257.00979 58.435983 
L 257.4 59.753975 
L 257.79021 60.281172 
L 258.18042 57.117992 
L 258.570629 58.96318 
L 258.960839 59.490377 
L 259.351049 58.699582 
L 259.741259 58.699582 
L 260.131469 58.96318 
L 260.521678 61.071967 
L 260.911888 58.172385 
L 261.302098 57.908787 
L 261.692308 58.435983 
L 262.082517 59.753975 
L 262.472727 59.226778 
L 262.862937 58.96318 
L 263.253147 60.54477 
L 263.643357 59.490377 
L 264.033566 59.753975 
L 264.423776 58.699582 
L 264.813986 58.435983 
L 265.204196 57.38159 
L 265.594406 58.435983 
L 265.984615 58.172385 
L 266.374825 61.071967 
L 266.765035 60.54477 
L 267.155245 57.38159 
L 267.545455 57.908787 
L 267.935664 58.699582 
L 268.325874 57.908787 
L 268.716084 59.226778 
L 269.106294 59.226778 
L 269.496503 58.96318 
L 269.886713 61.071967 
L 270.276923 58.96318 
L 270.667133 59.226778 
L 271.057343 58.96318 
L 271.447552 60.281172 
L 271.837762 60.281172 
L 272.227972 58.96318 
L 272.618182 58.435983 
L 273.398601 58.96318 
L 273.788811 57.117992 
L 274.179021 58.96318 
L 274.569231 58.435983 
L 274.959441 60.281172 
L 275.34965 58.435983 
L 275.73986 59.226778 
L 276.13007 57.908787 
L 276.52028 58.96318 
L 276.91049 57.38159 
L 277.300699 59.753975 
L 277.690909 58.172385 
L 278.081119 58.96318 
L 278.471329 60.54477 
L 278.861538 58.435983 
L 279.251748 59.226778 
L 279.641958 58.96318 
L 280.032168 60.281172 
L 280.422378 58.96318 
L 281.202797 57.908787 
L 281.593007 58.699582 
L 281.983217 59.753975 
L 282.373427 58.96318 
L 282.763636 58.699582 
L 283.153846 58.699582 
L 283.544056 57.117992 
L 284.324476 58.172385 
L 284.714685 60.281172 
L 285.104895 59.753975 
L 285.495105 60.017573 
L 285.885315 61.335565 
L 286.275524 59.226778 
L 286.665734 58.435983 
L 287.055944 58.172385 
L 287.446154 58.172385 
L 287.836364 58.435983 
L 288.226573 58.172385 
L 288.616783 58.435983 
L 289.006993 60.281172 
L 289.397203 58.172385 
L 289.787413 58.699582 
L 290.177622 58.699582 
L 290.567832 60.281172 
L 290.958042 58.699582 
L 291.348252 58.699582 
L 291.738462 59.226778 
L 292.128671 58.96318 
L 292.518881 58.435983 
L 292.909091 58.435983 
L 293.299301 57.38159 
L 293.68951 58.96318 
L 294.07972 57.117992 
L 294.46993 57.38159 
L 294.86014 57.117992 
L 295.25035 57.908787 
L 295.640559 57.645188 
L 296.030769 57.117992 
L 296.420979 59.490377 
L 297.201399 58.96318 
L 297.591608 57.117992 
L 297.981818 59.226778 
L 298.372028 59.753975 
L 299.152448 57.38159 
L 299.542657 58.172385 
L 299.932867 57.645188 
L 300.323077 58.96318 
L 301.103497 58.96318 
L 301.493706 60.017573 
L 301.883916 59.753975 
L 302.274126 58.172385 
L 302.664336 57.38159 
L 303.054545 59.226778 
L 303.444755 59.226778 
L 303.834965 58.699582 
L 304.225175 58.96318 
L 304.615385 58.96318 
L 305.005594 58.172385 
L 305.395804 58.96318 
L 305.786014 57.908787 
L 306.176224 58.699582 
L 306.566434 57.645188 
L 307.346853 58.172385 
L 307.737063 59.753975 
L 308.517483 60.281172 
L 308.907692 59.226778 
L 309.297902 58.96318 
L 309.688112 56.854393 
L 310.078322 59.226778 
L 310.468531 58.699582 
L 311.248951 58.699582 
L 311.639161 59.226778 
L 312.029371 58.172385 
L 312.41958 59.753975 
L 312.80979 58.699582 
L 313.2 58.435983 
L 313.59021 59.490377 
L 313.98042 58.699582 
L 314.370629 57.645188 
L 314.760839 60.017573 
L 315.151049 58.435983 
L 315.541259 57.908787 
L 315.931469 58.435983 
L 316.321678 59.753975 
L 316.711888 59.490377 
L 317.102098 57.38159 
L 317.492308 58.699582 
L 317.882517 60.54477 
L 318.272727 59.490377 
L 318.662937 58.96318 
L 319.053147 60.017573 
L 319.443357 59.753975 
L 319.833566 57.908787 
L 320.223776 56.854393 
L 320.613986 58.435983 
L 321.004196 58.96318 
L 321.394406 58.172385 
L 321.784615 58.96318 
L 322.565035 58.435983 
L 322.955245 57.908787 
L 323.345455 57.645188 
L 323.735664 59.226778 
L 324.125874 58.172385 
L 324.516084 59.226778 
L 324.906294 57.38159 
L 325.296503 57.38159 
L 325.686713 59.490377 
L 326.076923 57.38159 
L 326.467133 57.908787 
L 326.857343 58.699582 
L 327.247552 57.38159 
L 327.637762 57.645188 
L 328.027972 58.96318 
L 328.418182 58.172385 
L 328.808392 58.699582 
L 329.198601 60.017573 
L 329.588811 57.908787 
L 329.979021 59.490377 
L 330.369231 57.38159 
L 330.759441 57.908787 
L 331.14965 59.490377 
L 331.53986 59.490377 
L 331.93007 58.96318 
L 332.32028 58.96318 
L 332.71049 62.917155 
L 333.100699 59.226778 
L 333.490909 58.699582 
L 333.881119 60.54477 
L 334.271329 59.226778 
L 334.661538 58.435983 
L 335.051748 58.172385 
L 335.441958 58.172385 
L 335.832168 59.226778 
L 336.222378 58.96318 
L 336.612587 57.645188 
L 337.002797 57.117992 
L 337.393007 60.017573 
L 337.783217 57.645188 
L 338.173427 60.017573 
L 338.563636 59.490377 
L 338.953846 57.645188 
L 339.344056 58.96318 
L 339.734266 58.96318 
L 340.124476 59.753975 
L 340.514685 59.490377 
L 340.904895 58.435983 
L 341.295105 58.172385 
L 341.685315 58.699582 
L 342.075524 58.96318 
L 342.465734 58.172385 
L 342.855944 57.908787 
L 343.246154 59.490377 
L 343.636364 58.172385 
L 344.026573 60.017573 
L 344.416783 57.645188 
L 344.806993 58.435983 
L 345.197203 57.117992 
L 345.587413 57.645188 
L 345.977622 58.435983 
L 346.367832 57.645188 
L 346.758042 57.38159 
L 347.148252 58.435983 
L 347.538462 58.96318 
L 347.928671 58.699582 
L 348.318881 58.699582 
L 348.709091 57.908787 
L 349.099301 59.490377 
L 349.48951 58.172385 
L 349.87972 59.753975 
L 350.26993 58.699582 
L 350.66014 58.699582 
L 351.05035 58.172385 
L 351.440559 59.753975 
L 351.830769 59.490377 
L 352.220979 59.490377 
L 352.611189 60.808368 
L 353.001399 58.435983 
L 353.391608 58.435983 
L 353.781818 58.172385 
L 354.172028 60.017573 
L 354.562238 59.490377 
L 354.952448 57.908787 
L 355.342657 57.38159 
L 355.732867 58.172385 
L 356.123077 57.908787 
L 356.903497 58.96318 
L 357.293706 57.645188 
L 357.683916 57.645188 
L 358.074126 58.96318 
L 358.464336 58.699582 
L 358.854545 59.226778 
L 359.244755 57.645188 
L 359.634965 60.54477 
L 360.025175 57.645188 
L 360.415385 57.908787 
L 360.805594 58.699582 
L 361.195804 57.908787 
L 361.586014 58.172385 
L 361.976224 57.38159 
L 362.366434 58.435983 
L 362.756643 60.808368 
L 363.146853 59.490377 
L 363.537063 59.490377 
L 363.927273 60.54477 
L 364.317483 58.435983 
L 364.707692 57.645188 
L 365.097902 58.699582 
L 365.488112 58.172385 
L 366.268531 59.226778 
L 366.658741 57.38159 
L 367.048951 59.226778 
L 367.439161 58.435983 
L 367.829371 56.327197 
L 368.21958 59.753975 
L 368.60979 58.699582 
L 369.39021 59.753975 
L 370.170629 57.908787 
L 370.560839 57.645188 
L 371.341259 59.226778 
L 371.731469 59.490377 
L 372.121678 60.808368 
L 372.902098 57.645188 
L 373.292308 60.54477 
L 373.682517 58.435983 
L 374.072727 57.908787 
L 374.462937 59.753975 
L 374.853147 57.908787 
L 375.243357 57.38159 
L 375.633566 58.96318 
L 376.023776 57.645188 
L 376.413986 57.38159 
L 376.804196 59.226778 
L 377.194406 58.435983 
L 377.584615 57.908787 
L 378.365035 58.96318 
L 378.755245 60.281172 
L 379.145455 57.38159 
L 379.925874 59.753975 
L 380.316084 58.96318 
L 380.706294 60.017573 
L 381.096503 57.38159 
L 381.486713 57.38159 
L 381.876923 59.490377 
L 382.267133 57.117992 
L 382.657343 56.590795 
L 383.047552 57.908787 
L 383.437762 58.699582 
L 383.827972 57.645188 
L 384.218182 59.226778 
L 384.608392 57.908787 
L 384.998601 59.490377 
L 385.388811 58.699582 
L 385.779021 57.645188 
L 386.169231 58.96318 
L 386.559441 58.172385 
L 386.94965 58.172385 
L 387.33986 57.645188 
L 387.73007 58.172385 
L 388.12028 58.172385 
L 388.51049 58.699582 
L 388.900699 58.699582 
L 389.290909 59.226778 
L 389.681119 57.908787 
L 390.071329 58.96318 
L 390.461538 58.435983 
L 390.851748 60.54477 
L 391.241958 58.172385 
L 391.632168 59.490377 
L 392.022378 59.753975 
L 392.412587 59.753975 
L 392.802797 58.435983 
L 393.193007 58.435983 
L 393.583217 59.226778 
L 393.973427 59.490377 
L 394.363636 57.645188 
L 394.753846 57.908787 
L 395.144056 58.699582 
L 395.534266 58.172385 
L 395.924476 59.226778 
L 396.314685 59.753975 
L 396.704895 59.490377 
L 397.095105 57.38159 
L 397.485315 58.172385 
L 397.875524 57.908787 
L 398.265734 57.38159 
L 398.655944 58.96318 
L 399.046154 56.590795 
L 399.436364 57.38159 
L 399.826573 59.226778 
L 400.216783 57.908787 
L 400.606993 58.699582 
L 400.997203 58.172385 
L 401.387413 56.590795 
L 401.777622 58.96318 
L 402.167832 58.699582 
L 402.558042 57.908787 
L 402.948252 59.753975 
L 403.338462 60.281172 
L 403.728671 57.38159 
L 404.118881 58.172385 
L 404.509091 57.645188 
L 404.899301 57.38159 
L 405.28951 58.96318 
L 405.67972 58.435983 
L 406.06993 60.54477 
L 406.46014 58.699582 
L 406.85035 59.226778 
L 407.240559 58.96318 
L 407.630769 60.017573 
L 408.020979 58.172385 
L 408.411189 59.226778 
L 408.801399 58.435983 
L 409.191608 59.753975 
L 409.581818 59.226778 
L 409.972028 58.435983 
L 410.362238 58.96318 
L 410.752448 57.645188 
L 411.142657 58.96318 
L 411.532867 59.753975 
L 411.923077 58.96318 
L 412.313287 58.435983 
L 413.093706 58.435983 
L 413.483916 60.017573 
L 413.874126 59.753975 
L 414.264336 57.117992 
L 414.654545 58.96318 
L 415.044755 58.172385 
L 415.434965 57.645188 
L 415.825175 60.281172 
L 416.215385 60.281172 
L 416.605594 57.645188 
L 416.995804 57.38159 
L 417.386014 57.908787 
L 417.776224 58.699582 
L 418.166434 57.38159 
L 418.556643 57.38159 
L 418.946853 59.753975 
L 419.337063 60.017573 
L 419.727273 59.753975 
L 420.117483 60.017573 
L 420.507692 60.54477 
L 420.897902 59.490377 
L 421.288112 57.645188 
L 421.678322 57.908787 
L 422.068531 58.435983 
L 422.458741 58.172385 
L 422.848951 58.699582 
L 423.239161 61.071967 
L 423.629371 57.908787 
L 424.01958 58.435983 
L 424.40979 59.490377 
L 424.8 59.753975 
L 425.19021 58.435983 
L 425.58042 57.645188 
L 425.970629 60.808368 
L 426.360839 57.38159 
L 426.751049 60.017573 
L 427.141259 57.117992 
L 427.531469 58.96318 
L 427.921678 59.753975 
L 428.311888 58.699582 
L 428.702098 59.490377 
L 429.482517 57.38159 
L 430.262937 58.96318 
L 430.653147 57.645188 
L 431.043357 57.908787 
L 431.433566 58.96318 
L 431.823776 58.172385 
L 432.213986 57.908787 
L 432.604196 58.172385 
L 432.994406 57.117992 
L 433.384615 57.908787 
L 433.774825 58.435983 
L 434.165035 58.435983 
L 434.945455 58.96318 
L 435.335664 57.645188 
L 435.725874 58.435983 
L 436.116084 58.96318 
L 436.506294 58.172385 
L 436.896503 58.96318 
L 437.286713 60.281172 
L 437.676923 59.226778 
L 438.067133 59.490377 
L 438.457343 60.017573 
L 438.847552 59.490377 
L 439.237762 57.38159 
L 439.627972 58.435983 
L 440.018182 57.908787 
L 440.408392 60.017573 
L 440.798601 59.490377 
L 441.188811 59.753975 
L 441.579021 58.172385 
L 441.969231 60.808368 
L 442.359441 57.645188 
L 443.13986 58.172385 
L 443.53007 57.645188 
L 443.92028 57.645188 
L 444.31049 58.435983 
L 444.700699 60.017573 
L 445.090909 60.281172 
L 445.481119 60.017573 
L 445.871329 60.54477 
L 446.261538 58.96318 
L 446.651748 58.96318 
L 447.041958 58.699582 
L 447.432168 59.490377 
L 447.822378 58.435983 
L 448.212587 58.699582 
L 448.602797 59.490377 
L 448.993007 58.96318 
L 449.383217 57.38159 
L 449.773427 57.908787 
L 450.163636 59.490377 
L 450.553846 58.96318 
L 450.944056 59.490377 
L 451.334266 58.96318 
L 451.724476 59.226778 
L 452.114685 59.753975 
L 452.504895 57.908787 
L 452.895105 58.435983 
L 453.285315 58.172385 
L 453.675524 57.645188 
L 454.065734 58.172385 
L 454.455944 56.854393 
L 454.846154 58.435983 
L 455.236364 56.590795 
L 455.626573 58.96318 
L 456.016783 59.226778 
L 456.406993 57.117992 
L 456.797203 58.435983 
L 457.187413 58.699582 
L 457.577622 58.435983 
L 457.967832 58.96318 
L 458.358042 58.435983 
L 458.748252 59.753975 
L 459.138462 58.96318 
L 459.528671 57.117992 
L 459.918881 58.172385 
L 460.309091 58.699582 
L 460.699301 58.172385 
L 461.08951 59.753975 
L 461.47972 58.172385 
L 461.86993 58.435983 
L 462.26014 57.908787 
L 462.65035 58.435983 
L 463.040559 58.435983 
L 463.430769 59.490377 
L 463.820979 58.172385 
L 464.211189 58.699582 
L 464.601399 60.281172 
L 464.991608 58.96318 
L 465.772028 58.96318 
L 466.162238 59.753975 
L 466.552448 57.38159 
L 466.942657 59.226778 
L 467.332867 57.645188 
L 467.723077 59.753975 
L 468.113287 57.908787 
L 468.503497 58.435983 
L 469.283916 58.96318 
L 469.674126 59.490377 
L 470.454545 59.490377 
L 470.844755 60.54477 
L 471.234965 59.226778 
L 471.625175 58.435983 
L 472.015385 58.172385 
L 472.405594 61.599163 
L 472.795804 58.435983 
L 473.186014 58.435983 
L 473.576224 57.645188 
L 473.966434 58.699582 
L 474.356643 58.96318 
L 474.746853 58.96318 
L 475.137063 58.435983 
L 475.527273 57.117992 
L 475.917483 58.96318 
L 476.697902 57.908787 
L 477.088112 57.645188 
L 477.478322 58.172385 
L 477.868531 57.117992 
L 478.648951 59.490377 
L 479.039161 57.908787 
L 479.429371 57.645188 
L 479.81958 60.017573 
L 480.20979 57.645188 
L 480.6 57.117992 
L 480.99021 57.117992 
L 481.770629 59.490377 
L 482.160839 57.645188 
L 482.551049 59.753975 
L 482.941259 59.226778 
L 483.721678 59.753975 
L 484.111888 57.38159 
L 484.502098 60.017573 
L 484.892308 57.645188 
L 485.282517 57.908787 
L 485.672727 59.753975 
L 486.062937 58.435983 
L 486.453147 57.645188 
L 486.843357 58.699582 
L 487.233566 56.590795 
L 487.623776 57.908787 
L 488.013986 57.38159 
L 488.404196 59.490377 
L 488.794406 59.226778 
L 489.184615 58.172385 
L 489.574825 58.172385 
L 489.965035 59.226778 
L 490.355245 58.96318 
L 490.745455 57.38159 
L 491.135664 60.017573 
L 491.525874 57.38159 
L 491.916084 57.908787 
L 492.306294 58.699582 
L 492.696503 57.645188 
L 493.086713 58.96318 
L 493.476923 59.490377 
L 493.867133 60.808368 
L 494.257343 58.699582 
L 494.647552 58.96318 
L 495.037762 59.753975 
L 495.818182 57.645188 
L 496.208392 61.335565 
L 496.598601 57.908787 
L 496.988811 59.753975 
L 497.379021 56.327197 
L 497.769231 57.645188 
L 498.159441 58.435983 
L 498.54965 57.645188 
L 498.93986 59.753975 
L 499.33007 58.96318 
L 499.72028 57.645188 
L 500.11049 59.226778 
L 500.890909 58.172385 
L 501.281119 59.226778 
L 501.671329 57.645188 
L 502.061538 60.281172 
L 502.451748 60.017573 
L 502.841958 59.226778 
L 503.232168 59.226778 
L 503.622378 57.38159 
L 504.402797 59.226778 
L 504.793007 60.017573 
L 505.183217 58.96318 
L 505.963636 58.435983 
L 506.353846 58.699582 
L 506.744056 58.172385 
L 507.134266 59.753975 
L 507.524476 58.172385 
L 507.914685 59.226778 
L 508.304895 58.699582 
L 508.695105 61.335565 
L 509.085315 57.908787 
L 509.475524 59.226778 
L 509.865734 58.172385 
L 510.255944 59.490377 
L 510.646154 59.226778 
L 511.036364 58.699582 
L 511.426573 58.435983 
L 511.816783 57.908787 
L 512.206993 56.854393 
L 512.597203 57.38159 
L 512.987413 60.281172 
L 513.377622 58.699582 
L 513.767832 58.699582 
L 514.158042 58.435983 
L 514.548252 59.490377 
L 514.938462 59.226778 
L 515.328671 58.699582 
L 515.718881 58.435983 
L 516.109091 57.645188 
L 516.499301 58.96318 
L 516.88951 58.699582 
L 517.27972 58.172385 
L 517.66993 58.699582 
L 518.06014 57.645188 
L 518.45035 59.226778 
L 518.840559 59.490377 
L 519.230769 58.699582 
L 519.620979 58.172385 
L 520.011189 57.38159 
L 520.401399 58.699582 
L 520.791608 58.435983 
L 521.181818 58.435983 
L 521.572028 56.063598 
L 521.962238 58.435983 
L 522.352448 57.645188 
L 522.742657 58.699582 
L 523.132867 59.226778 
L 523.523077 57.908787 
L 523.913287 57.908787 
L 524.303497 59.490377 
L 524.693706 57.38159 
L 525.083916 58.172385 
L 525.474126 57.38159 
L 525.864336 58.435983 
L 526.254545 60.017573 
L 526.644755 58.96318 
L 527.034965 60.017573 
L 527.815385 57.117992 
L 528.205594 58.435983 
L 528.595804 58.699582 
L 528.986014 58.699582 
L 529.376224 57.645188 
L 530.156643 57.645188 
L 530.546853 58.699582 
L 530.937063 58.172385 
L 531.327273 59.226778 
L 531.717483 57.645188 
L 532.107692 58.172385 
L 532.497902 58.96318 
L 532.888112 58.96318 
L 533.278322 58.172385 
L 533.668531 57.645188 
L 534.058741 60.281172 
L 534.448951 58.96318 
L 534.839161 56.590795 
L 535.229371 59.490377 
L 535.61958 60.54477 
L 536.00979 57.117992 
L 536.4 59.490377 
L 536.79021 57.908787 
L 537.570629 56.854393 
L 537.960839 57.908787 
L 538.351049 59.753975 
L 538.741259 58.699582 
L 539.131469 58.96318 
L 539.521678 57.645188 
L 539.911888 61.071967 
L 540.302098 57.117992 
L 540.692308 57.117992 
L 541.082517 58.172385 
L 541.472727 57.38159 
L 541.862937 57.38159 
L 542.253147 58.435983 
L 542.643357 60.281172 
L 543.033566 57.908787 
L 543.423776 60.281172 
L 543.813986 59.226778 
L 544.204196 58.96318 
L 544.594406 58.435983 
L 545.374825 58.435983 
L 545.765035 57.908787 
L 546.155245 58.96318 
L 546.545455 58.435983 
L 546.935664 58.435983 
L 547.325874 58.172385 
L 547.716084 59.226778 
L 548.106294 57.117992 
L 548.496503 59.226778 
L 548.886713 57.645188 
L 549.276923 59.490377 
L 550.057343 58.435983 
L 550.447552 58.435983 
L 550.837762 57.908787 
L 551.227972 58.96318 
L 552.008392 57.38159 
L 552.398601 58.435983 
L 552.788811 56.854393 
L 553.179021 57.117992 
L 553.569231 58.96318 
L 553.959441 57.645188 
L 554.34965 56.854393 
L 554.73986 58.435983 
L 555.13007 58.435983 
L 555.52028 58.699582 
L 555.91049 57.645188 
L 556.300699 58.96318 
L 556.690909 57.908787 
L 557.081119 58.435983 
L 557.471329 58.699582 
L 557.861538 57.908787 
L 558.251748 59.490377 
L 558.641958 59.490377 
L 559.032168 59.226778 
L 559.422378 59.753975 
L 559.812587 58.96318 
L 560.202797 58.699582 
L 560.593007 55.8 
L 560.983217 58.435983 
L 561.373427 57.908787 
L 561.763636 58.435983 
L 562.153846 58.699582 
L 562.544056 60.281172 
L 562.934266 58.435983 
L 563.324476 60.017573 
L 563.714685 58.172385 
L 564.104895 58.435983 
L 564.495105 57.908787 
L 564.885315 59.490377 
L 565.275524 60.017573 
L 565.665734 60.281172 
L 566.055944 58.96318 
L 566.446154 58.96318 
L 566.836364 59.490377 
L 567.226573 58.699582 
L 567.616783 58.435983 
L 568.006993 57.38159 
L 568.397203 58.172385 
L 568.787413 59.753975 
L 569.177622 57.645188 
L 569.567832 58.96318 
L 569.958042 57.38159 
L 570.348252 58.172385 
L 570.738462 57.117992 
L 571.128671 60.54477 
L 571.518881 57.645188 
L 571.909091 59.753975 
L 572.299301 58.172385 
L 572.68951 57.645188 
L 573.07972 59.490377 
L 573.46993 56.063598 
L 573.86014 57.908787 
L 574.25035 58.435983 
L 574.640559 60.808368 
L 575.030769 57.117992 
L 575.420979 59.226778 
L 575.811189 59.226778 
L 576.201399 58.96318 
L 576.591608 56.854393 
L 576.981818 58.699582 
L 577.372028 58.172385 
L 577.762238 58.172385 
L 578.152448 58.96318 
L 578.542657 58.435983 
L 578.932867 58.699582 
L 579.323077 59.490377 
L 579.713287 58.435983 
L 580.103497 59.753975 
L 580.493706 57.117992 
L 580.883916 59.753975 
L 581.274126 58.172385 
L 581.664336 57.38159 
L 582.054545 58.96318 
L 582.444755 58.96318 
L 582.834965 59.753975 
L 583.225175 57.645188 
L 583.615385 58.172385 
L 584.005594 57.645188 
L 584.395804 58.172385 
L 584.786014 57.645188 
L 585.176224 58.96318 
L 585.566434 56.590795 
L 585.956643 57.645188 
L 586.346853 59.226778 
L 586.737063 58.435983 
L 587.127273 57.38159 
L 587.517483 58.96318 
L 587.907692 57.908787 
L 588.297902 59.226778 
L 588.688112 59.226778 
L 589.078322 59.490377 
L 589.468531 59.490377 
L 589.858741 58.435983 
L 590.248951 57.908787 
L 590.639161 59.226778 
L 591.029371 57.117992 
L 591.41958 58.699582 
L 591.80979 58.172385 
L 592.2 57.908787 
L 592.59021 59.490377 
L 592.98042 59.490377 
L 593.370629 60.281172 
L 593.760839 58.699582 
L 594.151049 58.96318 
L 594.541259 58.96318 
L 594.931469 57.908787 
L 595.321678 58.699582 
L 595.711888 56.854393 
L 596.102098 58.96318 
L 596.492308 57.38159 
L 596.882517 58.172385 
L 597.272727 57.645188 
L 597.662937 57.38159 
L 598.053147 59.226778 
L 598.443357 58.699582 
L 598.833566 57.117992 
L 599.223776 57.908787 
L 599.613986 59.226778 
L 600.004196 58.699582 
L 600.394406 57.645188 
L 600.784615 58.172385 
L 601.174825 57.38159 
L 601.565035 58.435983 
L 601.955245 57.908787 
L 602.345455 58.435983 
L 602.735664 60.017573 
L 603.125874 58.699582 
L 603.516084 60.281172 
L 603.906294 58.172385 
L 604.296503 57.38159 
L 604.686713 58.699582 
L 605.076923 58.435983 
L 605.467133 59.490377 
L 606.247552 58.96318 
L 606.637762 59.490377 
L 607.027972 59.226778 
L 607.418182 58.172385 
L 607.808392 57.908787 
L 608.198601 58.172385 
L 608.588811 60.017573 
L 609.369231 58.435983 
L 609.759441 58.699582 
L 610.14965 56.854393 
L 610.53986 58.172385 
L 610.93007 57.117992 
L 611.32028 58.435983 
L 611.71049 58.435983 
L 612.100699 58.96318 
L 612.490909 58.172385 
L 612.881119 60.281172 
L 613.271329 58.172385 
L 613.661538 58.699582 
L 614.051748 57.38159 
L 614.441958 57.117992 
L 614.832168 59.226778 
L 615.222378 59.226778 
L 615.612587 57.908787 
L 616.002797 57.908787 
L 616.393007 57.645188 
L 616.783217 58.435983 
L 617.173427 58.172385 
L 617.563636 59.490377 
L 617.953846 59.226778 
L 618.344056 57.117992 
L 618.734266 56.854393 
L 619.124476 59.490377 
L 619.514685 57.908787 
L 619.904895 58.699582 
L 620.685315 56.854393 
L 621.075524 58.435983 
L 621.465734 58.699582 
L 621.855944 56.854393 
L 622.246154 59.753975 
L 622.636364 56.327197 
L 622.636364 56.327197 
" clip-path="url(#pfcfa91eb16)" style="fill: none; stroke: #ff7f0e; stroke-width: 1.5; stroke-linecap: square"/>
   </g>
   <g id="patch_8">
    <path d="M 90 320.4 
L 90 43.2 
" style="fill: none; stroke: #000000; stroke-width: 0.8; stroke-linejoin: miter; stroke-linecap: square"/>
   </g>
   <g id="patch_9">
    <path d="M 648 320.4 
L 648 43.2 
" style="fill: none; stroke: #000000; stroke-width: 0.8; stroke-linejoin: miter; stroke-linecap: square"/>
   </g>
   <g id="patch_10">
    <path d="M 90 320.4 
L 648 320.4 
" style="fill: none; stroke: #000000; stroke-width: 0.8; stroke-linejoin: miter; stroke-linecap: square"/>
   </g>
   <g id="patch_11">
    <path d="M 90 43.2 
L 648 43.2 
" style="fill: none; stroke: #000000; stroke-width: 0.8; stroke-linejoin: miter; stroke-linecap: square"/>
   </g>
   <g id="text_24">
    <!-- loss and accuracy -->
    <g transform="translate(315.237188 37.2) scale(0.12 -0.12)">
     <defs>
      <path id="DejaVuSans-20" transform="scale(0.015625)"/>
      <path id="DejaVuSans-6e" d="M 3513 2113 
L 3513 0 
L 2938 0 
L 2938 2094 
Q 2938 2591 2744 2837 
Q 2550 3084 2163 3084 
Q 1697 3084 1428 2787 
Q 1159 2491 1159 1978 
L 1159 0 
L 581 0 
L 581 3500 
L 1159 3500 
L 1159 2956 
Q 1366 3272 1645 3428 
Q 1925 3584 2291 3584 
Q 2894 3584 3203 3211 
Q 3513 2838 3513 2113 
z
" transform="scale(0.015625)"/>
      <path id="DejaVuSans-64" d="M 2906 2969 
L 2906 4863 
L 3481 4863 
L 3481 0 
L 2906 0 
L 2906 525 
Q 2725 213 2448 61 
Q 2172 -91 1784 -91 
Q 1150 -91 751 415 
Q 353 922 353 1747 
Q 353 2572 751 3078 
Q 1150 3584 1784 3584 
Q 2172 3584 2448 3432 
Q 2725 3281 2906 2969 
z
M 947 1747 
Q 947 1113 1208 752 
Q 1469 391 1925 391 
Q 2381 391 2643 752 
Q 2906 1113 2906 1747 
Q 2906 2381 2643 2742 
Q 2381 3103 1925 3103 
Q 1469 3103 1208 2742 
Q 947 2381 947 1747 
z
" transform="scale(0.015625)"/>
     </defs>
     <use xlink:href="#DejaVuSans-6c"/>
     <use xlink:href="#DejaVuSans-6f" x="27.783203"/>
     <use xlink:href="#DejaVuSans-73" x="88.964844"/>
     <use xlink:href="#DejaVuSans-73" x="141.064453"/>
     <use xlink:href="#DejaVuSans-20" x="193.164062"/>
     <use xlink:href="#DejaVuSans-61" x="224.951172"/>
     <use xlink:href="#DejaVuSans-6e" x="286.230469"/>
     <use xlink:href="#DejaVuSans-64" x="349.609375"/>
     <use xlink:href="#DejaVuSans-20" x="413.085938"/>
     <use xlink:href="#DejaVuSans-61" x="444.873047"/>
     <use xlink:href="#DejaVuSans-63" x="506.152344"/>
     <use xlink:href="#DejaVuSans-63" x="561.132812"/>
     <use xlink:href="#DejaVuSans-75" x="616.113281"/>
     <use xlink:href="#DejaVuSans-72" x="679.492188"/>
     <use xlink:href="#DejaVuSans-61" x="720.605469"/>
     <use xlink:href="#DejaVuSans-63" x="781.884766"/>
     <use xlink:href="#DejaVuSans-79" x="836.865234"/>
    </g>
   </g>
   <g id="legend_2">
    <g id="patch_12">
     <path d="M 563.88125 65.878125 
L 641 65.878125 
Q 643 65.878125 643 63.878125 
L 643 50.2 
Q 643 48.2 641 48.2 
L 563.88125 48.2 
Q 561.88125 48.2 561.88125 50.2 
L 561.88125 63.878125 
Q 561.88125 65.878125 563.88125 65.878125 
z
" style="fill: #ffffff; opacity: 0.8; stroke: #cccccc; stroke-linejoin: miter"/>
    </g>
    <g id="line2d_23">
     <path d="M 565.88125 56.298437 
L 575.88125 56.298437 
L 585.88125 56.298437 
" style="fill: none; stroke: #ff7f0e; stroke-width: 1.5; stroke-linecap: square"/>
    </g>
    <g id="text_25">
     <!-- accuracy -->
     <g transform="translate(593.88125 59.798437) scale(0.1 -0.1)">
      <use xlink:href="#DejaVuSans-61"/>
      <use xlink:href="#DejaVuSans-63" x="61.279297"/>
      <use xlink:href="#DejaVuSans-63" x="116.259766"/>
      <use xlink:href="#DejaVuSans-75" x="171.240234"/>
      <use xlink:href="#DejaVuSans-72" x="234.619141"/>
      <use xlink:href="#DejaVuSans-61" x="275.732422"/>
      <use xlink:href="#DejaVuSans-63" x="337.011719"/>
      <use xlink:href="#DejaVuSans-79" x="391.992188"/>
     </g>
    </g>
   </g>
  </g>
 </g>
 <defs>
  <clipPath id="pfcfa91eb16">
   <rect x="90" y="43.2" width="558" height="277.2"/>
  </clipPath>
 </defs>
</svg>
