<?xml version="1.0" encoding="utf-8" standalone="no"?>
<!DOCTYPE svg PUBLIC "-//W3C//DTD SVG 1.1//EN"
  "http://www.w3.org/Graphics/SVG/1.1/DTD/svg11.dtd">
<svg xmlns:xlink="http://www.w3.org/1999/xlink" width="720pt" height="360pt" viewBox="0 0 720 360" xmlns="http://www.w3.org/2000/svg" version="1.1">
 <metadata>
  <rdf:RDF xmlns:dc="http://purl.org/dc/elements/1.1/" xmlns:cc="http://creativecommons.org/ns#" xmlns:rdf="http://www.w3.org/1999/02/22-rdf-syntax-ns#">
   <cc:Work>
    <dc:type rdf:resource="http://purl.org/dc/dcmitype/StillImage"/>
    <dc:date>2024-07-05T13:44:49.744125</dc:date>
    <dc:format>image/svg+xml</dc:format>
    <dc:creator>
     <cc:Agent>
      <dc:title>Matplotlib v3.7.2, https://matplotlib.org/</dc:title>
     </cc:Agent>
    </dc:creator>
   </cc:Work>
  </rdf:RDF>
 </metadata>
 <defs>
  <style type="text/css">*{stroke-linejoin: round; stroke-linecap: butt}</style>
 </defs>
 <g id="figure_1">
  <g id="patch_1">
   <path d="M 0 360 
L 720 360 
L 720 0 
L 0 0 
z
" style="fill: #ffffff"/>
  </g>
  <g id="axes_1">
   <g id="patch_2">
    <path d="M 90 320.4 
L 648 320.4 
L 648 43.2 
L 90 43.2 
z
" style="fill: #ffffff"/>
   </g>
   <g id="matplotlib.axis_1">
    <g id="xtick_1">
     <g id="line2d_1">
      <defs>
       <path id="m1cd53aab55" d="M 0 0 
L 0 3.5 
" style="stroke: #000000; stroke-width: 0.8"/>
      </defs>
      <g>
       <use xlink:href="#m1cd53aab55" x="115.363636" y="320.4" style="stroke: #000000; stroke-width: 0.8"/>
      </g>
     </g>
     <g id="text_1">
      <!-- 0 -->
      <g transform="translate(112.182386 334.998438) scale(0.1 -0.1)">
       <defs>
        <path id="DejaVuSans-30" d="M 2034 4250 
Q 1547 4250 1301 3770 
Q 1056 3291 1056 2328 
Q 1056 1369 1301 889 
Q 1547 409 2034 409 
Q 2525 409 2770 889 
Q 3016 1369 3016 2328 
Q 3016 3291 2770 3770 
Q 2525 4250 2034 4250 
z
M 2034 4750 
Q 2819 4750 3233 4129 
Q 3647 3509 3647 2328 
Q 3647 1150 3233 529 
Q 2819 -91 2034 -91 
Q 1250 -91 836 529 
Q 422 1150 422 2328 
Q 422 3509 836 4129 
Q 1250 4750 2034 4750 
z
" transform="scale(0.015625)"/>
       </defs>
       <use xlink:href="#DejaVuSans-30"/>
      </g>
     </g>
    </g>
    <g id="xtick_2">
     <g id="line2d_2">
      <g>
       <use xlink:href="#m1cd53aab55" x="193.405594" y="320.4" style="stroke: #000000; stroke-width: 0.8"/>
      </g>
     </g>
     <g id="text_2">
      <!-- 200 -->
      <g transform="translate(183.861844 334.998438) scale(0.1 -0.1)">
       <defs>
        <path id="DejaVuSans-32" d="M 1228 531 
L 3431 531 
L 3431 0 
L 469 0 
L 469 531 
Q 828 903 1448 1529 
Q 2069 2156 2228 2338 
Q 2531 2678 2651 2914 
Q 2772 3150 2772 3378 
Q 2772 3750 2511 3984 
Q 2250 4219 1831 4219 
Q 1534 4219 1204 4116 
Q 875 4013 500 3803 
L 500 4441 
Q 881 4594 1212 4672 
Q 1544 4750 1819 4750 
Q 2544 4750 2975 4387 
Q 3406 4025 3406 3419 
Q 3406 3131 3298 2873 
Q 3191 2616 2906 2266 
Q 2828 2175 2409 1742 
Q 1991 1309 1228 531 
z
" transform="scale(0.015625)"/>
       </defs>
       <use xlink:href="#DejaVuSans-32"/>
       <use xlink:href="#DejaVuSans-30" x="63.623047"/>
       <use xlink:href="#DejaVuSans-30" x="127.246094"/>
      </g>
     </g>
    </g>
    <g id="xtick_3">
     <g id="line2d_3">
      <g>
       <use xlink:href="#m1cd53aab55" x="271.447552" y="320.4" style="stroke: #000000; stroke-width: 0.8"/>
      </g>
     </g>
     <g id="text_3">
      <!-- 400 -->
      <g transform="translate(261.903802 334.998438) scale(0.1 -0.1)">
       <defs>
        <path id="DejaVuSans-34" d="M 2419 4116 
L 825 1625 
L 2419 1625 
L 2419 4116 
z
M 2253 4666 
L 3047 4666 
L 3047 1625 
L 3713 1625 
L 3713 1100 
L 3047 1100 
L 3047 0 
L 2419 0 
L 2419 1100 
L 313 1100 
L 313 1709 
L 2253 4666 
z
" transform="scale(0.015625)"/>
       </defs>
       <use xlink:href="#DejaVuSans-34"/>
       <use xlink:href="#DejaVuSans-30" x="63.623047"/>
       <use xlink:href="#DejaVuSans-30" x="127.246094"/>
      </g>
     </g>
    </g>
    <g id="xtick_4">
     <g id="line2d_4">
      <g>
       <use xlink:href="#m1cd53aab55" x="349.48951" y="320.4" style="stroke: #000000; stroke-width: 0.8"/>
      </g>
     </g>
     <g id="text_4">
      <!-- 600 -->
      <g transform="translate(339.94576 334.998438) scale(0.1 -0.1)">
       <defs>
        <path id="DejaVuSans-36" d="M 2113 2584 
Q 1688 2584 1439 2293 
Q 1191 2003 1191 1497 
Q 1191 994 1439 701 
Q 1688 409 2113 409 
Q 2538 409 2786 701 
Q 3034 994 3034 1497 
Q 3034 2003 2786 2293 
Q 2538 2584 2113 2584 
z
M 3366 4563 
L 3366 3988 
Q 3128 4100 2886 4159 
Q 2644 4219 2406 4219 
Q 1781 4219 1451 3797 
Q 1122 3375 1075 2522 
Q 1259 2794 1537 2939 
Q 1816 3084 2150 3084 
Q 2853 3084 3261 2657 
Q 3669 2231 3669 1497 
Q 3669 778 3244 343 
Q 2819 -91 2113 -91 
Q 1303 -91 875 529 
Q 447 1150 447 2328 
Q 447 3434 972 4092 
Q 1497 4750 2381 4750 
Q 2619 4750 2861 4703 
Q 3103 4656 3366 4563 
z
" transform="scale(0.015625)"/>
       </defs>
       <use xlink:href="#DejaVuSans-36"/>
       <use xlink:href="#DejaVuSans-30" x="63.623047"/>
       <use xlink:href="#DejaVuSans-30" x="127.246094"/>
      </g>
     </g>
    </g>
    <g id="xtick_5">
     <g id="line2d_5">
      <g>
       <use xlink:href="#m1cd53aab55" x="427.531469" y="320.4" style="stroke: #000000; stroke-width: 0.8"/>
      </g>
     </g>
     <g id="text_5">
      <!-- 800 -->
      <g transform="translate(417.987719 334.998438) scale(0.1 -0.1)">
       <defs>
        <path id="DejaVuSans-38" d="M 2034 2216 
Q 1584 2216 1326 1975 
Q 1069 1734 1069 1313 
Q 1069 891 1326 650 
Q 1584 409 2034 409 
Q 2484 409 2743 651 
Q 3003 894 3003 1313 
Q 3003 1734 2745 1975 
Q 2488 2216 2034 2216 
z
M 1403 2484 
Q 997 2584 770 2862 
Q 544 3141 544 3541 
Q 544 4100 942 4425 
Q 1341 4750 2034 4750 
Q 2731 4750 3128 4425 
Q 3525 4100 3525 3541 
Q 3525 3141 3298 2862 
Q 3072 2584 2669 2484 
Q 3125 2378 3379 2068 
Q 3634 1759 3634 1313 
Q 3634 634 3220 271 
Q 2806 -91 2034 -91 
Q 1263 -91 848 271 
Q 434 634 434 1313 
Q 434 1759 690 2068 
Q 947 2378 1403 2484 
z
M 1172 3481 
Q 1172 3119 1398 2916 
Q 1625 2713 2034 2713 
Q 2441 2713 2670 2916 
Q 2900 3119 2900 3481 
Q 2900 3844 2670 4047 
Q 2441 4250 2034 4250 
Q 1625 4250 1398 4047 
Q 1172 3844 1172 3481 
z
" transform="scale(0.015625)"/>
       </defs>
       <use xlink:href="#DejaVuSans-38"/>
       <use xlink:href="#DejaVuSans-30" x="63.623047"/>
       <use xlink:href="#DejaVuSans-30" x="127.246094"/>
      </g>
     </g>
    </g>
    <g id="xtick_6">
     <g id="line2d_6">
      <g>
       <use xlink:href="#m1cd53aab55" x="505.573427" y="320.4" style="stroke: #000000; stroke-width: 0.8"/>
      </g>
     </g>
     <g id="text_6">
      <!-- 1000 -->
      <g transform="translate(492.848427 334.998438) scale(0.1 -0.1)">
       <defs>
        <path id="DejaVuSans-31" d="M 794 531 
L 1825 531 
L 1825 4091 
L 703 3866 
L 703 4441 
L 1819 4666 
L 2450 4666 
L 2450 531 
L 3481 531 
L 3481 0 
L 794 0 
L 794 531 
z
" transform="scale(0.015625)"/>
       </defs>
       <use xlink:href="#DejaVuSans-31"/>
       <use xlink:href="#DejaVuSans-30" x="63.623047"/>
       <use xlink:href="#DejaVuSans-30" x="127.246094"/>
       <use xlink:href="#DejaVuSans-30" x="190.869141"/>
      </g>
     </g>
    </g>
    <g id="xtick_7">
     <g id="line2d_7">
      <g>
       <use xlink:href="#m1cd53aab55" x="583.615385" y="320.4" style="stroke: #000000; stroke-width: 0.8"/>
      </g>
     </g>
     <g id="text_7">
      <!-- 1200 -->
      <g transform="translate(570.890385 334.998438) scale(0.1 -0.1)">
       <use xlink:href="#DejaVuSans-31"/>
       <use xlink:href="#DejaVuSans-32" x="63.623047"/>
       <use xlink:href="#DejaVuSans-30" x="127.246094"/>
       <use xlink:href="#DejaVuSans-30" x="190.869141"/>
      </g>
     </g>
    </g>
    <g id="text_8">
     <!-- batch -->
     <g transform="translate(354.883594 348.676562) scale(0.1 -0.1)">
      <defs>
       <path id="DejaVuSans-62" d="M 3116 1747 
Q 3116 2381 2855 2742 
Q 2594 3103 2138 3103 
Q 1681 3103 1420 2742 
Q 1159 2381 1159 1747 
Q 1159 1113 1420 752 
Q 1681 391 2138 391 
Q 2594 391 2855 752 
Q 3116 1113 3116 1747 
z
M 1159 2969 
Q 1341 3281 1617 3432 
Q 1894 3584 2278 3584 
Q 2916 3584 3314 3078 
Q 3713 2572 3713 1747 
Q 3713 922 3314 415 
Q 2916 -91 2278 -91 
Q 1894 -91 1617 61 
Q 1341 213 1159 525 
L 1159 0 
L 581 0 
L 581 4863 
L 1159 4863 
L 1159 2969 
z
" transform="scale(0.015625)"/>
       <path id="DejaVuSans-61" d="M 2194 1759 
Q 1497 1759 1228 1600 
Q 959 1441 959 1056 
Q 959 750 1161 570 
Q 1363 391 1709 391 
Q 2188 391 2477 730 
Q 2766 1069 2766 1631 
L 2766 1759 
L 2194 1759 
z
M 3341 1997 
L 3341 0 
L 2766 0 
L 2766 531 
Q 2569 213 2275 61 
Q 1981 -91 1556 -91 
Q 1019 -91 701 211 
Q 384 513 384 1019 
Q 384 1609 779 1909 
Q 1175 2209 1959 2209 
L 2766 2209 
L 2766 2266 
Q 2766 2663 2505 2880 
Q 2244 3097 1772 3097 
Q 1472 3097 1187 3025 
Q 903 2953 641 2809 
L 641 3341 
Q 956 3463 1253 3523 
Q 1550 3584 1831 3584 
Q 2591 3584 2966 3190 
Q 3341 2797 3341 1997 
z
" transform="scale(0.015625)"/>
       <path id="DejaVuSans-74" d="M 1172 4494 
L 1172 3500 
L 2356 3500 
L 2356 3053 
L 1172 3053 
L 1172 1153 
Q 1172 725 1289 603 
Q 1406 481 1766 481 
L 2356 481 
L 2356 0 
L 1766 0 
Q 1100 0 847 248 
Q 594 497 594 1153 
L 594 3053 
L 172 3053 
L 172 3500 
L 594 3500 
L 594 4494 
L 1172 4494 
z
" transform="scale(0.015625)"/>
       <path id="DejaVuSans-63" d="M 3122 3366 
L 3122 2828 
Q 2878 2963 2633 3030 
Q 2388 3097 2138 3097 
Q 1578 3097 1268 2742 
Q 959 2388 959 1747 
Q 959 1106 1268 751 
Q 1578 397 2138 397 
Q 2388 397 2633 464 
Q 2878 531 3122 666 
L 3122 134 
Q 2881 22 2623 -34 
Q 2366 -91 2075 -91 
Q 1284 -91 818 406 
Q 353 903 353 1747 
Q 353 2603 823 3093 
Q 1294 3584 2113 3584 
Q 2378 3584 2631 3529 
Q 2884 3475 3122 3366 
z
" transform="scale(0.015625)"/>
       <path id="DejaVuSans-68" d="M 3513 2113 
L 3513 0 
L 2938 0 
L 2938 2094 
Q 2938 2591 2744 2837 
Q 2550 3084 2163 3084 
Q 1697 3084 1428 2787 
Q 1159 2491 1159 1978 
L 1159 0 
L 581 0 
L 581 4863 
L 1159 4863 
L 1159 2956 
Q 1366 3272 1645 3428 
Q 1925 3584 2291 3584 
Q 2894 3584 3203 3211 
Q 3513 2838 3513 2113 
z
" transform="scale(0.015625)"/>
      </defs>
      <use xlink:href="#DejaVuSans-62"/>
      <use xlink:href="#DejaVuSans-61" x="63.476562"/>
      <use xlink:href="#DejaVuSans-74" x="124.755859"/>
      <use xlink:href="#DejaVuSans-63" x="163.964844"/>
      <use xlink:href="#DejaVuSans-68" x="218.945312"/>
     </g>
    </g>
   </g>
   <g id="matplotlib.axis_2">
    <g id="ytick_1">
     <g id="line2d_8">
      <defs>
       <path id="m59617b4ec7" d="M 0 0 
L -3.5 0 
" style="stroke: #000000; stroke-width: 0.8"/>
      </defs>
      <g>
       <use xlink:href="#m59617b4ec7" x="90" y="308.425021" style="stroke: #000000; stroke-width: 0.8"/>
      </g>
     </g>
     <g id="text_9">
      <!-- 0.0 -->
      <g transform="translate(67.096875 312.22424) scale(0.1 -0.1)">
       <defs>
        <path id="DejaVuSans-2e" d="M 684 794 
L 1344 794 
L 1344 0 
L 684 0 
L 684 794 
z
" transform="scale(0.015625)"/>
       </defs>
       <use xlink:href="#DejaVuSans-30"/>
       <use xlink:href="#DejaVuSans-2e" x="63.623047"/>
       <use xlink:href="#DejaVuSans-30" x="95.410156"/>
      </g>
     </g>
    </g>
    <g id="ytick_2">
     <g id="line2d_9">
      <g>
       <use xlink:href="#m59617b4ec7" x="90" y="254.010727" style="stroke: #000000; stroke-width: 0.8"/>
      </g>
     </g>
     <g id="text_10">
      <!-- 0.5 -->
      <g transform="translate(67.096875 257.809946) scale(0.1 -0.1)">
       <defs>
        <path id="DejaVuSans-35" d="M 691 4666 
L 3169 4666 
L 3169 4134 
L 1269 4134 
L 1269 2991 
Q 1406 3038 1543 3061 
Q 1681 3084 1819 3084 
Q 2600 3084 3056 2656 
Q 3513 2228 3513 1497 
Q 3513 744 3044 326 
Q 2575 -91 1722 -91 
Q 1428 -91 1123 -41 
Q 819 9 494 109 
L 494 744 
Q 775 591 1075 516 
Q 1375 441 1709 441 
Q 2250 441 2565 725 
Q 2881 1009 2881 1497 
Q 2881 1984 2565 2268 
Q 2250 2553 1709 2553 
Q 1456 2553 1204 2497 
Q 953 2441 691 2322 
L 691 4666 
z
" transform="scale(0.015625)"/>
       </defs>
       <use xlink:href="#DejaVuSans-30"/>
       <use xlink:href="#DejaVuSans-2e" x="63.623047"/>
       <use xlink:href="#DejaVuSans-35" x="95.410156"/>
      </g>
     </g>
    </g>
    <g id="ytick_3">
     <g id="line2d_10">
      <g>
       <use xlink:href="#m59617b4ec7" x="90" y="199.596433" style="stroke: #000000; stroke-width: 0.8"/>
      </g>
     </g>
     <g id="text_11">
      <!-- 1.0 -->
      <g transform="translate(67.096875 203.395652) scale(0.1 -0.1)">
       <use xlink:href="#DejaVuSans-31"/>
       <use xlink:href="#DejaVuSans-2e" x="63.623047"/>
       <use xlink:href="#DejaVuSans-30" x="95.410156"/>
      </g>
     </g>
    </g>
    <g id="ytick_4">
     <g id="line2d_11">
      <g>
       <use xlink:href="#m59617b4ec7" x="90" y="145.182139" style="stroke: #000000; stroke-width: 0.8"/>
      </g>
     </g>
     <g id="text_12">
      <!-- 1.5 -->
      <g transform="translate(67.096875 148.981358) scale(0.1 -0.1)">
       <use xlink:href="#DejaVuSans-31"/>
       <use xlink:href="#DejaVuSans-2e" x="63.623047"/>
       <use xlink:href="#DejaVuSans-35" x="95.410156"/>
      </g>
     </g>
    </g>
    <g id="ytick_5">
     <g id="line2d_12">
      <g>
       <use xlink:href="#m59617b4ec7" x="90" y="90.767845" style="stroke: #000000; stroke-width: 0.8"/>
      </g>
     </g>
     <g id="text_13">
      <!-- 2.0 -->
      <g transform="translate(67.096875 94.567064) scale(0.1 -0.1)">
       <use xlink:href="#DejaVuSans-32"/>
       <use xlink:href="#DejaVuSans-2e" x="63.623047"/>
       <use xlink:href="#DejaVuSans-30" x="95.410156"/>
      </g>
     </g>
    </g>
    <g id="text_14">
     <!-- loss -->
     <g transform="translate(61.017187 191.457812) rotate(-90) scale(0.1 -0.1)">
      <defs>
       <path id="DejaVuSans-6c" d="M 603 4863 
L 1178 4863 
L 1178 0 
L 603 0 
L 603 4863 
z
" transform="scale(0.015625)"/>
       <path id="DejaVuSans-6f" d="M 1959 3097 
Q 1497 3097 1228 2736 
Q 959 2375 959 1747 
Q 959 1119 1226 758 
Q 1494 397 1959 397 
Q 2419 397 2687 759 
Q 2956 1122 2956 1747 
Q 2956 2369 2687 2733 
Q 2419 3097 1959 3097 
z
M 1959 3584 
Q 2709 3584 3137 3096 
Q 3566 2609 3566 1747 
Q 3566 888 3137 398 
Q 2709 -91 1959 -91 
Q 1206 -91 779 398 
Q 353 888 353 1747 
Q 353 2609 779 3096 
Q 1206 3584 1959 3584 
z
" transform="scale(0.015625)"/>
       <path id="DejaVuSans-73" d="M 2834 3397 
L 2834 2853 
Q 2591 2978 2328 3040 
Q 2066 3103 1784 3103 
Q 1356 3103 1142 2972 
Q 928 2841 928 2578 
Q 928 2378 1081 2264 
Q 1234 2150 1697 2047 
L 1894 2003 
Q 2506 1872 2764 1633 
Q 3022 1394 3022 966 
Q 3022 478 2636 193 
Q 2250 -91 1575 -91 
Q 1294 -91 989 -36 
Q 684 19 347 128 
L 347 722 
Q 666 556 975 473 
Q 1284 391 1588 391 
Q 1994 391 2212 530 
Q 2431 669 2431 922 
Q 2431 1156 2273 1281 
Q 2116 1406 1581 1522 
L 1381 1569 
Q 847 1681 609 1914 
Q 372 2147 372 2553 
Q 372 3047 722 3315 
Q 1072 3584 1716 3584 
Q 2034 3584 2315 3537 
Q 2597 3491 2834 3397 
z
" transform="scale(0.015625)"/>
      </defs>
      <use xlink:href="#DejaVuSans-6c"/>
      <use xlink:href="#DejaVuSans-6f" x="27.783203"/>
      <use xlink:href="#DejaVuSans-73" x="88.964844"/>
      <use xlink:href="#DejaVuSans-73" x="141.064453"/>
     </g>
    </g>
   </g>
   <g id="line2d_13">
    <path d="M 115.753846 55.8 
L 116.534266 96.698287 
L 116.924476 105.745348 
L 118.485315 163.445466 
L 118.875524 166.037921 
L 119.265734 181.874393 
L 119.655944 180.523212 
L 120.826573 216.134923 
L 121.216783 220.873612 
L 121.606993 220.727466 
L 121.997203 224.162419 
L 122.387413 229.647376 
L 122.777622 229.585301 
L 123.558042 243.077937 
L 123.948252 244.4492 
L 124.338462 249.633661 
L 124.728671 257.77384 
L 125.118881 255.830588 
L 125.509091 258.272494 
L 125.899301 257.223993 
L 126.28951 259.237211 
L 126.67972 255.716842 
L 127.46014 268.020876 
L 127.85035 264.55539 
L 128.240559 268.124223 
L 128.630769 269.376851 
L 129.020979 274.223087 
L 129.411189 270.933004 
L 129.801399 272.161209 
L 130.191608 270.316593 
L 130.581818 276.921044 
L 130.972028 276.136142 
L 132.142657 278.789977 
L 132.532867 272.687687 
L 132.923077 282.552421 
L 133.313287 277.624167 
L 133.703497 282.312245 
L 134.093706 280.205847 
L 134.483916 276.327384 
L 134.874126 283.65727 
L 135.264336 282.123738 
L 136.044755 284.723209 
L 136.434965 283.569187 
L 136.825175 287.649021 
L 137.215385 285.925059 
L 137.605594 285.923285 
L 137.995804 285.00048 
L 138.386014 283.160864 
L 138.776224 289.873603 
L 139.556643 287.725761 
L 139.946853 285.745955 
L 140.337063 285.025356 
L 141.117483 290.506581 
L 141.507692 289.209276 
L 141.897902 290.592929 
L 142.288112 286.984033 
L 142.678322 289.16842 
L 143.068531 289.527352 
L 143.458741 294.468743 
L 143.848951 289.700298 
L 144.239161 291.398622 
L 144.629371 292.206498 
L 145.01958 287.556699 
L 145.40979 296.035318 
L 146.19021 289.074395 
L 146.58042 291.636549 
L 146.970629 292.076756 
L 147.360839 293.436584 
L 147.751049 291.294857 
L 148.141259 294.340127 
L 148.531469 293.029208 
L 148.921678 294.684534 
L 149.311888 289.076743 
L 149.702098 292.836695 
L 150.092308 292.628381 
L 150.482517 295.306961 
L 150.872727 293.261106 
L 151.262937 295.920658 
L 151.653147 294.371651 
L 152.043357 294.339724 
L 152.433566 296.638587 
L 152.823776 294.219825 
L 153.604196 297.486276 
L 153.994406 297.092325 
L 154.384615 297.004373 
L 154.774825 299.578781 
L 155.165035 293.453988 
L 155.555245 296.070254 
L 155.945455 294.248864 
L 156.335664 294.847433 
L 156.725874 299.27341 
L 157.116084 295.006654 
L 157.506294 296.997188 
L 157.896503 297.361366 
L 158.286713 297.156725 
L 158.676923 296.158772 
L 159.067133 297.370211 
L 159.847552 296.034557 
L 160.237762 297.514705 
L 160.627972 296.146083 
L 161.018182 297.948381 
L 161.408392 298.889526 
L 161.798601 298.241096 
L 162.188811 297.858859 
L 162.579021 298.270516 
L 162.969231 297.819231 
L 163.359441 299.16184 
L 163.74965 297.441143 
L 164.13986 298.067517 
L 164.53007 297.443968 
L 164.92028 298.405913 
L 165.31049 299.749625 
L 165.700699 297.138176 
L 166.090909 297.471012 
L 166.481119 296.980235 
L 166.871329 296.703374 
L 167.261538 296.729617 
L 167.651748 298.868835 
L 168.041958 297.671983 
L 168.432168 298.975107 
L 168.822378 298.840088 
L 169.212587 297.615834 
L 169.602797 297.488391 
L 169.993007 300.359714 
L 170.383217 296.104704 
L 170.773427 294.91084 
L 171.163636 299.322054 
L 171.553846 299.926159 
L 171.944056 299.30953 
L 172.334266 295.324747 
L 172.724476 297.327931 
L 173.114685 294.802217 
L 173.504895 301.228289 
L 173.895105 297.436343 
L 174.285315 300.489728 
L 174.675524 298.846887 
L 175.065734 299.313866 
L 175.455944 299.076528 
L 175.846154 299.662818 
L 176.236364 294.818366 
L 176.626573 300.287971 
L 177.016783 297.560809 
L 177.406993 295.917513 
L 177.797203 301.332717 
L 178.187413 301.480637 
L 178.577622 301.24633 
L 178.967832 298.200078 
L 179.748252 299.525017 
L 180.528671 302.219516 
L 180.918881 301.352418 
L 181.309091 301.317338 
L 181.699301 302.502293 
L 182.08951 297.200828 
L 182.47972 297.792864 
L 182.86993 300.605552 
L 183.26014 297.887928 
L 183.65035 296.941901 
L 184.040559 298.512203 
L 184.430769 297.77366 
L 184.820979 300.580694 
L 185.211189 300.852779 
L 185.601399 299.348491 
L 185.991608 303.664951 
L 186.381818 298.366353 
L 186.772028 299.747965 
L 187.162238 299.491863 
L 187.552448 300.176701 
L 188.332867 302.317124 
L 188.723077 300.33297 
L 189.113287 299.841935 
L 189.503497 303.463713 
L 189.893706 298.955343 
L 190.283916 298.120961 
L 190.674126 302.12185 
L 191.454545 299.03634 
L 191.844755 303.056211 
L 192.234965 299.848982 
L 192.625175 301.247686 
L 193.015385 301.050707 
L 193.405594 302.86714 
L 193.795804 302.247312 
L 194.186014 302.888656 
L 194.576224 302.904994 
L 194.966434 301.654254 
L 195.356643 302.133636 
L 195.746853 299.4794 
L 196.137063 299.493981 
L 196.527273 304.522386 
L 196.917483 300.997437 
L 197.307692 300.105236 
L 197.697902 299.682786 
L 198.088112 300.620089 
L 198.478322 298.759879 
L 198.868531 301.468881 
L 199.258741 299.81076 
L 199.648951 301.404895 
L 200.039161 296.773494 
L 200.429371 300.5189 
L 200.81958 301.149773 
L 201.20979 301.402704 
L 201.6 297.538866 
L 201.99021 302.035693 
L 202.38042 302.273631 
L 202.770629 299.938396 
L 203.160839 301.477646 
L 203.551049 301.205441 
L 203.941259 303.222864 
L 204.331469 299.61116 
L 204.721678 300.536723 
L 205.111888 301.789552 
L 205.502098 303.533999 
L 206.282517 302.56941 
L 206.672727 302.87606 
L 207.062937 301.20643 
L 207.453147 300.858567 
L 207.843357 301.457617 
L 208.233566 302.837579 
L 208.623776 301.101272 
L 209.013986 301.859692 
L 209.404196 303.712972 
L 209.794406 302.38783 
L 210.184615 302.568057 
L 210.574825 303.72039 
L 211.745455 299.04778 
L 212.135664 304.607422 
L 212.525874 300.205759 
L 212.916084 301.800551 
L 213.306294 298.961217 
L 214.086713 303.851855 
L 214.476923 302.447752 
L 214.867133 299.586646 
L 215.257343 303.42124 
L 215.647552 302.679821 
L 216.037762 301.178661 
L 216.818182 300.058561 
L 217.208392 303.016846 
L 217.598601 304.085187 
L 217.988811 301.127034 
L 218.379021 303.375509 
L 218.769231 300.405663 
L 219.159441 303.096588 
L 219.54965 303.279328 
L 219.93986 302.821604 
L 220.33007 303.220341 
L 220.72028 298.469759 
L 221.11049 302.848065 
L 221.500699 304.028886 
L 222.281119 301.339896 
L 222.671329 298.888157 
L 223.061538 302.235125 
L 223.451748 301.654145 
L 223.841958 302.071612 
L 224.232168 300.368146 
L 224.622378 300.67207 
L 225.012587 302.937684 
L 225.402797 303.779969 
L 225.793007 299.575665 
L 226.183217 300.162389 
L 226.573427 299.238995 
L 226.963636 299.827025 
L 227.353846 302.170545 
L 227.744056 301.244837 
L 228.134266 302.085049 
L 228.914685 302.622473 
L 229.304895 301.426125 
L 229.695105 301.809525 
L 230.085315 303.392803 
L 230.475524 302.964718 
L 230.865734 301.210278 
L 231.255944 300.833447 
L 231.646154 303.216579 
L 232.036364 302.201353 
L 232.426573 300.813378 
L 232.816783 303.733202 
L 233.206993 304.02868 
L 233.597203 302.896795 
L 233.987413 304.033624 
L 234.377622 303.532756 
L 234.767832 302.264499 
L 235.158042 302.606633 
L 235.548252 300.931326 
L 235.938462 303.432928 
L 236.328671 301.396817 
L 236.718881 301.247462 
L 237.109091 299.396908 
L 237.499301 301.649314 
L 237.88951 303.134924 
L 238.27972 303.406375 
L 238.66993 301.298994 
L 239.45035 302.46461 
L 239.840559 301.991784 
L 240.230769 301.706061 
L 240.620979 303.858119 
L 241.401399 303.221528 
L 241.791608 300.080569 
L 242.181818 302.311356 
L 242.572028 302.643346 
L 242.962238 304.008971 
L 243.352448 299.584847 
L 243.742657 303.199562 
L 244.132867 303.50308 
L 244.523077 304.746555 
L 244.913287 304.894538 
L 245.303497 303.573048 
L 245.693706 305.407237 
L 246.083916 301.24899 
L 246.474126 302.342796 
L 246.864336 302.062362 
L 247.254545 301.366769 
L 247.644755 303.167223 
L 248.034965 301.726695 
L 248.425175 302.088322 
L 248.815385 304.226048 
L 249.205594 303.67548 
L 249.595804 304.903813 
L 249.986014 301.689829 
L 250.376224 304.613155 
L 250.766434 302.217841 
L 251.156643 303.083684 
L 251.546853 303.465955 
L 251.937063 303.498018 
L 252.327273 297.079588 
L 253.107692 304.551299 
L 253.497902 303.426712 
L 253.888112 301.527892 
L 254.278322 303.274236 
L 254.668531 301.893608 
L 255.058741 304.273193 
L 255.448951 304.697741 
L 255.839161 301.768212 
L 256.229371 302.640358 
L 256.61958 304.052251 
L 257.00979 301.218962 
L 257.4 304.664902 
L 257.79021 296.693887 
L 258.18042 303.494693 
L 258.570629 304.018081 
L 258.960839 301.683046 
L 259.351049 305.155448 
L 259.741259 304.051253 
L 260.131469 302.206175 
L 260.911888 304.738609 
L 261.302098 301.677291 
L 261.692308 303.156032 
L 262.082517 304.174217 
L 262.472727 303.100699 
L 262.862937 302.720316 
L 263.253147 303.791591 
L 263.643357 303.39044 
L 264.033566 301.661155 
L 264.423776 303.372226 
L 264.813986 301.436348 
L 265.204196 305.387947 
L 265.594406 303.810565 
L 265.984615 303.900456 
L 266.374825 301.722909 
L 266.765035 300.781887 
L 267.155245 303.917538 
L 267.545455 303.47455 
L 267.935664 303.491742 
L 268.325874 299.290388 
L 268.716084 305.037277 
L 269.106294 305.294368 
L 269.496503 302.340496 
L 269.886713 305.870947 
L 270.276923 300.856457 
L 270.667133 304.817736 
L 271.057343 304.221463 
L 271.447552 304.884286 
L 271.837762 304.794082 
L 272.227972 303.021591 
L 272.618182 302.501523 
L 273.008392 302.77592 
L 273.398601 304.014537 
L 273.788811 304.517391 
L 274.179021 305.42909 
L 274.569231 303.99667 
L 274.959441 304.157952 
L 275.34965 304.082514 
L 275.73986 303.336267 
L 276.13007 299.841421 
L 276.52028 304.16834 
L 276.91049 305.907738 
L 277.690909 299.673356 
L 278.081119 303.451931 
L 278.471329 303.07497 
L 278.861538 301.314091 
L 279.251748 303.19455 
L 279.641958 302.533871 
L 280.032168 305.702063 
L 280.812587 302.028233 
L 281.202797 302.306594 
L 281.593007 305.099115 
L 281.983217 301.505244 
L 282.373427 302.7842 
L 282.763636 302.952151 
L 283.544056 305.607999 
L 283.934266 304.130934 
L 284.714685 304.02595 
L 285.104895 303.650999 
L 285.495105 305.687105 
L 285.885315 303.686921 
L 286.275524 303.045318 
L 286.665734 304.464125 
L 287.055944 300.376696 
L 287.446154 304.156533 
L 287.836364 300.983761 
L 288.226573 306.436569 
L 288.616783 303.378536 
L 289.006993 301.580271 
L 289.397203 304.292362 
L 289.787413 301.483281 
L 290.177622 305.440184 
L 290.958042 303.579224 
L 291.348252 301.679741 
L 291.738462 304.904499 
L 292.128671 303.879351 
L 292.518881 303.646836 
L 292.909091 304.39624 
L 293.299301 303.748963 
L 293.68951 304.205963 
L 294.07972 305.38876 
L 294.46993 303.841197 
L 294.86014 302.842509 
L 295.25035 303.444231 
L 295.640559 305.870547 
L 296.030769 305.383119 
L 296.420979 302.652463 
L 297.201399 306.234194 
L 297.981818 300.557134 
L 298.372028 306.05775 
L 298.762238 304.565482 
L 299.152448 302.107452 
L 299.542657 304.340771 
L 299.932867 299.749209 
L 300.323077 305.88261 
L 300.713287 304.482528 
L 301.103497 304.001771 
L 301.493706 305.438707 
L 301.883916 303.519849 
L 302.274126 304.672748 
L 303.054545 299.41334 
L 303.834965 304.408252 
L 304.225175 301.621345 
L 304.615385 303.587319 
L 305.005594 304.814659 
L 305.395804 304.576132 
L 305.786014 301.620629 
L 306.176224 303.601863 
L 306.566434 304.807485 
L 307.346853 306.041554 
L 307.737063 304.891187 
L 308.127273 304.182401 
L 308.517483 305.089235 
L 308.907692 304.292752 
L 309.297902 301.225404 
L 309.688112 304.539646 
L 310.078322 303.954506 
L 310.468531 304.281747 
L 310.858741 303.035374 
L 311.248951 304.092929 
L 311.639161 300.314863 
L 312.029371 304.060979 
L 312.41958 303.838737 
L 312.80979 301.862358 
L 313.2 304.044487 
L 313.59021 304.386105 
L 313.98042 305.024983 
L 314.370629 302.935727 
L 314.760839 302.067447 
L 315.151049 303.410224 
L 315.541259 302.761799 
L 315.931469 306.026363 
L 316.321678 303.478508 
L 316.711888 305.205893 
L 317.102098 300.590477 
L 317.492308 304.77811 
L 317.882517 300.487423 
L 318.272727 304.216646 
L 318.662937 304.041179 
L 319.053147 304.500332 
L 319.443357 303.746463 
L 319.833566 304.741622 
L 320.223776 300.370797 
L 320.613986 304.074815 
L 321.004196 305.768526 
L 321.394406 305.855401 
L 322.565035 301.267019 
L 322.955245 306.012222 
L 323.345455 305.988323 
L 323.735664 303.544301 
L 324.125874 303.767347 
L 324.516084 305.303528 
L 324.906294 305.229518 
L 325.296503 304.696757 
L 325.686713 305.005019 
L 326.076923 304.42559 
L 326.467133 302.202611 
L 326.857343 304.685181 
L 327.247552 305.560001 
L 327.637762 306.084524 
L 328.027972 305.128378 
L 328.418182 304.721608 
L 328.808392 301.743763 
L 329.198601 305.830123 
L 329.588811 304.361844 
L 329.979021 303.904223 
L 330.369231 304.108372 
L 330.759441 303.262674 
L 331.14965 305.928619 
L 331.53986 306.041943 
L 331.93007 304.60265 
L 332.32028 304.459243 
L 332.71049 302.971099 
L 333.100699 304.081565 
L 333.490909 304.400614 
L 333.881119 303.932181 
L 334.271329 305.166838 
L 334.661538 305.295184 
L 335.051748 303.861556 
L 335.441958 304.100752 
L 335.832168 303.83573 
L 336.222378 305.943229 
L 336.612587 302.83276 
L 337.002797 304.998172 
L 337.393007 303.394659 
L 337.783217 306.913007 
L 338.173427 304.846781 
L 338.563636 305.086356 
L 338.953846 303.373498 
L 339.344056 304.507486 
L 339.734266 303.769873 
L 340.124476 305.227696 
L 340.514685 304.832275 
L 340.904895 305.567728 
L 341.295105 303.612738 
L 341.685315 304.021049 
L 342.075524 305.899653 
L 342.465734 302.132497 
L 342.855944 302.592526 
L 343.246154 304.728372 
L 343.636364 303.358716 
L 344.026573 304.083645 
L 344.416783 302.825923 
L 344.806993 304.937884 
L 345.197203 303.214125 
L 345.587413 305.838188 
L 345.977622 303.031326 
L 346.367832 307.248645 
L 346.758042 303.941259 
L 347.148252 304.862337 
L 347.538462 300.558221 
L 347.928671 306.421858 
L 348.318881 302.851223 
L 348.709091 306.569459 
L 349.099301 304.236177 
L 349.48951 305.169094 
L 349.87972 302.176865 
L 350.26993 303.504088 
L 350.66014 305.75309 
L 351.05035 305.707124 
L 351.440559 299.873458 
L 351.830769 304.442977 
L 352.220979 304.368147 
L 352.611189 305.019478 
L 353.001399 306.006136 
L 353.391608 305.127305 
L 353.781818 303.651952 
L 354.172028 304.514294 
L 354.562238 302.990597 
L 354.952448 304.141759 
L 355.342657 303.30724 
L 355.732867 303.964771 
L 356.123077 304.947725 
L 356.513287 304.683296 
L 356.903497 303.888114 
L 357.293706 303.906652 
L 357.683916 302.127228 
L 358.074126 305.145407 
L 358.464336 305.407606 
L 358.854545 304.684445 
L 359.244755 301.618241 
L 359.634965 302.693985 
L 360.025175 301.009013 
L 360.415385 305.613962 
L 360.805594 307.005851 
L 361.195804 305.846459 
L 361.586014 303.804769 
L 361.976224 304.444512 
L 362.366434 305.618819 
L 362.756643 304.311343 
L 363.146853 305.198038 
L 363.537063 303.406485 
L 363.927273 306.437474 
L 364.317483 304.153341 
L 364.707692 305.264234 
L 365.097902 305.570973 
L 365.488112 304.853316 
L 365.878322 303.870081 
L 366.268531 303.317045 
L 366.658741 305.93772 
L 367.048951 306.147356 
L 367.439161 305.89867 
L 367.829371 303.758025 
L 368.21958 304.117215 
L 368.60979 305.149227 
L 369 304.434932 
L 369.39021 303.479794 
L 369.78042 305.214934 
L 370.170629 304.22798 
L 370.560839 304.130713 
L 370.951049 305.466484 
L 371.341259 303.724906 
L 371.731469 303.857223 
L 372.121678 304.648045 
L 372.511888 305.856722 
L 372.902098 304.798758 
L 373.292308 305.056264 
L 373.682517 303.489047 
L 374.072727 306.498432 
L 374.462937 306.404355 
L 374.853147 304.511922 
L 375.243357 305.221834 
L 375.633566 306.598465 
L 376.023776 301.144128 
L 376.413986 306.259956 
L 376.804196 306.564463 
L 377.194406 306.513006 
L 377.584615 305.201592 
L 377.974825 307.179325 
L 378.755245 305.080491 
L 379.145455 305.904782 
L 379.535664 304.993662 
L 379.925874 306.647233 
L 380.706294 303.174108 
L 381.096503 305.522095 
L 381.486713 304.124917 
L 381.876923 306.161586 
L 382.267133 303.882162 
L 382.657343 305.67176 
L 383.047552 306.135473 
L 383.827972 304.83889 
L 384.218182 305.82223 
L 384.608392 305.903924 
L 385.388811 302.327331 
L 385.779021 306.887673 
L 386.169231 301.463809 
L 386.559441 301.588324 
L 386.94965 304.903283 
L 387.33986 305.230908 
L 387.73007 305.811886 
L 388.12028 303.910692 
L 388.51049 301.03466 
L 388.900699 299.875267 
L 389.290909 306.415838 
L 390.071329 306.750406 
L 390.461538 305.881786 
L 390.851748 306.079445 
L 391.241958 303.733369 
L 391.632168 306.046769 
L 392.022378 305.404922 
L 392.412587 303.039712 
L 392.802797 306.2511 
L 393.193007 306.170071 
L 393.583217 303.639943 
L 394.363636 306.670615 
L 394.753846 302.588132 
L 395.144056 303.827863 
L 395.534266 306.401702 
L 395.924476 304.754792 
L 396.314685 304.600839 
L 396.704895 304.759746 
L 397.485315 305.480917 
L 397.875524 304.935197 
L 398.265734 306.988952 
L 399.046154 305.025855 
L 399.436364 305.925884 
L 399.826573 304.33584 
L 400.216783 304.520906 
L 400.606993 306.012775 
L 400.997203 306.09703 
L 401.387413 306.589802 
L 402.167832 303.358963 
L 402.558042 304.443897 
L 402.948252 304.616174 
L 403.338462 303.024018 
L 403.728671 305.485394 
L 404.118881 307.160959 
L 404.509091 305.909911 
L 404.899301 306.107972 
L 405.28951 304.815976 
L 405.67972 304.613483 
L 406.06993 304.599869 
L 406.46014 304.986466 
L 406.85035 306.47763 
L 407.240559 303.064111 
L 408.411189 305.59322 
L 408.801399 307.021367 
L 409.191608 306.056485 
L 409.581818 306.703811 
L 409.972028 303.196952 
L 410.362238 303.445456 
L 410.752448 305.970581 
L 411.142657 305.349567 
L 411.532867 303.374551 
L 411.923077 304.168461 
L 412.313287 306.424666 
L 412.703497 305.858984 
L 413.093706 307.398635 
L 413.483916 304.830777 
L 413.874126 307.221787 
L 414.264336 303.553679 
L 414.654545 305.735087 
L 415.044755 306.553506 
L 415.434965 302.178287 
L 415.825175 306.138707 
L 416.215385 304.952913 
L 416.605594 306.319275 
L 416.995804 305.285592 
L 417.386014 303.713341 
L 417.776224 306.590731 
L 418.166434 300.101539 
L 418.556643 306.516035 
L 418.946853 304.263131 
L 419.337063 302.793474 
L 419.727273 303.623963 
L 420.507692 305.666637 
L 420.897902 305.55013 
L 421.288112 305.036083 
L 421.678322 306.149013 
L 422.068531 304.295061 
L 422.458741 303.502237 
L 422.848951 306.227334 
L 423.239161 306.211019 
L 423.629371 306.040553 
L 424.01958 302.393643 
L 424.40979 304.429922 
L 425.19021 304.937559 
L 425.58042 305.691743 
L 425.970629 304.820778 
L 426.360839 307.463172 
L 427.141259 303.068874 
L 427.531469 304.272311 
L 427.921678 306.752498 
L 428.311888 306.567929 
L 429.092308 305.133191 
L 429.482517 304.942119 
L 429.872727 305.047415 
L 430.262937 303.578989 
L 430.653147 303.563254 
L 431.043357 306.127571 
L 431.433566 304.260436 
L 431.823776 305.5822 
L 432.213986 306.106286 
L 432.604196 304.258062 
L 432.994406 305.202632 
L 433.384615 307.014262 
L 433.774825 305.776406 
L 434.165035 306.397166 
L 434.555245 305.878433 
L 434.945455 306.474249 
L 435.335664 304.206029 
L 435.725874 306.417514 
L 436.116084 305.720459 
L 436.506294 305.739579 
L 436.896503 306.041468 
L 437.286713 305.5102 
L 437.676923 303.510647 
L 438.067133 305.980759 
L 438.457343 306.169736 
L 438.847552 305.702052 
L 439.237762 304.79527 
L 439.627972 306.998844 
L 440.018182 305.541387 
L 440.408392 305.920065 
L 440.798601 307.295639 
L 441.579021 304.266405 
L 441.969231 303.439145 
L 442.359441 305.194065 
L 442.74965 304.29871 
L 443.13986 306.302701 
L 443.53007 305.810072 
L 443.92028 307.137586 
L 444.31049 306.439479 
L 444.700699 302.868573 
L 445.090909 306.959737 
L 445.481119 304.029288 
L 445.871329 306.233356 
L 446.261538 305.275162 
L 446.651748 304.884747 
L 447.041958 302.632714 
L 447.432168 305.029707 
L 447.822378 304.883346 
L 448.212587 302.425667 
L 448.602797 303.167158 
L 448.993007 306.581084 
L 449.383217 303.130331 
L 449.773427 306.185775 
L 450.163636 304.393829 
L 450.553846 307.035921 
L 450.944056 302.262477 
L 451.334266 306.046288 
L 451.724476 306.949387 
L 452.114685 306.538984 
L 452.504895 305.786893 
L 452.895105 306.531428 
L 453.285315 302.359852 
L 453.675524 305.968981 
L 454.065734 306.975012 
L 454.455944 305.50788 
L 454.846154 303.041028 
L 455.236364 305.805755 
L 455.626573 304.262609 
L 456.016783 301.141774 
L 456.406993 306.635606 
L 456.797203 306.268067 
L 457.577622 306.909888 
L 457.967832 304.986995 
L 458.358042 307.147048 
L 458.748252 303.283634 
L 459.138462 304.700436 
L 459.528671 306.69137 
L 459.918881 306.751252 
L 460.309091 306.570917 
L 460.699301 306.839896 
L 461.08951 306.124269 
L 461.47972 305.671324 
L 461.86993 306.69002 
L 462.26014 304.503701 
L 462.65035 307.361052 
L 463.040559 302.706586 
L 463.430769 305.616032 
L 463.820979 306.053672 
L 464.211189 306.018372 
L 464.601399 304.01522 
L 464.991608 305.804645 
L 465.381818 304.255067 
L 465.772028 306.364532 
L 466.162238 306.53166 
L 466.552448 305.75084 
L 466.942657 307.499031 
L 467.723077 304.293585 
L 468.113287 306.025041 
L 468.503497 304.59955 
L 468.893706 306.126038 
L 469.283916 306.732592 
L 469.674126 304.518238 
L 470.064336 300.042033 
L 470.844755 307.116857 
L 471.234965 306.742429 
L 471.625175 306.664753 
L 472.015385 304.137175 
L 472.405594 306.896742 
L 472.795804 303.518012 
L 473.186014 302.706155 
L 473.576224 306.862057 
L 473.966434 304.737561 
L 474.356643 304.848886 
L 474.746853 305.670617 
L 475.137063 304.289569 
L 475.527273 305.249202 
L 475.917483 307.202659 
L 476.307692 307.446038 
L 476.697902 302.38601 
L 477.088112 304.77772 
L 477.478322 305.757429 
L 477.868531 305.729215 
L 478.258741 304.45844 
L 478.648951 305.607246 
L 479.039161 306.257108 
L 479.429371 304.634398 
L 479.81958 305.541628 
L 480.20979 305.762628 
L 480.6 303.564175 
L 480.99021 305.607963 
L 481.38042 305.065553 
L 481.770629 305.182303 
L 482.160839 305.510218 
L 482.941259 303.758956 
L 483.331469 306.952949 
L 483.721678 306.617636 
L 484.111888 305.377274 
L 484.502098 307.462559 
L 484.892308 304.616868 
L 485.282517 306.286617 
L 485.672727 305.626468 
L 486.062937 304.014976 
L 486.453147 306.203406 
L 486.843357 304.669764 
L 487.233566 307.053108 
L 487.623776 306.323996 
L 488.013986 306.662534 
L 488.404196 306.733168 
L 488.794406 306.506063 
L 489.574825 305.175507 
L 489.965035 306.083284 
L 490.355245 304.193628 
L 490.745455 304.63658 
L 491.135664 306.947143 
L 491.525874 305.56996 
L 491.916084 305.794625 
L 492.306294 306.676136 
L 492.696503 305.929444 
L 493.086713 305.982595 
L 493.476923 305.533854 
L 493.867133 304.352238 
L 494.257343 305.934995 
L 494.647552 305.67887 
L 495.037762 305.838301 
L 495.427972 304.626562 
L 495.818182 307.31437 
L 496.208392 307.24644 
L 496.598601 306.730712 
L 496.988811 304.727808 
L 497.379021 306.203009 
L 497.769231 306.463088 
L 498.159441 306.10996 
L 498.54965 304.918949 
L 498.93986 299.480207 
L 499.33007 304.956735 
L 499.72028 306.222585 
L 500.11049 306.30154 
L 500.500699 305.942104 
L 500.890909 307.184109 
L 501.281119 304.909312 
L 502.061538 306.927961 
L 502.451748 302.380904 
L 502.841958 306.294285 
L 503.232168 307.431938 
L 503.622378 304.666966 
L 504.012587 303.473256 
L 504.402797 306.290561 
L 505.183217 303.098106 
L 505.573427 305.446136 
L 505.963636 305.351104 
L 506.353846 306.104277 
L 506.744056 302.052754 
L 507.134266 307.180623 
L 507.524476 304.12418 
L 507.914685 305.594796 
L 508.304895 304.928173 
L 508.695105 306.194525 
L 509.085315 305.962066 
L 509.475524 306.881855 
L 509.865734 307.13802 
L 510.255944 306.246029 
L 510.646154 306.860663 
L 511.036364 306.292875 
L 511.426573 304.623294 
L 511.816783 305.133481 
L 512.597203 306.846911 
L 512.987413 306.899449 
L 513.377622 307.238887 
L 513.767832 305.440827 
L 514.158042 307.213419 
L 514.548252 306.476369 
L 514.938462 307.127581 
L 515.328671 305.671856 
L 515.718881 307.042061 
L 516.499301 307.082877 
L 516.88951 306.821389 
L 517.27972 303.655724 
L 517.66993 306.302941 
L 518.06014 306.032048 
L 518.45035 306.238788 
L 518.840559 306.241498 
L 519.230769 306.780255 
L 519.620979 304.466436 
L 520.011189 307.342164 
L 520.401399 305.091369 
L 520.791608 307.188169 
L 521.181818 304.616391 
L 521.572028 306.228574 
L 521.962238 304.774624 
L 522.352448 306.086838 
L 522.742657 304.588535 
L 523.132867 306.117826 
L 523.523077 305.397476 
L 523.913287 306.963608 
L 524.303497 307.172246 
L 524.693706 307.115758 
L 525.083916 306.837056 
L 525.474126 304.425264 
L 525.864336 305.099015 
L 526.254545 304.803352 
L 527.034965 307.062982 
L 527.425175 305.695498 
L 527.815385 305.50436 
L 528.205594 306.844778 
L 528.595804 303.058777 
L 528.986014 305.489955 
L 529.376224 305.453288 
L 529.766434 304.59216 
L 530.156643 306.585643 
L 530.546853 304.956515 
L 530.937063 307.102481 
L 531.327273 307.232373 
L 531.717483 306.721767 
L 532.107692 305.422707 
L 532.497902 306.355472 
L 532.888112 305.508734 
L 533.278322 306.787939 
L 533.668531 307.041788 
L 534.058741 306.751355 
L 534.839161 304.180894 
L 535.229371 306.553149 
L 535.61958 305.099206 
L 536.00979 306.661327 
L 536.4 307.085367 
L 536.79021 305.295327 
L 537.18042 306.139265 
L 537.570629 305.495335 
L 537.960839 306.964198 
L 538.351049 305.094399 
L 538.741259 306.257955 
L 539.131469 303.8129 
L 539.521678 305.701578 
L 540.302098 307.275861 
L 540.692308 307.036646 
L 541.082517 306.234728 
L 541.472727 305.034111 
L 541.862937 305.541483 
L 542.253147 306.823036 
L 542.643357 305.660912 
L 543.423776 306.410041 
L 543.813986 306.142103 
L 544.204196 307.288192 
L 544.594406 305.928162 
L 544.984615 306.285208 
L 545.374825 306.02186 
L 545.765035 306.573302 
L 546.155245 306.825759 
L 546.545455 306.567629 
L 546.935664 307.5871 
L 547.325874 303.275554 
L 547.716084 303.332459 
L 548.106294 307.015097 
L 548.496503 304.933443 
L 548.886713 306.056059 
L 549.276923 306.249138 
L 549.667133 306.789944 
L 550.057343 306.146535 
L 550.837762 307.109804 
L 551.227972 306.669064 
L 551.618182 304.687401 
L 552.008392 306.358372 
L 552.398601 305.60751 
L 552.788811 306.254522 
L 553.179021 306.489129 
L 553.569231 307.340151 
L 553.959441 305.870009 
L 554.34965 306.797597 
L 555.13007 304.94934 
L 555.52028 305.557597 
L 555.91049 307.591885 
L 556.300699 306.643752 
L 556.690909 305.308144 
L 557.471329 307.096996 
L 557.861538 303.849123 
L 558.251748 307.345335 
L 558.641958 305.815472 
L 559.032168 307.065661 
L 559.422378 306.055593 
L 559.812587 306.390833 
L 560.202797 304.518122 
L 560.593007 305.500917 
L 560.983217 306.038359 
L 561.373427 306.255202 
L 561.763636 305.198348 
L 562.153846 306.219904 
L 562.544056 305.040344 
L 562.934266 304.840329 
L 563.324476 307.185163 
L 563.714685 305.867249 
L 564.104895 306.590968 
L 564.495105 305.444789 
L 564.885315 306.731697 
L 565.275524 306.256063 
L 566.055944 307.196892 
L 566.446154 304.498718 
L 566.836364 305.078712 
L 567.226573 307.273493 
L 567.616783 306.827211 
L 568.006993 306.599162 
L 568.397203 306.974341 
L 568.787413 305.197667 
L 569.177622 304.223043 
L 569.567832 307.426884 
L 569.958042 306.77915 
L 570.348252 306.8314 
L 570.738462 306.210989 
L 571.128671 307.214377 
L 571.518881 304.487429 
L 571.909091 304.571778 
L 572.299301 304.075378 
L 572.68951 305.672559 
L 573.07972 306.095258 
L 573.46993 307.248414 
L 573.86014 303.561671 
L 574.25035 306.579607 
L 574.640559 305.528246 
L 575.030769 306.717861 
L 575.420979 306.752258 
L 575.811189 304.560026 
L 576.201399 306.154169 
L 576.591608 305.780407 
L 576.981818 303.813199 
L 577.372028 305.935189 
L 578.152448 307.390119 
L 578.542657 306.73069 
L 578.932867 303.697999 
L 579.323077 306.313236 
L 579.713287 306.874641 
L 580.103497 306.993607 
L 580.493706 305.138216 
L 580.883916 307.023327 
L 581.664336 307.673473 
L 582.054545 307.300562 
L 582.444755 306.077529 
L 582.834965 307.739628 
L 583.225175 304.897999 
L 583.615385 306.585891 
L 584.005594 306.60836 
L 584.395804 307.605381 
L 584.786014 307.094527 
L 585.176224 305.562122 
L 585.566434 307.096233 
L 585.956643 305.25052 
L 586.346853 307.065259 
L 586.737063 306.070549 
L 587.127273 306.41655 
L 587.517483 307.137276 
L 587.907692 301.733136 
L 588.297902 307.358174 
L 588.688112 307.236635 
L 589.078322 306.882793 
L 589.468531 307.018606 
L 589.858741 304.153577 
L 590.248951 306.631511 
L 590.639161 303.797739 
L 591.029371 306.410438 
L 591.41958 307.071331 
L 591.80979 305.142538 
L 592.2 305.384162 
L 592.59021 304.595983 
L 592.98042 307.708833 
L 593.370629 306.680143 
L 593.760839 305.254068 
L 594.151049 307.401576 
L 594.541259 306.783672 
L 594.931469 305.792208 
L 595.321678 306.839771 
L 595.711888 306.598998 
L 596.102098 307.252059 
L 596.492308 306.149666 
L 596.882517 305.795513 
L 597.272727 307.696002 
L 597.662937 306.493664 
L 598.053147 306.130453 
L 598.443357 306.387954 
L 598.833566 304.813688 
L 599.223776 307.444 
L 599.613986 306.758849 
L 600.004196 305.371213 
L 600.394406 305.745387 
L 600.784615 307.066346 
L 601.174825 305.692621 
L 601.565035 307.245727 
L 601.955245 306.413844 
L 602.345455 307.8 
L 602.735664 306.367579 
L 603.516084 302.31049 
L 603.906294 306.352442 
L 604.296503 305.933627 
L 605.076923 306.582356 
L 605.467133 306.28642 
L 605.857343 304.628441 
L 606.247552 307.679915 
L 606.637762 307.414674 
L 607.027972 304.893874 
L 607.808392 305.910021 
L 608.198601 306.967485 
L 608.588811 304.60939 
L 608.979021 305.999486 
L 609.369231 305.461294 
L 609.759441 306.780814 
L 610.53986 307.603566 
L 610.93007 307.28267 
L 611.32028 306.075123 
L 611.71049 306.13707 
L 612.100699 304.112983 
L 612.490909 306.401343 
L 612.881119 306.991322 
L 613.271329 307.215834 
L 613.661538 305.189879 
L 614.051748 306.699441 
L 614.441958 307.470056 
L 614.832168 306.282267 
L 615.222378 307.131875 
L 615.612587 303.633793 
L 616.002797 305.866482 
L 616.393007 306.776249 
L 616.783217 307.234638 
L 617.173427 305.878405 
L 617.563636 306.82657 
L 617.953846 306.739378 
L 619.124476 304.580221 
L 619.514685 306.774464 
L 619.904895 306.87823 
L 620.295105 305.10625 
L 620.685315 306.489274 
L 621.075524 307.092289 
L 621.465734 307.263331 
L 622.246154 306.211581 
L 622.636364 307.305216 
L 622.636364 307.305216 
" clip-path="url(#p29434a74a0)" style="fill: none; stroke: #1f77b4; stroke-width: 1.5; stroke-linecap: square"/>
   </g>
   <g id="patch_3">
    <path d="M 90 320.4 
L 90 43.2 
" style="fill: none; stroke: #000000; stroke-width: 0.8; stroke-linejoin: miter; stroke-linecap: square"/>
   </g>
   <g id="patch_4">
    <path d="M 648 320.4 
L 648 43.2 
" style="fill: none; stroke: #000000; stroke-width: 0.8; stroke-linejoin: miter; stroke-linecap: square"/>
   </g>
   <g id="patch_5">
    <path d="M 90 320.4 
L 648 320.4 
" style="fill: none; stroke: #000000; stroke-width: 0.8; stroke-linejoin: miter; stroke-linecap: square"/>
   </g>
   <g id="patch_6">
    <path d="M 90 43.2 
L 648 43.2 
" style="fill: none; stroke: #000000; stroke-width: 0.8; stroke-linejoin: miter; stroke-linecap: square"/>
   </g>
   <g id="legend_1">
    <g id="patch_7">
     <path d="M 97 65.878125 
L 148.315625 65.878125 
Q 150.315625 65.878125 150.315625 63.878125 
L 150.315625 50.2 
Q 150.315625 48.2 148.315625 48.2 
L 97 48.2 
Q 95 48.2 95 50.2 
L 95 63.878125 
Q 95 65.878125 97 65.878125 
z
" style="fill: #ffffff; opacity: 0.8; stroke: #cccccc; stroke-linejoin: miter"/>
    </g>
    <g id="line2d_14">
     <path d="M 99 56.298437 
L 109 56.298437 
L 119 56.298437 
" style="fill: none; stroke: #1f77b4; stroke-width: 1.5; stroke-linecap: square"/>
    </g>
    <g id="text_15">
     <!-- loss -->
     <g transform="translate(127 59.798437) scale(0.1 -0.1)">
      <use xlink:href="#DejaVuSans-6c"/>
      <use xlink:href="#DejaVuSans-6f" x="27.783203"/>
      <use xlink:href="#DejaVuSans-73" x="88.964844"/>
      <use xlink:href="#DejaVuSans-73" x="141.064453"/>
     </g>
    </g>
   </g>
  </g>
  <g id="axes_2">
   <g id="matplotlib.axis_3">
    <g id="ytick_6">
     <g id="line2d_15">
      <defs>
       <path id="mda22748d0d" d="M 0 0 
L 3.5 0 
" style="stroke: #000000; stroke-width: 0.8"/>
      </defs>
      <g>
       <use xlink:href="#mda22748d0d" x="648" y="298.952542" style="stroke: #000000; stroke-width: 0.8"/>
      </g>
     </g>
     <g id="text_16">
      <!-- 0.2 -->
      <g transform="translate(655 302.751761) scale(0.1 -0.1)">
       <use xlink:href="#DejaVuSans-30"/>
       <use xlink:href="#DejaVuSans-2e" x="63.623047"/>
       <use xlink:href="#DejaVuSans-32" x="95.410156"/>
      </g>
     </g>
    </g>
    <g id="ytick_7">
     <g id="line2d_16">
      <g>
       <use xlink:href="#mda22748d0d" x="648" y="237.935593" style="stroke: #000000; stroke-width: 0.8"/>
      </g>
     </g>
     <g id="text_17">
      <!-- 0.4 -->
      <g transform="translate(655 241.734812) scale(0.1 -0.1)">
       <use xlink:href="#DejaVuSans-30"/>
       <use xlink:href="#DejaVuSans-2e" x="63.623047"/>
       <use xlink:href="#DejaVuSans-34" x="95.410156"/>
      </g>
     </g>
    </g>
    <g id="ytick_8">
     <g id="line2d_17">
      <g>
       <use xlink:href="#mda22748d0d" x="648" y="176.918644" style="stroke: #000000; stroke-width: 0.8"/>
      </g>
     </g>
     <g id="text_18">
      <!-- 0.6 -->
      <g transform="translate(655 180.717863) scale(0.1 -0.1)">
       <use xlink:href="#DejaVuSans-30"/>
       <use xlink:href="#DejaVuSans-2e" x="63.623047"/>
       <use xlink:href="#DejaVuSans-36" x="95.410156"/>
      </g>
     </g>
    </g>
    <g id="ytick_9">
     <g id="line2d_18">
      <g>
       <use xlink:href="#mda22748d0d" x="648" y="115.901695" style="stroke: #000000; stroke-width: 0.8"/>
      </g>
     </g>
     <g id="text_19">
      <!-- 0.8 -->
      <g transform="translate(655 119.700914) scale(0.1 -0.1)">
       <use xlink:href="#DejaVuSans-30"/>
       <use xlink:href="#DejaVuSans-2e" x="63.623047"/>
       <use xlink:href="#DejaVuSans-38" x="95.410156"/>
      </g>
     </g>
    </g>
    <g id="ytick_10">
     <g id="line2d_19">
      <g>
       <use xlink:href="#mda22748d0d" x="648" y="54.884746" style="stroke: #000000; stroke-width: 0.8"/>
      </g>
     </g>
     <g id="text_20">
      <!-- 1.0 -->
      <g transform="translate(655 58.683965) scale(0.1 -0.1)">
       <use xlink:href="#DejaVuSans-31"/>
       <use xlink:href="#DejaVuSans-2e" x="63.623047"/>
       <use xlink:href="#DejaVuSans-30" x="95.410156"/>
      </g>
     </g>
    </g>
    <g id="text_21">
     <!-- accuracy -->
     <g transform="translate(682.501563 204.359375) rotate(-90) scale(0.1 -0.1)">
      <defs>
       <path id="DejaVuSans-75" d="M 544 1381 
L 544 3500 
L 1119 3500 
L 1119 1403 
Q 1119 906 1312 657 
Q 1506 409 1894 409 
Q 2359 409 2629 706 
Q 2900 1003 2900 1516 
L 2900 3500 
L 3475 3500 
L 3475 0 
L 2900 0 
L 2900 538 
Q 2691 219 2414 64 
Q 2138 -91 1772 -91 
Q 1169 -91 856 284 
Q 544 659 544 1381 
z
M 1991 3584 
L 1991 3584 
z
" transform="scale(0.015625)"/>
       <path id="DejaVuSans-72" d="M 2631 2963 
Q 2534 3019 2420 3045 
Q 2306 3072 2169 3072 
Q 1681 3072 1420 2755 
Q 1159 2438 1159 1844 
L 1159 0 
L 581 0 
L 581 3500 
L 1159 3500 
L 1159 2956 
Q 1341 3275 1631 3429 
Q 1922 3584 2338 3584 
Q 2397 3584 2469 3576 
Q 2541 3569 2628 3553 
L 2631 2963 
z
" transform="scale(0.015625)"/>
       <path id="DejaVuSans-79" d="M 2059 -325 
Q 1816 -950 1584 -1140 
Q 1353 -1331 966 -1331 
L 506 -1331 
L 506 -850 
L 844 -850 
Q 1081 -850 1212 -737 
Q 1344 -625 1503 -206 
L 1606 56 
L 191 3500 
L 800 3500 
L 1894 763 
L 2988 3500 
L 3597 3500 
L 2059 -325 
z
" transform="scale(0.015625)"/>
      </defs>
      <use xlink:href="#DejaVuSans-61"/>
      <use xlink:href="#DejaVuSans-63" x="61.279297"/>
      <use xlink:href="#DejaVuSans-63" x="116.259766"/>
      <use xlink:href="#DejaVuSans-75" x="171.240234"/>
      <use xlink:href="#DejaVuSans-72" x="234.619141"/>
      <use xlink:href="#DejaVuSans-61" x="275.732422"/>
      <use xlink:href="#DejaVuSans-63" x="337.011719"/>
      <use xlink:href="#DejaVuSans-79" x="391.992188"/>
     </g>
    </g>
   </g>
   <g id="line2d_20">
    <path d="M 115.363636 307.8 
L 115.753846 273.325424 
L 116.144056 254.715254 
L 117.314685 168.071186 
L 118.095105 136.037288 
L 118.485315 124.444068 
L 118.875524 104.613559 
L 119.265734 96.071186 
L 119.655944 93.935593 
L 120.046154 87.833898 
L 120.436364 89.054237 
L 120.826573 83.562712 
L 121.216783 82.037288 
L 121.606993 76.850847 
L 121.997203 75.630508 
L 122.387413 72.579661 
L 122.777622 71.054237 
L 123.167832 74.410169 
L 123.558042 70.749153 
L 123.948252 71.969492 
L 124.338462 71.969492 
L 124.728671 70.138983 
L 125.509091 68.308475 
L 125.899301 67.698305 
L 126.28951 63.122034 
L 126.67972 66.477966 
L 127.06993 68.308475 
L 127.46014 68.613559 
L 127.85035 67.088136 
L 128.240559 66.477966 
L 128.630769 66.783051 
L 129.020979 65.257627 
L 129.411189 66.477966 
L 129.801399 65.257627 
L 130.191608 66.172881 
L 130.581818 62.20678 
L 130.972028 65.257627 
L 131.362238 63.732203 
L 131.752448 64.342373 
L 132.142657 62.816949 
L 132.532867 65.867797 
L 132.923077 62.20678 
L 133.313287 63.122034 
L 133.703497 61.901695 
L 134.093706 63.122034 
L 134.483916 62.20678 
L 134.874126 65.257627 
L 135.264336 61.901695 
L 135.654545 63.732203 
L 136.044755 64.037288 
L 136.434965 63.427119 
L 136.825175 62.511864 
L 137.215385 62.20678 
L 137.605594 60.376271 
L 137.995804 60.681356 
L 138.386014 60.681356 
L 138.776224 59.766102 
L 139.166434 63.122034 
L 139.556643 63.122034 
L 139.946853 61.59661 
L 140.337063 63.122034 
L 140.727273 59.766102 
L 141.507692 65.562712 
L 142.288112 63.427119 
L 142.678322 60.986441 
L 143.068531 63.122034 
L 143.458741 63.122034 
L 143.848951 60.681356 
L 144.239161 64.952542 
L 144.629371 60.986441 
L 145.01958 60.681356 
L 145.40979 60.986441 
L 145.8 63.732203 
L 146.19021 59.766102 
L 146.58042 59.461017 
L 146.970629 60.376271 
L 147.751049 61.59661 
L 148.141259 61.291525 
L 148.531469 62.20678 
L 148.921678 62.511864 
L 149.311888 62.511864 
L 149.702098 60.376271 
L 150.092308 61.901695 
L 150.482517 62.511864 
L 151.262937 63.122034 
L 151.653147 61.59661 
L 152.043357 62.20678 
L 152.433566 61.901695 
L 152.823776 63.122034 
L 153.213986 59.766102 
L 153.604196 60.376271 
L 154.384615 62.20678 
L 154.774825 60.681356 
L 155.165035 63.122034 
L 155.555245 62.511864 
L 155.945455 62.20678 
L 156.335664 60.376271 
L 156.725874 60.071186 
L 157.116084 62.20678 
L 157.506294 61.291525 
L 157.896503 59.155932 
L 158.286713 60.681356 
L 158.676923 63.732203 
L 159.067133 59.766102 
L 159.457343 58.850847 
L 159.847552 60.986441 
L 160.237762 61.291525 
L 160.627972 62.511864 
L 161.018182 62.816949 
L 161.408392 60.986441 
L 161.798601 60.071186 
L 162.188811 59.766102 
L 162.579021 61.59661 
L 163.359441 60.986441 
L 163.74965 63.427119 
L 164.13986 60.986441 
L 164.53007 60.986441 
L 164.92028 60.681356 
L 165.31049 61.59661 
L 165.700699 61.901695 
L 166.090909 59.766102 
L 166.481119 62.816949 
L 166.871329 57.935593 
L 167.261538 61.59661 
L 167.651748 62.20678 
L 168.041958 60.376271 
L 168.432168 59.766102 
L 168.822378 60.376271 
L 169.212587 59.766102 
L 169.602797 60.681356 
L 169.993007 60.681356 
L 170.383217 60.986441 
L 170.773427 62.816949 
L 171.163636 61.901695 
L 171.553846 59.766102 
L 171.944056 58.850847 
L 172.334266 60.986441 
L 173.114685 62.20678 
L 173.504895 61.59661 
L 173.895105 64.037288 
L 174.285315 60.986441 
L 174.675524 60.986441 
L 175.065734 62.20678 
L 175.455944 62.20678 
L 175.846154 61.901695 
L 176.236364 60.071186 
L 176.626573 61.291525 
L 177.016783 61.291525 
L 177.406993 58.850847 
L 177.797203 61.59661 
L 178.187413 59.766102 
L 178.577622 59.155932 
L 178.967832 60.376271 
L 179.358042 60.681356 
L 179.748252 61.59661 
L 180.138462 62.20678 
L 180.528671 60.376271 
L 181.309091 62.511864 
L 181.699301 61.59661 
L 182.08951 61.59661 
L 182.47972 60.681356 
L 182.86993 60.986441 
L 183.26014 59.766102 
L 183.65035 61.291525 
L 184.040559 59.461017 
L 184.430769 62.20678 
L 184.820979 63.122034 
L 185.211189 60.986441 
L 185.601399 62.511864 
L 185.991608 59.155932 
L 186.381818 60.681356 
L 186.772028 60.376271 
L 187.162238 61.59661 
L 187.552448 61.901695 
L 187.942657 61.59661 
L 188.332867 60.986441 
L 188.723077 58.240678 
L 189.113287 61.291525 
L 189.503497 60.681356 
L 189.893706 59.766102 
L 190.283916 59.461017 
L 190.674126 60.986441 
L 191.064336 60.376271 
L 191.454545 60.681356 
L 191.844755 62.20678 
L 192.234965 60.681356 
L 192.625175 60.681356 
L 193.015385 61.901695 
L 193.405594 60.681356 
L 194.186014 59.461017 
L 194.576224 60.681356 
L 194.966434 60.071186 
L 195.356643 62.511864 
L 195.746853 62.511864 
L 196.137063 60.986441 
L 196.527273 60.681356 
L 196.917483 61.59661 
L 197.307692 60.376271 
L 197.697902 60.986441 
L 198.088112 60.376271 
L 198.478322 61.59661 
L 198.868531 58.240678 
L 199.258741 60.376271 
L 200.039161 59.766102 
L 200.429371 58.240678 
L 200.81958 59.766102 
L 201.20979 60.681356 
L 201.6 60.986441 
L 201.99021 60.681356 
L 202.38042 60.681356 
L 202.770629 61.901695 
L 203.160839 59.766102 
L 203.551049 59.461017 
L 203.941259 60.071186 
L 204.331469 63.732203 
L 204.721678 60.071186 
L 205.111888 61.901695 
L 205.502098 61.901695 
L 205.892308 61.291525 
L 206.282517 60.986441 
L 206.672727 61.59661 
L 207.062937 60.376271 
L 207.453147 60.071186 
L 207.843357 62.20678 
L 208.233566 59.461017 
L 208.623776 61.901695 
L 209.013986 59.766102 
L 209.404196 60.681356 
L 209.794406 60.986441 
L 210.184615 61.59661 
L 210.574825 58.850847 
L 210.965035 59.461017 
L 211.355245 61.291525 
L 211.745455 59.461017 
L 212.135664 60.071186 
L 212.525874 58.240678 
L 212.916084 60.071186 
L 213.306294 60.376271 
L 213.696503 60.376271 
L 214.086713 60.071186 
L 214.476923 60.071186 
L 214.867133 60.681356 
L 215.257343 61.59661 
L 215.647552 62.816949 
L 216.037762 59.155932 
L 216.427972 58.850847 
L 216.818182 57.325424 
L 217.598601 60.681356 
L 217.988811 59.155932 
L 218.379021 60.071186 
L 218.769231 61.291525 
L 219.159441 60.986441 
L 219.54965 59.766102 
L 219.93986 59.766102 
L 220.33007 60.071186 
L 220.72028 59.461017 
L 221.11049 59.155932 
L 221.500699 60.071186 
L 221.890909 60.071186 
L 222.281119 62.20678 
L 222.671329 58.850847 
L 223.061538 57.935593 
L 223.451748 60.376271 
L 223.841958 60.376271 
L 224.232168 59.461017 
L 224.622378 61.59661 
L 225.012587 59.766102 
L 225.402797 60.986441 
L 225.793007 60.986441 
L 226.183217 60.681356 
L 226.573427 60.681356 
L 226.963636 60.376271 
L 227.353846 59.766102 
L 227.744056 60.681356 
L 228.134266 60.376271 
L 228.524476 60.986441 
L 228.914685 57.630508 
L 229.304895 60.376271 
L 229.695105 60.071186 
L 230.085315 60.986441 
L 230.475524 60.071186 
L 230.865734 60.071186 
L 231.255944 58.850847 
L 231.646154 60.986441 
L 232.036364 61.59661 
L 232.426573 60.071186 
L 232.816783 61.291525 
L 233.206993 61.291525 
L 233.597203 61.901695 
L 234.377622 58.545763 
L 234.767832 61.291525 
L 235.158042 60.376271 
L 235.548252 61.291525 
L 235.938462 60.071186 
L 236.328671 61.291525 
L 236.718881 59.766102 
L 237.109091 60.376271 
L 237.499301 61.291525 
L 237.88951 58.850847 
L 238.27972 61.59661 
L 238.66993 60.071186 
L 239.06014 60.376271 
L 239.45035 58.545763 
L 239.840559 61.901695 
L 240.230769 61.291525 
L 240.620979 61.291525 
L 241.011189 60.376271 
L 241.401399 58.240678 
L 242.181818 60.986441 
L 242.572028 59.766102 
L 242.962238 60.376271 
L 243.352448 60.071186 
L 243.742657 60.071186 
L 244.523077 60.681356 
L 244.913287 59.155932 
L 245.693706 59.155932 
L 246.083916 59.766102 
L 246.474126 60.071186 
L 246.864336 62.816949 
L 247.254545 60.376271 
L 247.644755 60.986441 
L 248.034965 58.545763 
L 248.425175 60.071186 
L 248.815385 60.376271 
L 249.205594 59.155932 
L 249.595804 59.766102 
L 249.986014 61.291525 
L 250.376224 60.681356 
L 250.766434 59.766102 
L 251.156643 58.545763 
L 251.546853 61.291525 
L 252.327273 58.545763 
L 252.717483 60.071186 
L 253.107692 62.20678 
L 253.497902 61.901695 
L 253.888112 59.155932 
L 254.278322 59.766102 
L 254.668531 61.59661 
L 255.058741 60.071186 
L 255.448951 60.071186 
L 255.839161 62.816949 
L 256.61958 57.325424 
L 257.00979 62.20678 
L 257.4 61.291525 
L 257.79021 58.545763 
L 258.18042 61.59661 
L 258.570629 60.376271 
L 258.960839 58.545763 
L 259.351049 60.681356 
L 259.741259 60.376271 
L 260.131469 60.681356 
L 260.521678 59.155932 
L 260.911888 59.766102 
L 261.302098 60.071186 
L 261.692308 57.630508 
L 262.082517 60.986441 
L 262.472727 59.155932 
L 262.862937 58.850847 
L 263.253147 58.850847 
L 263.643357 60.071186 
L 264.033566 59.155932 
L 264.813986 63.732203 
L 265.204196 59.461017 
L 265.594406 58.850847 
L 265.984615 58.545763 
L 266.374825 60.681356 
L 266.765035 60.681356 
L 267.155245 62.20678 
L 267.935664 58.545763 
L 268.325874 58.240678 
L 268.716084 60.376271 
L 269.106294 60.071186 
L 269.496503 57.630508 
L 269.886713 59.155932 
L 270.276923 59.155932 
L 270.667133 59.461017 
L 271.057343 59.155932 
L 271.447552 60.681356 
L 271.837762 60.681356 
L 272.227972 62.20678 
L 272.618182 61.291525 
L 273.008392 60.681356 
L 273.788811 58.850847 
L 274.179021 61.59661 
L 274.569231 59.461017 
L 274.959441 59.155932 
L 275.34965 60.376271 
L 276.13007 58.545763 
L 276.52028 60.986441 
L 276.91049 61.59661 
L 277.300699 59.155932 
L 277.690909 58.545763 
L 278.081119 61.291525 
L 278.471329 60.681356 
L 278.861538 58.545763 
L 279.251748 59.766102 
L 279.641958 58.240678 
L 280.032168 60.071186 
L 280.422378 59.766102 
L 280.812587 61.291525 
L 281.202797 60.376271 
L 281.593007 60.071186 
L 281.983217 61.59661 
L 282.373427 60.681356 
L 282.763636 60.071186 
L 283.153846 58.850847 
L 283.544056 60.071186 
L 284.324476 60.071186 
L 284.714685 60.681356 
L 285.104895 59.461017 
L 285.495105 60.681356 
L 285.885315 58.545763 
L 286.275524 59.155932 
L 286.665734 60.681356 
L 287.055944 59.155932 
L 287.446154 60.071186 
L 287.836364 59.155932 
L 288.226573 59.155932 
L 288.616783 60.681356 
L 289.006993 60.376271 
L 289.397203 59.461017 
L 289.787413 57.630508 
L 290.177622 57.630508 
L 290.567832 59.155932 
L 290.958042 59.766102 
L 291.348252 59.766102 
L 291.738462 59.461017 
L 292.128671 58.850847 
L 292.518881 62.20678 
L 292.909091 58.545763 
L 293.68951 60.681356 
L 294.07972 58.545763 
L 294.46993 60.071186 
L 294.86014 60.071186 
L 295.25035 61.901695 
L 295.640559 57.935593 
L 296.030769 58.240678 
L 296.420979 61.59661 
L 296.811189 59.461017 
L 297.201399 58.545763 
L 297.981818 58.545763 
L 298.372028 63.427119 
L 298.762238 58.545763 
L 299.152448 60.071186 
L 299.542657 58.850847 
L 299.932867 62.511864 
L 300.323077 60.986441 
L 300.713287 61.59661 
L 301.103497 59.766102 
L 301.493706 58.545763 
L 301.883916 58.545763 
L 302.274126 60.681356 
L 302.664336 59.766102 
L 303.054545 60.376271 
L 303.834965 59.766102 
L 304.225175 57.325424 
L 304.615385 59.766102 
L 305.005594 58.240678 
L 305.395804 58.850847 
L 305.786014 61.901695 
L 306.176224 59.155932 
L 306.566434 58.545763 
L 306.956643 59.766102 
L 307.346853 60.071186 
L 307.737063 60.681356 
L 308.517483 59.461017 
L 308.907692 59.766102 
L 309.297902 60.986441 
L 309.688112 58.850847 
L 310.078322 58.545763 
L 310.468531 59.155932 
L 310.858741 62.20678 
L 311.639161 58.850847 
L 312.029371 62.20678 
L 312.41958 58.850847 
L 312.80979 61.59661 
L 313.2 59.766102 
L 313.98042 59.155932 
L 314.370629 60.376271 
L 314.760839 60.681356 
L 315.151049 58.850847 
L 315.541259 59.155932 
L 315.931469 59.766102 
L 316.321678 61.291525 
L 316.711888 58.240678 
L 317.492308 60.071186 
L 317.882517 58.545763 
L 318.272727 58.545763 
L 318.662937 58.850847 
L 319.053147 60.376271 
L 319.443357 61.291525 
L 319.833566 60.071186 
L 320.223776 59.461017 
L 320.613986 57.630508 
L 321.004196 58.850847 
L 321.394406 58.850847 
L 321.784615 58.240678 
L 322.174825 58.240678 
L 322.565035 60.376271 
L 322.955245 59.461017 
L 323.345455 58.850847 
L 323.735664 60.376271 
L 324.516084 60.376271 
L 324.906294 60.986441 
L 325.296503 60.071186 
L 325.686713 59.461017 
L 326.076923 60.681356 
L 326.467133 59.461017 
L 326.857343 58.850847 
L 327.247552 60.376271 
L 327.637762 58.850847 
L 328.027972 58.850847 
L 328.418182 58.545763 
L 328.808392 58.545763 
L 329.198601 60.376271 
L 329.588811 59.155932 
L 329.979021 60.071186 
L 330.369231 59.461017 
L 330.759441 59.766102 
L 331.14965 58.850847 
L 331.53986 60.376271 
L 331.93007 57.630508 
L 332.32028 57.935593 
L 332.71049 60.681356 
L 333.100699 59.155932 
L 333.490909 58.545763 
L 333.881119 60.681356 
L 334.271329 58.545763 
L 334.661538 60.681356 
L 335.051748 59.766102 
L 335.441958 59.155932 
L 335.832168 57.935593 
L 336.612587 57.935593 
L 337.002797 58.240678 
L 337.393007 57.935593 
L 337.783217 55.8 
L 338.173427 59.155932 
L 338.563636 60.071186 
L 338.953846 60.681356 
L 339.344056 62.20678 
L 339.734266 59.155932 
L 340.124476 59.155932 
L 340.904895 58.545763 
L 341.295105 59.461017 
L 341.685315 57.935593 
L 342.075524 57.935593 
L 342.855944 59.766102 
L 343.246154 58.850847 
L 343.636364 56.715254 
L 344.026573 59.766102 
L 344.416783 56.715254 
L 344.806993 58.545763 
L 345.197203 58.240678 
L 345.587413 56.715254 
L 345.977622 60.986441 
L 346.367832 59.461017 
L 346.758042 59.155932 
L 347.538462 57.935593 
L 347.928671 60.071186 
L 348.318881 60.376271 
L 348.709091 57.325424 
L 349.099301 58.850847 
L 349.48951 58.545763 
L 349.87972 61.291525 
L 350.26993 60.986441 
L 350.66014 60.071186 
L 351.05035 58.850847 
L 351.440559 59.766102 
L 351.830769 59.461017 
L 352.220979 59.766102 
L 353.001399 58.545763 
L 353.391608 60.071186 
L 353.781818 59.461017 
L 354.172028 58.545763 
L 354.562238 60.071186 
L 354.952448 58.240678 
L 355.342657 57.935593 
L 355.732867 57.935593 
L 356.123077 58.850847 
L 356.513287 58.240678 
L 356.903497 60.376271 
L 357.293706 59.461017 
L 358.074126 60.681356 
L 358.464336 59.766102 
L 358.854545 58.545763 
L 359.244755 57.935593 
L 359.634965 59.766102 
L 360.025175 57.630508 
L 360.415385 61.59661 
L 360.805594 62.20678 
L 361.195804 59.155932 
L 361.586014 57.325424 
L 361.976224 59.766102 
L 362.366434 60.681356 
L 363.146853 57.935593 
L 363.537063 59.461017 
L 364.317483 59.461017 
L 364.707692 60.681356 
L 365.097902 60.681356 
L 365.488112 61.59661 
L 365.878322 60.681356 
L 366.268531 59.155932 
L 366.658741 60.071186 
L 367.048951 59.155932 
L 367.439161 60.986441 
L 367.829371 58.240678 
L 368.21958 58.240678 
L 368.60979 57.325424 
L 369 59.461017 
L 369.39021 58.545763 
L 369.78042 59.461017 
L 370.170629 59.461017 
L 370.560839 59.766102 
L 370.951049 60.986441 
L 371.341259 58.240678 
L 371.731469 60.071186 
L 372.121678 60.986441 
L 372.511888 58.545763 
L 372.902098 60.681356 
L 373.292308 59.766102 
L 373.682517 60.376271 
L 374.072727 59.461017 
L 374.462937 57.325424 
L 374.853147 57.630508 
L 375.243357 60.681356 
L 375.633566 57.935593 
L 376.023776 59.766102 
L 376.413986 59.766102 
L 376.804196 59.461017 
L 377.194406 59.461017 
L 378.365035 60.376271 
L 378.755245 61.291525 
L 379.145455 59.155932 
L 379.535664 58.545763 
L 379.925874 61.291525 
L 380.706294 57.325424 
L 381.096503 57.935593 
L 381.486713 59.461017 
L 381.876923 59.461017 
L 382.267133 60.681356 
L 382.657343 58.850847 
L 383.437762 58.240678 
L 383.827972 60.376271 
L 384.218182 58.850847 
L 384.608392 58.850847 
L 384.998601 59.155932 
L 385.388811 60.681356 
L 385.779021 60.071186 
L 386.169231 59.766102 
L 386.559441 60.986441 
L 386.94965 59.461017 
L 387.33986 61.901695 
L 387.73007 59.461017 
L 388.12028 60.376271 
L 388.51049 58.545763 
L 388.900699 61.291525 
L 389.290909 58.240678 
L 389.681119 59.766102 
L 390.071329 59.155932 
L 390.461538 60.071186 
L 390.851748 60.376271 
L 391.241958 58.850847 
L 391.632168 59.155932 
L 392.022378 60.376271 
L 392.412587 59.461017 
L 392.802797 60.376271 
L 393.193007 57.630508 
L 393.583217 60.681356 
L 393.973427 61.59661 
L 394.363636 58.850847 
L 394.753846 59.461017 
L 395.534266 60.071186 
L 395.924476 59.461017 
L 396.314685 62.511864 
L 396.704895 60.986441 
L 397.095105 60.376271 
L 397.485315 58.240678 
L 398.265734 60.986441 
L 399.046154 58.240678 
L 399.436364 58.240678 
L 399.826573 59.766102 
L 400.216783 59.155932 
L 400.606993 59.766102 
L 400.997203 57.630508 
L 401.387413 59.766102 
L 401.777622 60.376271 
L 402.558042 60.376271 
L 402.948252 59.766102 
L 403.338462 60.986441 
L 403.728671 58.240678 
L 404.118881 59.155932 
L 404.509091 59.461017 
L 404.899301 60.681356 
L 405.28951 60.376271 
L 405.67972 59.155932 
L 406.06993 60.986441 
L 406.46014 58.545763 
L 406.85035 58.545763 
L 407.240559 59.461017 
L 407.630769 57.935593 
L 408.020979 60.071186 
L 408.411189 60.376271 
L 409.191608 57.325424 
L 409.581818 59.461017 
L 409.972028 60.376271 
L 410.362238 61.901695 
L 410.752448 60.071186 
L 411.142657 59.766102 
L 411.532867 59.155932 
L 411.923077 59.155932 
L 412.313287 60.681356 
L 412.703497 57.325424 
L 413.093706 59.155932 
L 413.483916 60.376271 
L 413.874126 60.071186 
L 414.264336 59.155932 
L 414.654545 59.766102 
L 415.044755 58.850847 
L 415.434965 59.766102 
L 415.825175 60.071186 
L 416.215385 60.071186 
L 416.605594 59.766102 
L 416.995804 61.59661 
L 417.776224 58.850847 
L 418.166434 59.766102 
L 418.556643 58.545763 
L 418.946853 58.850847 
L 419.337063 59.766102 
L 419.727273 58.545763 
L 420.117483 58.240678 
L 420.507692 60.986441 
L 420.897902 61.901695 
L 421.288112 60.986441 
L 421.678322 59.461017 
L 422.068531 59.766102 
L 422.458741 59.766102 
L 422.848951 57.935593 
L 423.239161 58.240678 
L 423.629371 59.461017 
L 424.01958 60.071186 
L 424.40979 57.935593 
L 424.8 58.240678 
L 425.19021 60.376271 
L 425.58042 60.071186 
L 425.970629 58.545763 
L 426.360839 59.155932 
L 426.751049 60.376271 
L 427.141259 59.766102 
L 427.531469 57.935593 
L 427.921678 57.935593 
L 428.311888 59.766102 
L 428.702098 57.935593 
L 429.092308 60.071186 
L 429.482517 59.461017 
L 429.872727 62.20678 
L 430.262937 59.461017 
L 430.653147 60.681356 
L 431.043357 59.461017 
L 431.433566 59.766102 
L 431.823776 58.545763 
L 432.213986 59.461017 
L 432.604196 60.071186 
L 432.994406 61.291525 
L 433.774825 58.545763 
L 434.165035 59.461017 
L 434.555245 57.935593 
L 434.945455 61.59661 
L 435.335664 58.545763 
L 435.725874 59.155932 
L 436.116084 61.59661 
L 436.506294 59.155932 
L 436.896503 58.850847 
L 437.286713 60.071186 
L 437.676923 59.461017 
L 438.067133 57.935593 
L 438.457343 61.901695 
L 438.847552 58.850847 
L 439.237762 57.630508 
L 439.627972 59.766102 
L 440.018182 59.155932 
L 440.408392 59.461017 
L 441.188811 60.681356 
L 441.579021 61.59661 
L 441.969231 58.850847 
L 442.359441 60.376271 
L 442.74965 58.240678 
L 443.13986 59.766102 
L 443.53007 57.630508 
L 443.92028 60.681356 
L 444.31049 59.766102 
L 444.700699 60.681356 
L 445.090909 60.376271 
L 445.481119 59.461017 
L 445.871329 59.766102 
L 446.261538 58.240678 
L 446.651748 58.545763 
L 447.041958 59.155932 
L 447.432168 59.155932 
L 447.822378 57.935593 
L 448.212587 60.681356 
L 448.602797 60.071186 
L 448.993007 58.240678 
L 449.383217 59.766102 
L 449.773427 59.461017 
L 450.163636 60.376271 
L 450.553846 59.155932 
L 450.944056 60.986441 
L 451.334266 58.545763 
L 451.724476 58.240678 
L 452.114685 60.681356 
L 452.504895 59.155932 
L 452.895105 59.461017 
L 453.285315 59.155932 
L 453.675524 60.376271 
L 454.065734 60.681356 
L 454.455944 58.850847 
L 454.846154 58.240678 
L 455.236364 59.461017 
L 455.626573 58.545763 
L 456.016783 59.766102 
L 456.406993 57.935593 
L 456.797203 57.630508 
L 457.187413 60.681356 
L 457.577622 60.986441 
L 457.967832 59.766102 
L 458.358042 61.291525 
L 458.748252 59.155932 
L 459.138462 58.545763 
L 459.528671 59.461017 
L 459.918881 58.545763 
L 460.309091 59.766102 
L 460.699301 59.461017 
L 461.08951 59.461017 
L 461.47972 59.155932 
L 461.86993 58.545763 
L 462.26014 60.376271 
L 462.65035 58.545763 
L 463.040559 57.935593 
L 463.430769 62.20678 
L 463.820979 59.155932 
L 464.211189 59.155932 
L 464.601399 61.59661 
L 464.991608 60.681356 
L 465.381818 59.461017 
L 465.772028 59.155932 
L 466.162238 60.986441 
L 466.552448 57.935593 
L 466.942657 61.901695 
L 467.332867 61.291525 
L 467.723077 59.155932 
L 468.113287 58.850847 
L 468.503497 60.376271 
L 468.893706 60.071186 
L 469.283916 60.681356 
L 469.674126 59.155932 
L 470.064336 59.155932 
L 470.454545 58.850847 
L 470.844755 59.766102 
L 471.234965 59.766102 
L 471.625175 60.376271 
L 472.015385 59.155932 
L 472.405594 60.071186 
L 472.795804 60.071186 
L 473.186014 59.155932 
L 473.576224 59.461017 
L 473.966434 57.325424 
L 474.356643 59.155932 
L 474.746853 61.59661 
L 475.137063 59.461017 
L 475.527273 59.461017 
L 475.917483 57.020339 
L 476.307692 58.545763 
L 476.697902 59.155932 
L 477.088112 57.630508 
L 477.478322 58.850847 
L 477.868531 58.850847 
L 478.258741 59.766102 
L 478.648951 60.986441 
L 479.039161 59.461017 
L 479.429371 58.850847 
L 479.81958 60.681356 
L 480.6 59.461017 
L 480.99021 58.545763 
L 481.770629 60.376271 
L 482.160839 58.850847 
L 482.551049 59.766102 
L 483.331469 59.766102 
L 483.721678 60.071186 
L 484.111888 59.766102 
L 484.502098 59.155932 
L 484.892308 58.240678 
L 485.282517 59.766102 
L 485.672727 58.545763 
L 486.062937 62.20678 
L 486.453147 59.766102 
L 486.843357 58.545763 
L 487.233566 58.850847 
L 487.623776 58.850847 
L 488.013986 60.071186 
L 488.404196 58.240678 
L 488.794406 59.766102 
L 489.184615 59.766102 
L 489.574825 60.071186 
L 489.965035 59.155932 
L 490.355245 58.850847 
L 490.745455 60.071186 
L 491.135664 59.155932 
L 491.525874 59.766102 
L 491.916084 58.850847 
L 492.306294 58.240678 
L 492.696503 60.071186 
L 493.086713 57.020339 
L 493.476923 61.59661 
L 493.867133 57.935593 
L 494.257343 60.071186 
L 494.647552 58.240678 
L 495.037762 61.901695 
L 495.427972 59.766102 
L 495.818182 61.59661 
L 496.208392 59.155932 
L 496.598601 58.850847 
L 496.988811 61.291525 
L 497.379021 59.766102 
L 497.769231 58.850847 
L 498.159441 59.766102 
L 498.54965 59.155932 
L 498.93986 61.291525 
L 499.33007 58.850847 
L 499.72028 60.681356 
L 500.11049 59.155932 
L 500.500699 58.545763 
L 500.890909 60.376271 
L 501.281119 58.850847 
L 501.671329 61.901695 
L 502.061538 58.850847 
L 502.451748 58.545763 
L 502.841958 58.850847 
L 503.232168 58.545763 
L 503.622378 60.376271 
L 504.012587 60.071186 
L 504.402797 56.715254 
L 504.793007 59.155932 
L 505.183217 59.766102 
L 505.573427 57.325424 
L 505.963636 57.935593 
L 506.353846 59.766102 
L 507.134266 62.20678 
L 507.524476 60.376271 
L 507.914685 60.071186 
L 508.304895 61.291525 
L 508.695105 59.766102 
L 509.085315 59.461017 
L 509.475524 59.461017 
L 509.865734 60.071186 
L 510.255944 58.545763 
L 510.646154 59.155932 
L 511.036364 59.155932 
L 511.426573 61.291525 
L 511.816783 59.461017 
L 512.206993 60.376271 
L 512.597203 60.071186 
L 512.987413 59.155932 
L 513.377622 60.071186 
L 513.767832 58.850847 
L 514.158042 60.681356 
L 514.548252 60.071186 
L 514.938462 62.511864 
L 515.328671 60.376271 
L 515.718881 59.155932 
L 516.109091 58.850847 
L 516.88951 60.681356 
L 517.27972 58.240678 
L 517.66993 60.986441 
L 518.06014 60.071186 
L 518.45035 59.461017 
L 518.840559 57.630508 
L 519.230769 59.766102 
L 519.620979 58.240678 
L 520.011189 58.850847 
L 520.401399 57.325424 
L 520.791608 60.071186 
L 521.572028 58.240678 
L 521.962238 59.766102 
L 522.352448 59.461017 
L 522.742657 59.766102 
L 523.132867 59.155932 
L 523.523077 56.715254 
L 524.303497 57.935593 
L 524.693706 60.681356 
L 525.083916 60.986441 
L 525.474126 58.240678 
L 525.864336 59.766102 
L 526.254545 59.461017 
L 526.644755 59.766102 
L 527.034965 58.545763 
L 527.425175 57.935593 
L 528.205594 60.986441 
L 528.595804 58.545763 
L 528.986014 61.901695 
L 529.376224 58.850847 
L 529.766434 59.461017 
L 530.156643 62.20678 
L 530.546853 58.240678 
L 530.937063 58.850847 
L 531.327273 57.630508 
L 531.717483 57.935593 
L 532.107692 60.681356 
L 532.497902 61.291525 
L 532.888112 59.461017 
L 533.278322 58.850847 
L 533.668531 58.850847 
L 534.058741 59.155932 
L 534.448951 60.681356 
L 534.839161 60.071186 
L 535.229371 60.986441 
L 535.61958 60.376271 
L 536.00979 57.935593 
L 536.4 58.850847 
L 536.79021 58.240678 
L 537.18042 60.071186 
L 537.570629 59.155932 
L 538.741259 60.071186 
L 539.131469 59.155932 
L 539.521678 58.545763 
L 539.911888 58.240678 
L 540.302098 60.681356 
L 540.692308 57.935593 
L 541.472727 61.901695 
L 542.253147 59.155932 
L 542.643357 60.986441 
L 543.033566 59.461017 
L 543.423776 58.850847 
L 543.813986 58.545763 
L 544.204196 58.850847 
L 544.594406 61.59661 
L 544.984615 59.461017 
L 545.374825 60.681356 
L 546.155245 58.850847 
L 546.545455 60.071186 
L 546.935664 57.325424 
L 547.325874 60.681356 
L 547.716084 58.545763 
L 548.106294 58.545763 
L 548.496503 60.986441 
L 548.886713 60.071186 
L 549.276923 57.630508 
L 549.667133 60.071186 
L 550.057343 59.461017 
L 550.447552 59.461017 
L 550.837762 58.240678 
L 551.227972 60.376271 
L 551.618182 58.850847 
L 552.008392 60.376271 
L 552.398601 58.545763 
L 552.788811 58.240678 
L 553.179021 59.766102 
L 553.569231 58.545763 
L 553.959441 60.376271 
L 554.34965 58.545763 
L 554.73986 59.766102 
L 555.13007 58.240678 
L 555.52028 57.935593 
L 555.91049 61.59661 
L 556.300699 59.766102 
L 556.690909 60.986441 
L 557.081119 58.545763 
L 557.471329 57.325424 
L 557.861538 57.325424 
L 558.641958 60.681356 
L 559.032168 57.935593 
L 559.422378 60.376271 
L 559.812587 60.376271 
L 560.202797 58.850847 
L 560.593007 61.291525 
L 560.983217 58.850847 
L 561.373427 61.59661 
L 561.763636 60.681356 
L 562.153846 60.376271 
L 562.544056 58.240678 
L 562.934266 60.986441 
L 563.324476 59.461017 
L 563.714685 59.155932 
L 564.104895 59.461017 
L 564.495105 61.291525 
L 564.885315 59.461017 
L 565.275524 60.376271 
L 565.665734 58.240678 
L 566.055944 57.935593 
L 566.446154 57.935593 
L 566.836364 59.155932 
L 567.226573 59.461017 
L 567.616783 59.461017 
L 568.006993 57.935593 
L 568.397203 58.545763 
L 568.787413 59.766102 
L 569.177622 60.376271 
L 569.567832 58.545763 
L 569.958042 58.850847 
L 570.348252 59.461017 
L 570.738462 60.986441 
L 571.128671 58.850847 
L 571.518881 58.850847 
L 571.909091 58.545763 
L 572.299301 60.376271 
L 572.68951 59.155932 
L 573.07972 59.766102 
L 573.46993 59.155932 
L 573.86014 59.155932 
L 574.25035 58.850847 
L 574.640559 57.020339 
L 575.030769 58.850847 
L 575.420979 57.935593 
L 575.811189 58.240678 
L 576.201399 57.935593 
L 576.591608 56.715254 
L 576.981818 58.850847 
L 577.372028 58.850847 
L 577.762238 59.155932 
L 578.152448 58.850847 
L 580.103497 58.850847 
L 580.493706 59.155932 
L 580.883916 57.325424 
L 581.274126 59.461017 
L 581.664336 59.155932 
L 582.054545 60.376271 
L 582.834965 58.240678 
L 583.225175 58.850847 
L 583.615385 58.850847 
L 584.005594 57.630508 
L 584.395804 59.766102 
L 584.786014 60.681356 
L 585.176224 58.545763 
L 585.566434 59.155932 
L 585.956643 59.461017 
L 586.346853 60.071186 
L 586.737063 58.545763 
L 587.127273 60.681356 
L 587.907692 58.240678 
L 588.297902 59.461017 
L 588.688112 59.461017 
L 589.078322 59.155932 
L 589.468531 58.545763 
L 589.858741 60.986441 
L 590.248951 57.020339 
L 590.639161 57.935593 
L 591.029371 58.545763 
L 591.41958 57.630508 
L 591.80979 60.376271 
L 592.2 57.935593 
L 592.59021 60.376271 
L 592.98042 60.376271 
L 593.370629 60.681356 
L 593.760839 58.545763 
L 594.541259 60.376271 
L 595.321678 57.935593 
L 595.711888 60.681356 
L 596.102098 58.545763 
L 596.492308 59.766102 
L 596.882517 59.155932 
L 597.662937 59.766102 
L 598.053147 59.461017 
L 598.443357 57.020339 
L 598.833566 57.935593 
L 599.223776 57.325424 
L 599.613986 60.681356 
L 600.004196 58.240678 
L 600.394406 59.766102 
L 600.784615 57.020339 
L 601.174825 59.155932 
L 601.565035 58.850847 
L 601.955245 60.071186 
L 603.125874 58.240678 
L 603.516084 59.155932 
L 603.906294 58.850847 
L 604.296503 59.766102 
L 604.686713 59.461017 
L 605.076923 58.850847 
L 605.467133 60.376271 
L 605.857343 60.071186 
L 606.247552 58.850847 
L 606.637762 60.071186 
L 607.418182 59.461017 
L 607.808392 59.461017 
L 608.198601 60.986441 
L 608.588811 58.240678 
L 608.979021 60.376271 
L 609.369231 58.545763 
L 609.759441 59.461017 
L 610.14965 60.071186 
L 610.53986 58.240678 
L 610.93007 60.071186 
L 611.32028 62.511864 
L 611.71049 60.681356 
L 612.100699 57.630508 
L 612.490909 59.766102 
L 612.881119 59.766102 
L 613.271329 57.935593 
L 613.661538 59.461017 
L 614.051748 58.545763 
L 614.441958 59.461017 
L 614.832168 57.935593 
L 615.222378 59.155932 
L 615.612587 59.461017 
L 616.002797 58.850847 
L 616.393007 60.986441 
L 616.783217 60.071186 
L 617.563636 58.850847 
L 617.953846 60.681356 
L 618.344056 58.240678 
L 618.734266 58.850847 
L 619.124476 57.630508 
L 619.514685 60.071186 
L 619.904895 58.545763 
L 620.295105 59.155932 
L 620.685315 58.850847 
L 621.075524 59.155932 
L 621.465734 59.155932 
L 621.855944 60.071186 
L 622.636364 58.240678 
L 622.636364 58.240678 
" clip-path="url(#p29434a74a0)" style="fill: none; stroke: #ff7f0e; stroke-width: 1.5; stroke-linecap: square"/>
   </g>
   <g id="patch_8">
    <path d="M 90 320.4 
L 90 43.2 
" style="fill: none; stroke: #000000; stroke-width: 0.8; stroke-linejoin: miter; stroke-linecap: square"/>
   </g>
   <g id="patch_9">
    <path d="M 648 320.4 
L 648 43.2 
" style="fill: none; stroke: #000000; stroke-width: 0.8; stroke-linejoin: miter; stroke-linecap: square"/>
   </g>
   <g id="patch_10">
    <path d="M 90 320.4 
L 648 320.4 
" style="fill: none; stroke: #000000; stroke-width: 0.8; stroke-linejoin: miter; stroke-linecap: square"/>
   </g>
   <g id="patch_11">
    <path d="M 90 43.2 
L 648 43.2 
" style="fill: none; stroke: #000000; stroke-width: 0.8; stroke-linejoin: miter; stroke-linecap: square"/>
   </g>
   <g id="text_22">
    <!-- loss and accuracy -->
    <g transform="translate(315.237188 37.2) scale(0.12 -0.12)">
     <defs>
      <path id="DejaVuSans-20" transform="scale(0.015625)"/>
      <path id="DejaVuSans-6e" d="M 3513 2113 
L 3513 0 
L 2938 0 
L 2938 2094 
Q 2938 2591 2744 2837 
Q 2550 3084 2163 3084 
Q 1697 3084 1428 2787 
Q 1159 2491 1159 1978 
L 1159 0 
L 581 0 
L 581 3500 
L 1159 3500 
L 1159 2956 
Q 1366 3272 1645 3428 
Q 1925 3584 2291 3584 
Q 2894 3584 3203 3211 
Q 3513 2838 3513 2113 
z
" transform="scale(0.015625)"/>
      <path id="DejaVuSans-64" d="M 2906 2969 
L 2906 4863 
L 3481 4863 
L 3481 0 
L 2906 0 
L 2906 525 
Q 2725 213 2448 61 
Q 2172 -91 1784 -91 
Q 1150 -91 751 415 
Q 353 922 353 1747 
Q 353 2572 751 3078 
Q 1150 3584 1784 3584 
Q 2172 3584 2448 3432 
Q 2725 3281 2906 2969 
z
M 947 1747 
Q 947 1113 1208 752 
Q 1469 391 1925 391 
Q 2381 391 2643 752 
Q 2906 1113 2906 1747 
Q 2906 2381 2643 2742 
Q 2381 3103 1925 3103 
Q 1469 3103 1208 2742 
Q 947 2381 947 1747 
z
" transform="scale(0.015625)"/>
     </defs>
     <use xlink:href="#DejaVuSans-6c"/>
     <use xlink:href="#DejaVuSans-6f" x="27.783203"/>
     <use xlink:href="#DejaVuSans-73" x="88.964844"/>
     <use xlink:href="#DejaVuSans-73" x="141.064453"/>
     <use xlink:href="#DejaVuSans-20" x="193.164062"/>
     <use xlink:href="#DejaVuSans-61" x="224.951172"/>
     <use xlink:href="#DejaVuSans-6e" x="286.230469"/>
     <use xlink:href="#DejaVuSans-64" x="349.609375"/>
     <use xlink:href="#DejaVuSans-20" x="413.085938"/>
     <use xlink:href="#DejaVuSans-61" x="444.873047"/>
     <use xlink:href="#DejaVuSans-63" x="506.152344"/>
     <use xlink:href="#DejaVuSans-63" x="561.132812"/>
     <use xlink:href="#DejaVuSans-75" x="616.113281"/>
     <use xlink:href="#DejaVuSans-72" x="679.492188"/>
     <use xlink:href="#DejaVuSans-61" x="720.605469"/>
     <use xlink:href="#DejaVuSans-63" x="781.884766"/>
     <use xlink:href="#DejaVuSans-79" x="836.865234"/>
    </g>
   </g>
   <g id="legend_2">
    <g id="patch_12">
     <path d="M 563.88125 65.878125 
L 641 65.878125 
Q 643 65.878125 643 63.878125 
L 643 50.2 
Q 643 48.2 641 48.2 
L 563.88125 48.2 
Q 561.88125 48.2 561.88125 50.2 
L 561.88125 63.878125 
Q 561.88125 65.878125 563.88125 65.878125 
z
" style="fill: #ffffff; opacity: 0.8; stroke: #cccccc; stroke-linejoin: miter"/>
    </g>
    <g id="line2d_21">
     <path d="M 565.88125 56.298437 
L 575.88125 56.298437 
L 585.88125 56.298437 
" style="fill: none; stroke: #ff7f0e; stroke-width: 1.5; stroke-linecap: square"/>
    </g>
    <g id="text_23">
     <!-- accuracy -->
     <g transform="translate(593.88125 59.798437) scale(0.1 -0.1)">
      <use xlink:href="#DejaVuSans-61"/>
      <use xlink:href="#DejaVuSans-63" x="61.279297"/>
      <use xlink:href="#DejaVuSans-63" x="116.259766"/>
      <use xlink:href="#DejaVuSans-75" x="171.240234"/>
      <use xlink:href="#DejaVuSans-72" x="234.619141"/>
      <use xlink:href="#DejaVuSans-61" x="275.732422"/>
      <use xlink:href="#DejaVuSans-63" x="337.011719"/>
      <use xlink:href="#DejaVuSans-79" x="391.992188"/>
     </g>
    </g>
   </g>
  </g>
 </g>
 <defs>
  <clipPath id="p29434a74a0">
   <rect x="90" y="43.2" width="558" height="277.2"/>
  </clipPath>
 </defs>
</svg>
